<svg id="Layer_1" data-name="Layer 1" xmlns="http://www.w3.org/2000/svg" viewBox="0 0 663.592 86.839">
  <defs>
    <style>
      .cls-1 {
        fill: #313133;
      }

      .cls-2 {
        fill: #2eac85;
      }
    </style>
  </defs>
  <title>d182acc1-9794-4321-81fe-9fa7919a8d24</title>
  <path class="cls-1" d="M13.1,25.183a25.9,25.9,0,0,1,3.4-7.98,16.96,16.96,0,0,1,5.46-5.292,14.054,14.054,0,0,1,7.35-1.932,19.831,19.831,0,0,1,6.678,1.008,14.2,14.2,0,0,1,4.7,2.688,12.588,12.588,0,0,1,2.94,3.78,14.539,14.539,0,0,1,1.386,4.2,2.073,2.073,0,0,0,1.176.5,1.026,1.026,0,0,0,.672-0.294,0.916,0.916,0,0,0,.336-0.714q0-.756.084-1.848t0.252-2.268q0.167-1.176.378-2.394T48.3,12.5a26.189,26.189,0,0,1,.966-3.822,18.623,18.623,0,0,1,1.47-3.36,10.48,10.48,0,0,1,1.806-2.394A2.869,2.869,0,0,1,54.516,2a0.845,0.845,0,0,0,.546-0.168,3.73,3.73,0,0,0,.63-0.924,0.858,0.858,0,0,0-.84-0.84A2.729,2.729,0,0,0,53.34.151a8.771,8.771,0,0,0-3.7,3.444A32.113,32.113,0,0,0,47.208,8.8a10.2,10.2,0,0,0-2.31-.546q-1.808-.294-4.116-0.546t-4.62-.42q-2.312-.167-3.654-0.168A35.8,35.8,0,0,0,20.664,9.139a32.973,32.973,0,0,0-10.416,5.88A29.018,29.018,0,0,0,2.814,24.6q-0.366.743-.683,1.515l10.653,0.534C12.887,26.155,12.982,25.661,13.1,25.183Z" transform="translate(0 0)"/>
  <path class="cls-2" d="M50.022,53.659a1.25,1.25,0,0,0-.882.5,17.252,17.252,0,0,1-2.814,4.452,21.586,21.586,0,0,1-4.116,3.7,20.226,20.226,0,0,1-5.04,2.52,17.3,17.3,0,0,1-5.586.924,15.667,15.667,0,0,1-7.9-2.058,18.342,18.342,0,0,1-6.216-6.006A31.861,31.861,0,0,1,13.4,48.073,51.874,51.874,0,0,1,11.928,35.1a40.9,40.9,0,0,1,.856-8.451L2.131,26.111A30.111,30.111,0,0,0,0,37.7,33.8,33.8,0,0,0,2.562,51.517a26.805,26.805,0,0,0,6.72,9.408A26.531,26.531,0,0,0,18.816,66.3a35.883,35.883,0,0,0,11,1.722q1.427,0,3.15-.084t3.36-.126q1.638-.043,3.066-0.126t2.268-.084a2.559,2.559,0,0,1,0,1.89q-0.337,1.469-.672,3.15a22.768,22.768,0,0,0-.42,2.982q-0.084,1.3.84,1.3a2.118,2.118,0,0,0,1.428-.336,2.668,2.668,0,0,0,.336-1.68,13.463,13.463,0,0,1,.252-2.562q0.252-1.3.546-2.52a16.725,16.725,0,0,1,.672-2.184q0.378-.965.63-1.554,0.335-.5,1.26-2.058t1.848-3.444q0.924-1.89,1.638-3.78a9.11,9.11,0,0,0,.714-2.982C50.736,53.6,50.5,53.547,50.022,53.659Z" transform="translate(0 0)"/>
  <path class="cls-1" d="M68,24.6q0.209-4.871.5-8.862t0.63-6.594A10.215,10.215,0,0,1,69.8,6.031a1.053,1.053,0,0,1,.63-0.378c0.307-.084.63-0.181,0.966-0.294a4.618,4.618,0,0,0,.924-0.42,0.826,0.826,0,0,0,.42-0.756,8.858,8.858,0,0,0-.042-1.05c-0.029-.2-0.267-0.265-0.714-0.21q-0.5.169-2.058,0.5a28.245,28.245,0,0,1-3.4.5Q64.342,4.1,61.74,4.183t-5.04.084a2.725,2.725,0,0,0-2.016.756,2.618,2.618,0,0,0-.756,1.932q0,0.169.378,0.126a3.669,3.669,0,0,1,.924.042,4.437,4.437,0,0,1,1.176.378,2.378,2.378,0,0,1,1.05,1.05,8.062,8.062,0,0,1,.588,1.3,16.191,16.191,0,0,1,.5,2.9q0.168,1.764.378,5.964t0.21,10.248v0L67.822,29.4Q67.895,26.988,68,24.6Z" transform="translate(0 0)"/>
  <path class="cls-2" d="M98.007,30.913L73.844,29.7c-0.778.529-1.538,1.079-2.276,1.655q-2.1,1.638-3.78,3.15L67.7,34.423q0.042-2.522.118-5.023l-8.686-.435q0,3.275-.126,7.389t-0.336,8.4q-0.211,4.285-.546,8.526t-0.672,7.77a16.681,16.681,0,0,1-.672,3.612,5.967,5.967,0,0,0-.42,1.6q0,1.931,2.52,1.932a6.78,6.78,0,0,0,1.554-.336q1.135-.336,2.73-0.756,1.512-.5,3.234-1.05t3.15-1.092a19.747,19.747,0,0,0,2.352-1.05,1.646,1.646,0,0,0,.924-0.756,1.118,1.118,0,0,0-.126-0.5,0.4,0.4,0,0,0-.378-0.252c-0.336.113-.617,0.2-0.84,0.252q-0.421.085-.756,0.126a4.667,4.667,0,0,1-.588.042,3.155,3.155,0,0,1-2.94-2.562,30.457,30.457,0,0,1-.5-6.342q0-3.191.126-5.5T67.2,43.663q0.083-1.427.21-2.268t0.252-1.386a5.275,5.275,0,0,1,.252-0.84c0.084-.2.181-0.405,0.294-0.63a9.3,9.3,0,0,1,2.1-2.772,18.11,18.11,0,0,1,2.94-2.268,12.806,12.806,0,0,1,3.108-1.3,12.081,12.081,0,0,1,3.192-.462,9.2,9.2,0,0,1,4.242,1.008,10.484,10.484,0,0,1,3.486,2.94,14.765,14.765,0,0,1,2.394,4.788,22.208,22.208,0,0,1,.882,6.552,30.489,30.489,0,0,1-1.092,8.316,44.573,44.573,0,0,1-2.52,6.888,34.174,34.174,0,0,1-2.814,5A12.587,12.587,0,0,1,82.067,69.7a0.611,0.611,0,0,0,0,.924,0.637,0.637,0,0,0,.84.168,31.08,31.08,0,0,0,4.368-3.528A45.732,45.732,0,0,0,93.2,60.5a44.921,44.921,0,0,0,5.208-9.492,31,31,0,0,0,2.226-11.886,13.646,13.646,0,0,0-1.176-5.754A14.044,14.044,0,0,0,98.007,30.913Z" transform="translate(0 0)"/>
  <path class="cls-1" d="M96.264,28.963A13.881,13.881,0,0,0,91.6,26.149a16.428,16.428,0,0,0-5.67-.966,15.411,15.411,0,0,0-5.124.882,26.185,26.185,0,0,0-4.83,2.268c-0.728.437-1.438,0.9-2.134,1.369l24.164,1.21A13.414,13.414,0,0,0,96.264,28.963Z" transform="translate(0 0)"/>
  <path class="cls-1" d="M108.443,32.491a2.33,2.33,0,0,0-.168,1.008,2.542,2.542,0,0,0,1.008,2.016,3.34,3.34,0,0,0,2.184.84,0.685,0.685,0,0,0,.756-0.672,4.118,4.118,0,0,1,.714-1.428,8.994,8.994,0,0,1,1.764-1.848,10.205,10.205,0,0,1,.884-0.614l-5.328-.267C109.6,31.858,108.993,32.181,108.443,32.491Z" transform="translate(0 0)"/>
  <path class="cls-1" d="M138.347,29.131a6.46,6.46,0,0,0-2.814-2.856,11.738,11.738,0,0,0-5.418-1.008,22.7,22.7,0,0,0-5.292.714,55.14,55.14,0,0,0-5.922,1.806q-2.982,1.093-5.754,2.352c-1.059.481-2.015,0.942-2.89,1.387l5.328,0.267a12.1,12.1,0,0,1,1.8-.982,8.489,8.489,0,0,1,3.4-.672,7.86,7.86,0,0,1,3.528.714,6.536,6.536,0,0,1,1.926,1.474l13.177,0.66A11.573,11.573,0,0,0,138.347,29.131Z" transform="translate(0 0)"/>
  <path class="cls-2" d="M154.139,58.279q-0.252.169-1.05,0.63t-1.806.924a16.932,16.932,0,0,1-2.1.8,6.893,6.893,0,0,1-2.016.336,3.832,3.832,0,0,1-3.234-1.89,16.319,16.319,0,0,1-2.142-4.956,44.363,44.363,0,0,1-1.26-7.056q-0.422-3.989-.672-8.274-0.169-2.854-.378-5.334c-0.014-.162-0.04-0.312-0.059-0.47l-13.177-.66a7.518,7.518,0,0,1,.51.626,12.35,12.35,0,0,1,1.68,3.444,39.163,39.163,0,0,1,1.176,4.662q-1.178.756-3.738,2.058t-5.544,2.73q-2.982,1.429-5.838,2.814t-4.452,2.226a20.452,20.452,0,0,0-5.082,3.57,6.141,6.141,0,0,0-1.638,4.41,9.649,9.649,0,0,0,.546,3.234,7.419,7.419,0,0,0,1.68,2.73,8.4,8.4,0,0,0,2.814,1.89,10.056,10.056,0,0,0,3.948.714,16.354,16.354,0,0,0,5.586-1.05,40.951,40.951,0,0,0,5.67-2.562,45.726,45.726,0,0,0,5.124-3.234q2.351-1.72,3.864-2.982,0.335,2.1.756,4.032a21.405,21.405,0,0,0,1.008,3.4,7.752,7.752,0,0,0,1.386,2.352,2.468,2.468,0,0,0,1.89.882,7.874,7.874,0,0,0,2.52-.588,37.768,37.768,0,0,0,3.486-1.512q1.89-.924,3.822-1.974t3.528-1.974q1.594-.924,2.688-1.6a10.838,10.838,0,0,0,1.26-.84,1.664,1.664,0,0,0,.168-0.756A0.864,0.864,0,0,0,154.139,58.279Zm-22.386-2.9q-0.378.462-1.05,1.134a12.032,12.032,0,0,1-1.512,1.176,22.961,22.961,0,0,1-2.562,1.512,23.71,23.71,0,0,1-3.192,1.344,10.243,10.243,0,0,1-3.318.588,5.271,5.271,0,0,1-4.452-1.848A6.8,6.8,0,0,1,114.239,55a4.692,4.692,0,0,1,1.008-3.024,12.438,12.438,0,0,1,2.94-2.52q1.008-.671,2.52-1.47t3.192-1.6q1.679-.8,3.36-1.47t3.024-1.176q0.083,0.337.294,1.428t0.462,2.6q0.252,1.512.5,3.192t0.5,3.108A1.723,1.723,0,0,1,131.753,55.381Z" transform="translate(0 0)"/>
  <path class="cls-2" d="M164.554,35.347c0-.193.022-0.567,0.064-1.1l-12.067-.6a5.122,5.122,0,0,1,1.377,1.409,9.22,9.22,0,0,1,1.176,2.772,18.838,18.838,0,0,1,.546,4.158q0.083,2.186.126,3.57t0.042,2.31q0,2.185-.126,4.494T155.4,56.809q-0.169,2.142-.336,3.948t-0.336,2.982q-0.17.84-.252,1.47a4.463,4.463,0,0,1-.252,1.05,1.987,1.987,0,0,1-.252.42,0.85,0.85,0,0,0,.588,1.218,4.718,4.718,0,0,0,1.848.294,12.065,12.065,0,0,0,3.318-.588q1.973-.589,3.822-1.344a33.883,33.883,0,0,0,3.318-1.554,13.789,13.789,0,0,0,1.974-1.218,0.652,0.652,0,0,0,.042-0.63,0.515,0.515,0,0,0-.294-0.462,5.182,5.182,0,0,1-1.26.168,2.731,2.731,0,0,1-1.554-.42,3.086,3.086,0,0,1-1.05-1.554,13.136,13.136,0,0,1-.63-3.066,47.335,47.335,0,0,1-.21-4.956q0-1.846.042-2.982t0.084-1.89q0.042-.757.126-1.344t0.168-1.344a18.613,18.613,0,0,1,1.092-4.746,13.692,13.692,0,0,1,2.268-3.948,10.547,10.547,0,0,1,1.955-1.814l-3.941-.2C165.3,34.651,164.916,35,164.554,35.347Z" transform="translate(0 0)"/>
  <path class="cls-1" d="M164.638,34q0.083-1.008.126-2.142t0.126-2.226q0.083-1.091.084-1.512,0-2.772-2.436-2.772a8.02,8.02,0,0,0-2.646.672q-1.723.674-3.654,1.6t-3.78,2.016q-1.849,1.093-2.94,1.848a6.448,6.448,0,0,0-.8.546,0.4,0.4,0,0,0-.126.294q0,0.756.336,0.756a4.329,4.329,0,0,1,.84-0.084h0.84a3.466,3.466,0,0,1,1.722.5c0.075,0.043.146,0.1,0.219,0.146l12.067,0.6C164.625,34.167,164.631,34.092,164.638,34Z" transform="translate(0 0)"/>
  <path class="cls-2" d="M204.412,59.581c-0.084-.139-0.155-0.181-0.21-0.126a4.239,4.239,0,0,1-1.008.63q-0.756.378-1.722,0.756t-2.016.672a7.067,7.067,0,0,1-1.89.294q-4.369,0-4.368-6.72,0-1.846.21-4.2T193.87,46.1q0.253-2.435.462-4.7t0.21-3.948c0-.592-0.027-1.156-0.07-1.7l-13-.651a11.345,11.345,0,0,1,1.1,1.3q2.729,3.823,2.73,11.214,0,3.78-.294,7.056t-0.63,5.712q-0.337,2.268-.546,3.276a8.477,8.477,0,0,0-.21,1.68,3.113,3.113,0,0,0,.714,1.932,3.177,3.177,0,0,0,2.646.924,13.566,13.566,0,0,0,4.284-.966q2.688-.965,5.418-2.184t4.956-2.394q2.225-1.175,2.9-1.6a0.662,0.662,0,0,0,.126-0.336,1.5,1.5,0,0,0-.042-0.588A2.062,2.062,0,0,0,204.412,59.581Z" transform="translate(0 0)"/>
  <path class="cls-1" d="M191.308,28.249a11.929,11.929,0,0,0-8.274-2.9,15.977,15.977,0,0,0-5.376.924,25.365,25.365,0,0,0-4.956,2.394,33.884,33.884,0,0,0-4.368,3.234c-0.931.815-1.807,1.611-2.658,2.4l3.941,0.2a10.739,10.739,0,0,1,1.489-.916,10.194,10.194,0,0,1,4.62-1.008,7.745,7.745,0,0,1,5.748,2.518l13,0.651Q194.08,30.744,191.308,28.249Z" transform="translate(0 0)"/>
  <path class="cls-1" d="M215.752,32.491a8.581,8.581,0,0,1,3.486-2.436,12.1,12.1,0,0,1,4.284-.756,18.141,18.141,0,0,1,4.494.546,14.724,14.724,0,0,1,3.738,1.47,9.194,9.194,0,0,1,2.6,2.184,5.251,5.251,0,0,1,1.176,2.688c0.035,0.354.064,0.907,0.088,1.618l8.055,0.4c0.053-1.63.11-3.28,0.173-4.962q0.168-4.536.42-9.03t0.588-8.19q0.335-3.7.672-6.216a8.752,8.752,0,0,1,.756-3.108,2.315,2.315,0,0,1,.882-0.8,6.305,6.305,0,0,1,1.386-.378,0.592,0.592,0,0,0,.5-0.5,1.912,1.912,0,0,0-.042-0.882,1.673,1.673,0,0,0-.42-0.756,0.748,0.748,0,0,0-.714-0.21,9.493,9.493,0,0,1-1.428.462,15.188,15.188,0,0,1-2.226.336q-1.386.126-3.528,0.168t-5.334.042a11.236,11.236,0,0,0-2.52.21,5.246,5.246,0,0,0-1.512.63,1.266,1.266,0,0,0-.546,1.176q0.041,0.756.378,0.756,2.435,0,3.234,1.344a12.374,12.374,0,0,1,1.134,4.7q0,0.422.042,2.184t0.084,3.864q0.042,2.1.042,4.074v2.73q-0.925-.083-2.016-0.084h-2.268a39.557,39.557,0,0,0-12.054,1.68,25.615,25.615,0,0,0-8.9,4.788,20.072,20.072,0,0,0-3.652,4.123l6.677,0.334A11.9,11.9,0,0,1,215.752,32.491Z" transform="translate(0 0)"/>
  <path class="cls-2" d="M256.618,58.615a8.484,8.484,0,0,1-1.3.8q-0.882.463-1.932,0.924a16.45,16.45,0,0,1-2.268.8,8.428,8.428,0,0,1-2.226.336,4.36,4.36,0,0,1-4.116-2.9q-1.345-2.9-1.344-9.03,0-3.191.126-7.476c0.037-1.267.078-2.558,0.121-3.858l-8.055-.4c0.014,0.415.027,0.869,0.038,1.406q0.042,2.186.042,4.116v4.494q0,2.563-.168,4.326a18.747,18.747,0,0,1-.5,3.318,6.6,6.6,0,0,1-1.008,2.142,4.647,4.647,0,0,1-.924,1.008,11.714,11.714,0,0,1-1.554,1.134,9.878,9.878,0,0,1-1.974.924,7.147,7.147,0,0,1-2.352.378,13.288,13.288,0,0,1-5.88-1.3,13.562,13.562,0,0,1-4.62-3.654,17.5,17.5,0,0,1-3.024-5.586,22.329,22.329,0,0,1-1.092-7.182,21.745,21.745,0,0,1,.84-6.51c0.013-.042.03-0.079,0.044-0.12l-6.677-.334a20.515,20.515,0,0,0-1.892,3.437,25.121,25.121,0,0,0-1.89,9.912,20.2,20.2,0,0,0,1.344,7.56,18.332,18.332,0,0,0,3.57,5.754,15.625,15.625,0,0,0,5,3.654,13.3,13.3,0,0,0,5.544,1.26,16.778,16.778,0,0,0,5.334-.882,31.963,31.963,0,0,0,8.862-4.578,24.21,24.21,0,0,0,2.436-2.016v1.218c0,0.533-.014,1.092-0.042,1.68s-0.042,1.148-.042,1.68v1.134a2.074,2.074,0,0,0,.546,1.6,3.1,3.1,0,0,0,2.058.5,15.658,15.658,0,0,0,5.292-1.26q3.276-1.26,6.468-2.856,2.6-1.26,4.746-2.394t3.15-1.722q0.419-.252.084-1.008T256.618,58.615Z" transform="translate(0 0)"/>
  <path class="cls-1" d="M288.286,38.791q-0.169-2.854-.378-5.334a11.854,11.854,0,0,0-1.134-4.326,6.46,6.46,0,0,0-2.814-2.856,11.738,11.738,0,0,0-5.418-1.008,22.7,22.7,0,0,0-5.292.714,55.14,55.14,0,0,0-5.922,1.806q-2.982,1.093-5.754,2.352t-4.7,2.352A2.33,2.33,0,0,0,256.7,33.5a2.542,2.542,0,0,0,1.008,2.016,3.34,3.34,0,0,0,2.184.84,0.685,0.685,0,0,0,.756-0.672,4.118,4.118,0,0,1,.714-1.428,8.994,8.994,0,0,1,1.764-1.848,11.382,11.382,0,0,1,2.688-1.6,8.489,8.489,0,0,1,3.4-.672,7.86,7.86,0,0,1,3.528.714,6.711,6.711,0,0,1,2.436,2.1,12.35,12.35,0,0,1,1.68,3.444q0.52,1.6.94,3.521l10.6,0.531C288.364,39.894,288.319,39.353,288.286,38.791Z" transform="translate(0 0)"/>
  <path class="cls-2" d="M302.566,58.279q-0.252.169-1.05,0.63t-1.806.924a16.932,16.932,0,0,1-2.1.8,6.893,6.893,0,0,1-2.016.336,3.832,3.832,0,0,1-3.234-1.89,16.319,16.319,0,0,1-2.142-4.956,44.363,44.363,0,0,1-1.26-7.056c-0.226-2.136-.4-4.353-0.557-6.616l-10.6-.531c0.081,0.372.161,0.751,0.237,1.141q-1.178.756-3.738,2.058t-5.544,2.73q-2.982,1.429-5.838,2.814t-4.452,2.226a20.452,20.452,0,0,0-5.082,3.57,6.141,6.141,0,0,0-1.638,4.41,9.649,9.649,0,0,0,.546,3.234,7.419,7.419,0,0,0,1.68,2.73,8.4,8.4,0,0,0,2.814,1.89,10.056,10.056,0,0,0,3.948.714,16.354,16.354,0,0,0,5.586-1.05,40.951,40.951,0,0,0,5.67-2.562,45.726,45.726,0,0,0,5.124-3.234q2.351-1.72,3.864-2.982,0.335,2.1.756,4.032a21.405,21.405,0,0,0,1.008,3.4,7.752,7.752,0,0,0,1.386,2.352,2.468,2.468,0,0,0,1.89.882,7.874,7.874,0,0,0,2.52-.588,37.768,37.768,0,0,0,3.486-1.512q1.89-.924,3.822-1.974t3.528-1.974q1.594-.924,2.688-1.6a10.838,10.838,0,0,0,1.26-.84,1.664,1.664,0,0,0,.168-0.756A0.864,0.864,0,0,0,302.566,58.279Zm-22.386-2.9q-0.378.462-1.05,1.134a12.032,12.032,0,0,1-1.512,1.176,22.961,22.961,0,0,1-2.562,1.512,23.71,23.71,0,0,1-3.192,1.344,10.243,10.243,0,0,1-3.318.588,5.271,5.271,0,0,1-4.452-1.848A6.8,6.8,0,0,1,262.666,55a4.692,4.692,0,0,1,1.008-3.024,12.438,12.438,0,0,1,2.94-2.52q1.008-.671,2.52-1.47t3.192-1.6q1.679-.8,3.36-1.47t3.024-1.176q0.083,0.337.294,1.428t0.462,2.6q0.252,1.512.5,3.192t0.5,3.108A1.723,1.723,0,0,1,280.18,55.381Z" transform="translate(0 0)"/>
  <path class="cls-2" d="M304.077,41.983q0.083,2.186.126,3.57t0.042,2.31q0,2.185-.126,4.494t-0.294,4.452q-0.169,2.142-.336,3.948t-0.336,2.982q-0.17.84-.252,1.47a4.463,4.463,0,0,1-.252,1.05,1.987,1.987,0,0,1-.252.42,0.85,0.85,0,0,0,.588,1.218,4.718,4.718,0,0,0,1.848.294,12.065,12.065,0,0,0,3.318-.588q1.973-.589,3.822-1.344a33.883,33.883,0,0,0,3.318-1.554,13.789,13.789,0,0,0,1.974-1.218,0.652,0.652,0,0,0,.042-0.63,0.515,0.515,0,0,0-.294-0.462,5.182,5.182,0,0,1-1.26.168,2.731,2.731,0,0,1-1.554-.42,3.086,3.086,0,0,1-1.05-1.554,13.136,13.136,0,0,1-.63-3.066,47.335,47.335,0,0,1-.21-4.956q0-1.846.042-2.982t0.084-1.89q0.042-.757.126-1.344t0.168-1.344a19.154,19.154,0,0,1,.628-3.308l-9.322-.467C304.05,41.48,304.068,41.723,304.077,41.983Z" transform="translate(0 0)"/>
  <path class="cls-2" d="M352.838,59.581c-0.084-.139-0.155-0.181-0.21-0.126a4.239,4.239,0,0,1-1.008.63q-0.756.378-1.722,0.756t-2.016.672a7.067,7.067,0,0,1-1.89.294q-4.369,0-4.368-6.72,0-1.846.21-4.2T342.3,46.1c0.1-1,.2-1.976.293-2.936l-9.228-.462a30.511,30.511,0,0,1,.366,4.91q0,3.78-.294,7.056t-0.63,5.712q-0.337,2.268-.546,3.276a8.477,8.477,0,0,0-.21,1.68,3.113,3.113,0,0,0,.714,1.932,3.177,3.177,0,0,0,2.646.924,13.566,13.566,0,0,0,4.284-.966q2.688-.965,5.418-2.184t4.956-2.394q2.225-1.175,2.9-1.6a0.662,0.662,0,0,0,.126-0.336,1.5,1.5,0,0,0-.042-0.588A2.062,2.062,0,0,0,352.838,59.581Z" transform="translate(0 0)"/>
  <path class="cls-1" d="M342.759,41.4q0.209-2.268.21-3.948,0-6.3-3.234-9.2a11.929,11.929,0,0,0-8.274-2.9,15.977,15.977,0,0,0-5.376.924,25.365,25.365,0,0,0-4.956,2.394,33.884,33.884,0,0,0-4.368,3.234q-2.016,1.764-3.78,3.444,0-.335.084-1.344t0.126-2.142q0.042-1.135.126-2.226t0.084-1.512q0-2.772-2.436-2.772a8.02,8.02,0,0,0-2.646.672q-1.723.674-3.654,1.6t-3.78,2.016q-1.849,1.093-2.94,1.848a6.448,6.448,0,0,0-.8.546,0.4,0.4,0,0,0-.126.294q0,0.756.336,0.756A4.329,4.329,0,0,1,298.2,33h0.84a3.466,3.466,0,0,1,1.722.5,4.936,4.936,0,0,1,1.6,1.554,9.22,9.22,0,0,1,1.176,2.772,17.628,17.628,0,0,1,.5,3.407l9.322,0.467c0.138-.488.288-0.969,0.465-1.438a13.692,13.692,0,0,1,2.268-3.948,10.565,10.565,0,0,1,3.444-2.73,10.194,10.194,0,0,1,4.62-1.008A8.153,8.153,0,0,1,331,36.4a14.863,14.863,0,0,1,2.364,6.3l9.228,0.462C342.648,42.568,342.7,41.974,342.759,41.4Z" transform="translate(0 0)"/>
  <path class="cls-1" d="M403.826,45.931a30.413,30.413,0,0,0,9.576-5.586,28.355,28.355,0,0,0,6.846-8.82,25.686,25.686,0,0,0,2.6-11.718,14.269,14.269,0,0,0-5.964-12.138q-5.966-4.41-16.464-4.41a25.542,25.542,0,0,0-5.334.546,40.351,40.351,0,0,0-4.536,1.218q-1.975.674-3.276,1.218a6.333,6.333,0,0,1-1.638.546c0.055,0.113-.267.168-0.966,0.168h-2.73q-1.681,0-3.7-.042t-3.906-.126q-1.89-.083-3.318-0.084a12.355,12.355,0,0,0-1.848.084,0.909,0.909,0,0,0-.336.882V8.635c0,0.113.223,0.182,0.672,0.21s0.966,0.042,1.554.042,1.134-.013,1.638-0.042,0.84-.042,1.008-0.042q0.756,0,1.26,1.344a22.383,22.383,0,0,1,.84,5q0.335,3.654.5,10.122t0.168,16.716c0,0.94-.01,1.9-0.026,2.877l26.6,1.332C403.314,46.106,403.57,46.024,403.826,45.931Zm-14.406-1.89q-2.52-1.05-2.94-2.226,0-1.846.042-4.83t0.084-6.342q0.042-3.359.168-6.846t0.252-6.384q0.126-2.9.252-4.914a13.508,13.508,0,0,1,.294-2.52,2.924,2.924,0,0,1,1.05-1.3,10.563,10.563,0,0,1,2.268-1.344A20.1,20.1,0,0,1,394,6.241a13.428,13.428,0,0,1,3.486-.462,14.244,14.244,0,0,1,5.964,1.26,14.643,14.643,0,0,1,4.83,3.528,16.474,16.474,0,0,1,3.234,5.5,20.91,20.91,0,0,1,1.176,7.182,33.115,33.115,0,0,1-1.218,9.45,19.918,19.918,0,0,1-3.444,6.846,14.28,14.28,0,0,1-5.292,4.158,16.233,16.233,0,0,1-6.762,1.386A17.222,17.222,0,0,1,389.42,44.041Z" transform="translate(0 0)"/>
  <path class="cls-2" d="M394.292,69.451a15.48,15.48,0,0,0-1.806.126q-1.051.126-2.058,0.168a9.247,9.247,0,0,1-1.806-.084,1.251,1.251,0,0,1-1.05-.714,12.068,12.068,0,0,1-.672-3.57q-0.252-2.728-.336-6.09t-0.084-6.72v-5.46a9.341,9.341,0,0,0,2.9.588q1.972,0.169,3.654.168a31.322,31.322,0,0,0,10.026-1.672l-26.6-1.332q-0.06,3.674-.268,7.665-0.3,5.588-.714,10.332t-0.882,8.064q-0.462,3.318-.882,3.738a25.821,25.821,0,0,1-2.646,2.058q-2.06,1.469-4.746,3.066t-5.544,2.94a19.176,19.176,0,0,1-4.956,1.68,1.034,1.034,0,0,0-.924.546,0.908,0.908,0,0,0,.294.8,4.2,4.2,0,0,0,.924.756,1.92,1.92,0,0,0,.966.336,9.423,9.423,0,0,0,3.528-1.344q2.52-1.345,5.544-3.15l6.048-3.612a41.137,41.137,0,0,1,5.04-2.646q2.1-.925,4.41-1.764t4.62-1.47q2.309-.63,4.368-1.008a20.483,20.483,0,0,1,3.654-.378,0.341,0.341,0,0,0,.336-0.294,2.731,2.731,0,0,0,0-1.344A0.512,0.512,0,0,0,394.292,69.451Z" transform="translate(0 0)"/>
  <path class="cls-2" d="M471.74,58.279q-0.252.169-1.05,0.63c-0.533.309-1.134,0.617-1.807,0.924a16.9,16.9,0,0,1-2.1.8,6.893,6.893,0,0,1-2.016.336,3.832,3.832,0,0,1-3.234-1.89,16.3,16.3,0,0,1-2.142-4.956,40.827,40.827,0,0,1-1.029-5.159l-9.609-.481c0.13,0.8.26,1.624,0.39,2.491q0.252,1.681.5,3.108a1.725,1.725,0,0,1-.294,1.3q-0.378.462-1.051,1.134a11.98,11.98,0,0,1-1.512,1.176A23.086,23.086,0,0,1,444.23,59.2a23.717,23.717,0,0,1-3.192,1.344,10.243,10.243,0,0,1-3.318.588,5.269,5.269,0,0,1-4.451-1.848A6.8,6.8,0,0,1,431.839,55a4.687,4.687,0,0,1,1.009-3.024,12.425,12.425,0,0,1,2.939-2.52q1.008-.671,2.521-1.47l0.057-.029-4.371-.219c-0.636.307-1.275,0.616-1.9,0.92q-2.856,1.386-4.451,2.226a20.456,20.456,0,0,0-5.083,3.57,6.141,6.141,0,0,0-1.638,4.41,9.649,9.649,0,0,0,.546,3.234,7.419,7.419,0,0,0,1.68,2.73,8.393,8.393,0,0,0,2.814,1.89,10.059,10.059,0,0,0,3.948.714,16.35,16.35,0,0,0,5.586-1.05,40.977,40.977,0,0,0,5.67-2.562,45.77,45.77,0,0,0,5.124-3.234q2.351-1.72,3.864-2.982,0.334,2.1.756,4.032a21.3,21.3,0,0,0,1.008,3.4,7.771,7.771,0,0,0,1.386,2.352,2.47,2.47,0,0,0,1.891.882,7.871,7.871,0,0,0,2.52-.588,37.658,37.658,0,0,0,3.486-1.512q1.89-.924,3.822-1.974t3.527-1.974q1.6-.924,2.688-1.6a10.838,10.838,0,0,0,1.26-.84,1.67,1.67,0,0,0,.168-0.756A0.864,0.864,0,0,0,471.74,58.279Z" transform="translate(0 0)"/>
  <path class="cls-1" d="M441.5,46.393q1.68-.8,3.36-1.47t3.023-1.176q0.083,0.337.294,1.428t0.463,2.6c0.038,0.227.076,0.468,0.114,0.7l9.609,0.481q-0.128-.921-0.231-1.9-0.42-3.989-.672-8.274-0.168-2.854-.378-5.334a11.873,11.873,0,0,0-1.134-4.326,6.459,6.459,0,0,0-2.814-2.856,11.736,11.736,0,0,0-5.418-1.008,22.7,22.7,0,0,0-5.292.714,55.132,55.132,0,0,0-5.922,1.806q-2.982,1.093-5.754,2.352t-4.7,2.352a2.337,2.337,0,0,0-.168,1.008,2.541,2.541,0,0,0,1.008,2.016,3.343,3.343,0,0,0,2.185.84,0.685,0.685,0,0,0,.756-0.672,4.109,4.109,0,0,1,.714-1.428,8.991,8.991,0,0,1,1.764-1.848,11.4,11.4,0,0,1,2.688-1.6,8.49,8.49,0,0,1,3.4-.672,7.855,7.855,0,0,1,3.527.714,6.706,6.706,0,0,1,2.437,2.1,12.376,12.376,0,0,1,1.68,3.444,39.167,39.167,0,0,1,1.176,4.662q-1.176.756-3.737,2.058t-5.544,2.73c-1.334.639-2.641,1.268-3.937,1.894l4.371,0.219Q439.852,47.177,441.5,46.393Z" transform="translate(0 0)"/>
  <path class="cls-1" d="M482.029,47.443a33.67,33.67,0,0,1,1.428-6.216,14.387,14.387,0,0,1,2.521-4.7,4.81,4.81,0,0,1,3.822-1.848,2.686,2.686,0,0,1,1.6.546q0.756,0.547,1.554,1.176a15.4,15.4,0,0,0,1.723,1.176,4.036,4.036,0,0,0,2.1.546,5.912,5.912,0,0,0,2.771-.756,20.68,20.68,0,0,0,2.814-1.806q1.386-1.05,2.646-2.184t2.185-1.89V31.4q0-.923-0.672-0.924l-0.84.42a3.775,3.775,0,0,1-1.6.252,4.132,4.132,0,0,1-2.436-.84,19.925,19.925,0,0,1-2.269-1.89q-1.093-1.049-2.058-1.89a3,3,0,0,0-1.974-.84q-2.689,0-5.712,3.066a63.221,63.221,0,0,0-6.8,8.61q0-1.26.042-2.352t0.042-2.1a22.823,22.823,0,0,0-.168-2.73A12.037,12.037,0,0,0,482.2,27.7a4.436,4.436,0,0,0-1.134-1.806,2.6,2.6,0,0,0-1.848-.714,8.23,8.23,0,0,0-2.856.84q-1.934.841-3.99,1.89T468.379,30.1q-1.934,1.134-2.856,1.722a0.807,0.807,0,0,0-.5.756,0.445,0.445,0,0,0,.5.5A2.789,2.789,0,0,1,466.195,33h0.756a5.14,5.14,0,0,1,5.376,3.78,20.717,20.717,0,0,1,1.05,5.292c0.189,2.107.286,4.669,0.292,7.662l8.067,0.4C481.81,49.249,481.9,48.355,482.029,47.443Z" transform="translate(0 0)"/>
  <path class="cls-2" d="M487.615,62.059a9.136,9.136,0,0,1-2.352.336,4.012,4.012,0,0,1-1.723-.336,2.4,2.4,0,0,1-1.134-1.3,9.8,9.8,0,0,1-.63-2.6,34.5,34.5,0,0,1-.21-4.242c0-1.228.061-2.491,0.169-3.779l-8.067-.4c0,0.109,0,.208,0,0.318q0,2.1-.127,4.242t-0.336,4.158q-0.209,2.016-.42,3.738t-0.378,2.982a3.985,3.985,0,0,1-.378,1.26,1.392,1.392,0,0,0-.21.756,1.224,1.224,0,0,0,.882.84,5.18,5.18,0,0,0,2.227.42,8.588,8.588,0,0,0,2.813-.588q1.639-.588,2.814-1.092,1.26-.587,3.191-1.47t3.78-1.638a0.8,0.8,0,0,0,.336-0.21,0.555,0.555,0,0,0,.252-0.378,2.486,2.486,0,0,0-.126-0.672Q487.867,61.976,487.615,62.059Z" transform="translate(0 0)"/>
  <path class="cls-1" d="M510.545,17.791q1.009,1.008,1.975,1.806a3.374,3.374,0,0,0,1.218.8,4.421,4.421,0,0,0,1.722-.672q1.217-.672,2.521-1.554t2.31-1.722a2.335,2.335,0,0,0,1.008-1.26,3.316,3.316,0,0,0-.756-1.344,27.069,27.069,0,0,0-1.764-2.1A25.8,25.8,0,0,0,516.8,9.811a4.026,4.026,0,0,0-1.387-.924,13.461,13.461,0,0,0-1.47.8,28.244,28.244,0,0,0-2.52,1.68q-1.3.967-2.395,1.848a2.5,2.5,0,0,0-1.092,1.3,3.026,3.026,0,0,0,.8,1.3Q509.537,16.784,510.545,17.791Z" transform="translate(0 0)"/>
  <path class="cls-2" d="M530.958,59.455a3.8,3.8,0,0,1-.966.5q-0.8.337-1.848,0.672a17.14,17.14,0,0,1-2.227.546,12.075,12.075,0,0,1-2.1.21,4.893,4.893,0,0,1-2.856-.714,4.373,4.373,0,0,1-1.512-1.89,8.173,8.173,0,0,1-.588-2.814q-0.085-1.638-.084-3.4V51.988l-8.552-.428c-0.049.7-.09,1.405-0.142,2.1q-0.209,2.772-.42,5t-0.294,3.066q-0.085.673-.126,1.092T509.2,63.823a4.152,4.152,0,0,0,1.092,2.94,3.923,3.923,0,0,0,3.024,1.176,14.89,14.89,0,0,0,4.242-.8,50.683,50.683,0,0,0,5.25-1.974q2.855-1.176,4.956-2.268t2.939-1.512a1.236,1.236,0,0,0,.42-0.546,2.556,2.556,0,0,0,.21-0.756,1.49,1.49,0,0,0-.042-0.63Q531.21,59.2,530.958,59.455Z" transform="translate(0 0)"/>
  <path class="cls-1" d="M518.778,48.535q0-4.115.252-7.644t0.546-6.216q0.293-2.688.546-4.536a22.4,22.4,0,0,0,.252-2.688V27.115a2.285,2.285,0,0,0-.336-1.218,1.362,1.362,0,0,0-1.26-.546,9.886,9.886,0,0,0-3.108.882q-2.184.883-4.535,2.058L507.1,30.307a21.985,21.985,0,0,0-2.437,1.344q-0.42.253-.042,0.756a1.11,1.11,0,0,0,.546.5,2.222,2.222,0,0,0,.757-0.21,2.617,2.617,0,0,1,1.008-.21,2.973,2.973,0,0,1,1.554.378,3.481,3.481,0,0,1,1.05.966,6.783,6.783,0,0,1,.84,2.6,26.328,26.328,0,0,1,.252,3.864v2.94q0,2.016-.168,4.83c-0.07,1.171-.155,2.327-0.236,3.486l8.552,0.428V48.535Z" transform="translate(0 0)"/>
  <path class="cls-2" d="M532.133,53.281q-0.337,4.242-.672,7.77a16.681,16.681,0,0,1-.672,3.612,5.947,5.947,0,0,0-.42,1.6q0,1.931,2.52,1.932a6.784,6.784,0,0,0,1.555-.336q1.134-.336,2.729-0.756,1.512-.5,3.234-1.05t3.149-1.092a19.687,19.687,0,0,0,2.353-1.05,1.646,1.646,0,0,0,.924-0.756,1.118,1.118,0,0,0-.126-0.5,0.4,0.4,0,0,0-.378-0.252c-0.336.113-.617,0.2-0.84,0.252q-0.422.085-.756,0.126a4.681,4.681,0,0,1-.589.042,3.155,3.155,0,0,1-2.939-2.562,30.457,30.457,0,0,1-.5-6.342c0-.285,0-0.551,0-0.825l-8.528-.427C532.162,52.866,532.15,53.074,532.133,53.281Z" transform="translate(0 0)"/>
  <path class="cls-1" d="M572.412,51.013a30.993,30.993,0,0,0,2.226-11.886,13.416,13.416,0,0,0-4.368-10.164,13.876,13.876,0,0,0-4.661-2.814,16.433,16.433,0,0,0-5.671-.966,15.414,15.414,0,0,0-5.124.882,26.177,26.177,0,0,0-4.829,2.268,43.61,43.61,0,0,0-4.41,3.024q-2.1,1.638-3.78,3.15l-0.084-.084q0.082-4.956.294-9.828t0.5-8.862q0.293-3.988.63-6.594a10.279,10.279,0,0,1,.672-3.108,1.059,1.059,0,0,1,.631-0.378c0.307-.084.63-0.181,0.966-0.294a4.639,4.639,0,0,0,.924-0.42,0.826,0.826,0,0,0,.42-0.756,8.858,8.858,0,0,0-.042-1.05c-0.029-.2-0.267-0.265-0.714-0.21q-0.5.169-2.059,0.5a28.222,28.222,0,0,1-3.4.5q-2.186.169-4.788,0.252t-5.04.084a2.724,2.724,0,0,0-2.016.756,2.615,2.615,0,0,0-.757,1.932q0,0.169.378,0.126a3.677,3.677,0,0,1,.925.042,4.44,4.44,0,0,1,1.176.378,2.381,2.381,0,0,1,1.05,1.05,8.02,8.02,0,0,1,.588,1.3,16.191,16.191,0,0,1,.5,2.9q0.167,1.764.378,5.964t0.21,10.248q0,3.276-.126,7.392t-0.336,8.4q-0.2,3.971-.5,7.9l8.528,0.427c0.01-1.774.049-3.342,0.122-4.677q0.126-2.309.378-4.746,0.082-1.427.21-2.268t0.252-1.386a5.274,5.274,0,0,1,.252-0.84q0.126-.293.294-0.63a9.3,9.3,0,0,1,2.1-2.772,18.134,18.134,0,0,1,2.94-2.268,12.794,12.794,0,0,1,3.108-1.3,12.075,12.075,0,0,1,3.191-.462,9.2,9.2,0,0,1,4.242,1.008,10.481,10.481,0,0,1,3.486,2.94,14.774,14.774,0,0,1,2.394,4.788,22.225,22.225,0,0,1,.882,6.552,31.037,31.037,0,0,1-.825,7.216l7.032,0.352C571.34,53.446,571.9,52.267,572.412,51.013Z" transform="translate(0 0)"/>
  <path class="cls-2" d="M563.732,54.239c-0.087.367-.165,0.74-0.267,1.1a44.625,44.625,0,0,1-2.52,6.888,34.263,34.263,0,0,1-2.814,5,12.608,12.608,0,0,1-2.058,2.478,0.611,0.611,0,0,0,0,.924,0.636,0.636,0,0,0,.84.168,31.134,31.134,0,0,0,4.368-3.528A45.76,45.76,0,0,0,567.2,60.5a41.742,41.742,0,0,0,3.56-5.913Z" transform="translate(0 0)"/>
  <path class="cls-1" d="M588.245,55a4.687,4.687,0,0,1,1.009-3.024,12.425,12.425,0,0,1,2.939-2.52q1.008-.671,2.521-1.47t3.191-1.6q1.68-.8,3.36-1.47t3.023-1.176q0.083,0.337.294,1.428t0.463,2.6q0.252,1.512.5,3.192t0.5,3.108a1.725,1.725,0,0,1-.294,1.3c-0.209.255-.5,0.57-0.845,0.921L616.753,56.9a20.841,20.841,0,0,1-.955-2.774,44.467,44.467,0,0,1-1.261-7.056q-0.42-3.989-.672-8.274-0.168-2.854-.378-5.334a11.873,11.873,0,0,0-1.134-4.326,6.459,6.459,0,0,0-2.814-2.856,11.736,11.736,0,0,0-5.418-1.008,22.7,22.7,0,0,0-5.292.714,55.132,55.132,0,0,0-5.922,1.806q-2.982,1.093-5.754,2.352t-4.7,2.352a2.337,2.337,0,0,0-.168,1.008,2.541,2.541,0,0,0,1.008,2.016,3.343,3.343,0,0,0,2.185.84,0.685,0.685,0,0,0,.756-0.672,4.109,4.109,0,0,1,.714-1.428,8.991,8.991,0,0,1,1.764-1.848,11.4,11.4,0,0,1,2.688-1.6,8.49,8.49,0,0,1,3.4-.672,7.855,7.855,0,0,1,3.527.714,6.706,6.706,0,0,1,2.437,2.1,12.376,12.376,0,0,1,1.68,3.444,39.167,39.167,0,0,1,1.176,4.662q-1.176.756-3.737,2.058t-5.544,2.73q-2.984,1.429-5.839,2.814t-4.451,2.226a20.443,20.443,0,0,0-5.082,3.57,5.792,5.792,0,0,0-.408.525l9.725,0.487C588.271,55.313,588.245,55.163,588.245,55Z" transform="translate(0 0)"/>
  <path class="cls-2" d="M628.145,58.279q-0.252.169-1.05,0.63c-0.533.309-1.134,0.617-1.807,0.924a16.9,16.9,0,0,1-2.1.8,6.893,6.893,0,0,1-2.016.336,3.832,3.832,0,0,1-3.234-1.89,12.743,12.743,0,0,1-1.186-2.182L604.914,56.3c-0.071.073-.129,0.136-0.206,0.213a11.98,11.98,0,0,1-1.512,1.176,23.086,23.086,0,0,1-2.562,1.512,23.717,23.717,0,0,1-3.192,1.344,10.243,10.243,0,0,1-3.318.588,5.269,5.269,0,0,1-4.451-1.848,6.732,6.732,0,0,1-1.393-3.818l-9.725-.487a6.253,6.253,0,0,0-1.23,3.885,9.674,9.674,0,0,0,.546,3.234,7.434,7.434,0,0,0,1.681,2.73,8.386,8.386,0,0,0,2.813,1.89,10.059,10.059,0,0,0,3.948.714,16.35,16.35,0,0,0,5.586-1.05,40.977,40.977,0,0,0,5.67-2.562,45.77,45.77,0,0,0,5.124-3.234q2.351-1.72,3.864-2.982,0.334,2.1.756,4.032a21.3,21.3,0,0,0,1.008,3.4,7.771,7.771,0,0,0,1.386,2.352,2.47,2.47,0,0,0,1.891.882,7.871,7.871,0,0,0,2.52-.588,37.658,37.658,0,0,0,3.486-1.512q1.89-.924,3.822-1.974t3.527-1.974q1.6-.924,2.688-1.6a10.838,10.838,0,0,0,1.26-.84,1.67,1.67,0,0,0,.168-0.756A0.864,0.864,0,0,0,628.145,58.279Z" transform="translate(0 0)"/>
  <path class="cls-2" d="M644.02,62.059a9.136,9.136,0,0,1-2.352.336,4.012,4.012,0,0,1-1.723-.336,2.4,2.4,0,0,1-1.134-1.3,9.8,9.8,0,0,1-.63-2.6c-0.007-.058-0.012-0.126-0.019-0.186l-8.466-.424c-0.028.3-.053,0.607-0.083,0.9q-0.209,2.016-.42,3.738t-0.378,2.982a3.985,3.985,0,0,1-.378,1.26,1.392,1.392,0,0,0-.21.756,1.224,1.224,0,0,0,.882.84,5.18,5.18,0,0,0,2.227.42,8.588,8.588,0,0,0,2.813-.588q1.639-.588,2.814-1.092,1.26-.587,3.191-1.47t3.78-1.638a0.8,0.8,0,0,0,.336-0.21,0.555,0.555,0,0,0,.252-0.378A2.486,2.486,0,0,0,644.4,62.4Q644.272,61.976,644.02,62.059Z" transform="translate(0 0)"/>
  <path class="cls-1" d="M637.972,53.911a47.429,47.429,0,0,1,.462-6.468,33.67,33.67,0,0,1,1.428-6.216,14.387,14.387,0,0,1,2.521-4.7,4.81,4.81,0,0,1,3.822-1.848,2.686,2.686,0,0,1,1.6.546q0.756,0.547,1.554,1.176a15.4,15.4,0,0,0,1.723,1.176,4.036,4.036,0,0,0,2.1.546,5.912,5.912,0,0,0,2.771-.756,20.68,20.68,0,0,0,2.814-1.806q1.386-1.05,2.646-2.184t2.185-1.89V31.4q0-.923-0.672-0.924l-0.84.42a3.775,3.775,0,0,1-1.6.252,4.132,4.132,0,0,1-2.436-.84,19.925,19.925,0,0,1-2.269-1.89q-1.093-1.049-2.058-1.89a3,3,0,0,0-1.974-.84q-2.689,0-5.712,3.066a63.221,63.221,0,0,0-6.8,8.61q0-1.26.042-2.352t0.042-2.1a22.823,22.823,0,0,0-.168-2.73A12.037,12.037,0,0,0,638.6,27.7a4.436,4.436,0,0,0-1.134-1.806,2.6,2.6,0,0,0-1.848-.714,8.23,8.23,0,0,0-2.856.84q-1.934.841-3.99,1.89T624.785,30.1q-1.934,1.134-2.856,1.722a0.807,0.807,0,0,0-.5.756,0.445,0.445,0,0,0,.5.5A2.789,2.789,0,0,1,622.6,33h0.756a5.14,5.14,0,0,1,5.376,3.78,20.717,20.717,0,0,1,1.05,5.292q0.294,3.276.295,7.98,0,2.1-.127,4.242c-0.065,1.113-.153,2.193-0.253,3.254l8.466,0.424A35.54,35.54,0,0,1,637.972,53.911Z" transform="translate(0 0)"/>
</svg>
