<svg id="Layer_1" data-name="Layer 1" xmlns="http://www.w3.org/2000/svg" viewBox="0 0 313.469 161.25">
  <defs>
    <style>
      .cls-1 {
        fill: #313133;
      }

      .cls-2 {
        fill: #2eac85;
      }
    </style>
  </defs>
  <title>01f32021-48e4-4c30-ad4b-6051497314c0</title>
  <path class="cls-1" d="M13.167,22.243a22.878,22.878,0,0,1,3-7.048,14.98,14.98,0,0,1,4.822-4.674,12.413,12.413,0,0,1,6.492-1.707,17.516,17.516,0,0,1,5.9.891,12.538,12.538,0,0,1,4.154,2.374,11.118,11.118,0,0,1,2.6,3.338,12.842,12.842,0,0,1,1.224,3.71,1.831,1.831,0,0,0,1.038.445,0.906,0.906,0,0,0,.594-0.26,0.809,0.809,0,0,0,.3-0.631q0-.668.074-1.632t0.223-2q0.147-1.038.334-2.115t0.334-1.892a23.131,23.131,0,0,1,.853-3.376,16.449,16.449,0,0,1,1.3-2.968A9.257,9.257,0,0,1,48,2.582a2.534,2.534,0,0,1,1.744-.816,0.747,0.747,0,0,0,.482-0.148A3.294,3.294,0,0,0,50.783.8,0.758,0.758,0,0,0,50.041.059a2.411,2.411,0,0,0-1.336.074,7.747,7.747,0,0,0-3.264,3.042,28.363,28.363,0,0,0-2.152,4.6,9.005,9.005,0,0,0-2.04-.482q-1.6-.259-3.636-0.483t-4.08-.371q-2.042-.147-3.228-0.148A31.623,31.623,0,0,0,19.845,8.072a29.123,29.123,0,0,0-9.2,5.193,25.629,25.629,0,0,0-6.566,8.458q-0.323.656-.6,1.338l9.409,0.471C12.976,23.1,13.06,22.665,13.167,22.243Z"/>
  <path class="cls-2" d="M45.775,47.394a1.1,1.1,0,0,0-.779.445,15.238,15.238,0,0,1-2.485,3.932,19.066,19.066,0,0,1-3.636,3.264,17.865,17.865,0,0,1-4.452,2.226,15.279,15.279,0,0,1-4.934.816,13.838,13.838,0,0,1-6.974-1.817,16.2,16.2,0,0,1-5.49-5.305,28.141,28.141,0,0,1-3.6-8.495A45.817,45.817,0,0,1,12.129,31a36.126,36.126,0,0,1,.756-7.464l-9.409-.471A26.6,26.6,0,0,0,1.593,33.3,29.852,29.852,0,0,0,3.856,45.5a23.675,23.675,0,0,0,5.935,8.31,23.433,23.433,0,0,0,8.421,4.748,31.693,31.693,0,0,0,9.719,1.521q1.261,0,2.782-.074t2.968-.111q1.446-.038,2.708-0.111t2-.074a2.26,2.26,0,0,1,0,1.669q-0.3,1.3-.594,2.782a20.11,20.11,0,0,0-.371,2.634q-0.074,1.15.742,1.15a1.87,1.87,0,0,0,1.261-.3,2.357,2.357,0,0,0,.3-1.484,11.891,11.891,0,0,1,.223-2.263q0.223-1.151.483-2.226a14.772,14.772,0,0,1,.593-1.929q0.334-.852.556-1.372,0.3-.446,1.113-1.818t1.632-3.042q0.816-1.669,1.447-3.338a8.047,8.047,0,0,0,.631-2.634C46.405,47.345,46.194,47.3,45.775,47.394Z"/>
  <path class="cls-1" d="M61.652,21.723q0.184-4.3.445-7.828t0.557-5.824a9.022,9.022,0,0,1,.593-2.745A0.93,0.93,0,0,1,63.8,4.993c0.271-.074.556-0.16,0.853-0.26a4.079,4.079,0,0,0,.816-0.371,0.73,0.73,0,0,0,.371-0.668,7.823,7.823,0,0,0-.037-0.927c-0.025-.173-0.235-0.234-0.631-0.185q-0.446.149-1.818,0.445a24.947,24.947,0,0,1-3,.445q-1.93.149-4.229,0.223t-4.452.074a2.406,2.406,0,0,0-1.781.668,2.312,2.312,0,0,0-.668,1.707q0,0.149.334,0.111a3.241,3.241,0,0,1,.816.037,3.919,3.919,0,0,1,1.039.334,2.1,2.1,0,0,1,.927.928A7.121,7.121,0,0,1,52.86,8.7a14.3,14.3,0,0,1,.445,2.56q0.148,1.558.334,5.268t0.185,9.051v0L61.5,25.968Q61.561,23.837,61.652,21.723Z"/>
  <path class="cls-2" d="M88.157,27.3L66.815,26.234c-0.687.467-1.358,0.953-2.01,1.461q-1.855,1.447-3.338,2.783L61.392,30.4q0.037-2.228.1-4.436l-7.672-.384q0,2.893-.111,6.527t-0.3,7.419q-0.186,3.784-.483,7.531T52.34,53.923a14.733,14.733,0,0,1-.593,3.19,5.27,5.27,0,0,0-.371,1.41q0,1.706,2.226,1.706a5.988,5.988,0,0,0,1.372-.3q1-.3,2.411-0.668,1.336-.445,2.856-0.927t2.783-.965a17.442,17.442,0,0,0,2.077-.927,1.453,1.453,0,0,0,.816-0.668,0.988,0.988,0,0,0-.111-0.445,0.356,0.356,0,0,0-.334-0.223c-0.3.1-.545,0.174-0.742,0.223q-0.372.075-.668,0.111a4.122,4.122,0,0,1-.519.037,2.787,2.787,0,0,1-2.6-2.263,26.9,26.9,0,0,1-.445-5.6q0-2.819.111-4.86t0.334-4.192q0.073-1.261.185-2t0.223-1.224a4.659,4.659,0,0,1,.223-0.742c0.074-.173.16-0.358,0.26-0.556a8.211,8.211,0,0,1,1.855-2.448,16,16,0,0,1,2.6-2,11.311,11.311,0,0,1,2.745-1.15,10.67,10.67,0,0,1,2.819-.408,8.124,8.124,0,0,1,3.747.891,9.26,9.26,0,0,1,3.079,2.6,13.041,13.041,0,0,1,2.115,4.229,19.615,19.615,0,0,1,.779,5.787,26.929,26.929,0,0,1-.965,7.345,39.369,39.369,0,0,1-2.226,6.084A30.184,30.184,0,0,1,75.9,59.376a11.117,11.117,0,0,1-1.818,2.189,0.54,0.54,0,0,0,0,.816,0.563,0.563,0,0,0,.742.148,27.451,27.451,0,0,0,3.858-3.116,40.393,40.393,0,0,0,5.231-5.973,39.676,39.676,0,0,0,4.6-8.383,27.382,27.382,0,0,0,1.966-10.5,12.053,12.053,0,0,0-1.039-5.082A12.4,12.4,0,0,0,88.157,27.3Z"/>
  <path class="cls-1" d="M86.617,25.581A12.26,12.26,0,0,0,82.5,23.1a14.509,14.509,0,0,0-5.008-.853,13.612,13.612,0,0,0-4.526.779,23.128,23.128,0,0,0-4.266,2c-0.643.386-1.27,0.791-1.885,1.209L88.157,27.3A11.848,11.848,0,0,0,86.617,25.581Z"/>
  <path class="cls-1" d="M97.374,28.7a2.058,2.058,0,0,0-.148.89,2.245,2.245,0,0,0,.891,1.781,2.95,2.95,0,0,0,1.929.742,0.6,0.6,0,0,0,.668-0.593,3.637,3.637,0,0,1,.631-1.261,7.944,7.944,0,0,1,1.558-1.632,9.014,9.014,0,0,1,.781-0.542l-4.706-.236C98.4,28.138,97.86,28.423,97.374,28.7Z"/>
  <path class="cls-1" d="M123.787,25.73a5.706,5.706,0,0,0-2.485-2.523,10.368,10.368,0,0,0-4.785-.89,20.047,20.047,0,0,0-4.674.631,48.7,48.7,0,0,0-5.231,1.6q-2.634.965-5.082,2.077c-0.935.425-1.78,0.832-2.553,1.225l4.706,0.236a10.683,10.683,0,0,1,1.594-.867,7.5,7.5,0,0,1,3-.593,6.942,6.942,0,0,1,3.116.631,5.773,5.773,0,0,1,1.7,1.3l11.639,0.583A10.222,10.222,0,0,0,123.787,25.73Z"/>
  <path class="cls-2" d="M137.735,51.475q-0.223.149-.927,0.556t-1.6.816a14.955,14.955,0,0,1-1.855.705,6.089,6.089,0,0,1-1.781.3,3.385,3.385,0,0,1-2.856-1.669,14.413,14.413,0,0,1-1.892-4.377,39.183,39.183,0,0,1-1.113-6.232q-0.373-3.523-.594-7.308-0.149-2.521-.334-4.711c-0.012-.143-0.036-0.276-0.052-0.415L113.1,28.553a6.64,6.64,0,0,1,.45.553,10.908,10.908,0,0,1,1.484,3.042,34.59,34.59,0,0,1,1.039,4.118q-1.04.668-3.3,1.818t-4.9,2.411q-2.634,1.262-5.156,2.485t-3.932,1.966A18.064,18.064,0,0,0,94.3,48.1a5.424,5.424,0,0,0-1.446,3.9,8.523,8.523,0,0,0,.482,2.856,6.552,6.552,0,0,0,1.484,2.411A7.417,7.417,0,0,0,97.3,58.931a8.881,8.881,0,0,0,3.487.631,14.445,14.445,0,0,0,4.934-.927,36.169,36.169,0,0,0,5.008-2.263,40.387,40.387,0,0,0,4.526-2.857q2.077-1.52,3.413-2.634,0.3,1.855.668,3.561a18.906,18.906,0,0,0,.89,3,6.847,6.847,0,0,0,1.224,2.077,2.18,2.18,0,0,0,1.669.779,6.954,6.954,0,0,0,2.226-.519,33.358,33.358,0,0,0,3.079-1.335q1.669-.816,3.376-1.744t3.116-1.744q1.408-.816,2.374-1.409a9.573,9.573,0,0,0,1.113-.742,1.47,1.47,0,0,0,.148-0.668A0.763,0.763,0,0,0,137.735,51.475Zm-19.772-2.56q-0.334.408-.927,1a10.627,10.627,0,0,1-1.336,1.038,20.28,20.28,0,0,1-2.263,1.336,20.941,20.941,0,0,1-2.819,1.187,9.047,9.047,0,0,1-2.93.52,4.655,4.655,0,0,1-3.932-1.632,6.008,6.008,0,0,1-1.261-3.784,4.144,4.144,0,0,1,.89-2.671,10.986,10.986,0,0,1,2.6-2.226q0.89-.593,2.226-1.3t2.819-1.41q1.483-.7,2.968-1.3t2.671-1.039q0.073,0.3.26,1.261t0.408,2.3q0.223,1.335.445,2.819t0.445,2.745A1.521,1.521,0,0,1,117.963,48.915Z"/>
  <path class="cls-2" d="M146.934,31.22c0-.171.02-0.5,0.057-0.97l-10.658-.534a4.524,4.524,0,0,1,1.216,1.244,8.143,8.143,0,0,1,1.039,2.448,16.639,16.639,0,0,1,.482,3.672q0.073,1.93.111,3.153t0.037,2.04q0,1.93-.111,3.969t-0.26,3.932q-0.149,1.892-.3,3.487t-0.3,2.634q-0.15.742-.223,1.3a3.942,3.942,0,0,1-.223.928,1.755,1.755,0,0,1-.223.371,0.75,0.75,0,0,0,.519,1.076,4.167,4.167,0,0,0,1.632.26,10.657,10.657,0,0,0,2.93-.519q1.743-.52,3.376-1.187a29.927,29.927,0,0,0,2.93-1.373,12.179,12.179,0,0,0,1.744-1.076,0.576,0.576,0,0,0,.037-0.557,0.455,0.455,0,0,0-.26-0.408,4.577,4.577,0,0,1-1.113.148,2.412,2.412,0,0,1-1.372-.371,2.725,2.725,0,0,1-.928-1.373,11.6,11.6,0,0,1-.556-2.708,41.808,41.808,0,0,1-.185-4.377q0-1.631.037-2.634t0.074-1.669q0.037-.668.111-1.187t0.148-1.187a16.44,16.44,0,0,1,.965-4.192,12.093,12.093,0,0,1,2-3.487,9.315,9.315,0,0,1,1.727-1.6l-3.481-.174C147.593,30.606,147.253,30.916,146.934,31.22Z"/>
  <path class="cls-1" d="M147.008,30.033q0.073-.89.111-1.892t0.111-1.966q0.073-.963.074-1.336,0-2.449-2.151-2.448a7.084,7.084,0,0,0-2.337.593q-1.522.6-3.227,1.41t-3.338,1.781q-1.633.965-2.6,1.632a5.7,5.7,0,0,0-.705.483,0.356,0.356,0,0,0-.111.26q0,0.668.3,0.668a3.824,3.824,0,0,1,.742-0.074h0.742a3.061,3.061,0,0,1,1.521.445c0.066,0.038.129,0.086,0.193,0.129l10.658,0.534C147,30.178,147,30.112,147.008,30.033Z"/>
  <path class="cls-2" d="M182.138,52.624c-0.074-.123-0.137-0.16-0.185-0.111a3.744,3.744,0,0,1-.89.556q-0.668.334-1.521,0.668t-1.78.593a6.242,6.242,0,0,1-1.669.26q-3.859,0-3.858-5.936,0-1.631.185-3.709t0.408-4.229q0.223-2.151.408-4.155t0.185-3.487c0-.523-0.024-1.021-0.062-1.5L161.879,31a10.02,10.02,0,0,1,.969,1.151q2.41,3.377,2.411,9.9,0,3.339-.26,6.232t-0.556,5.045q-0.3,2-.482,2.894a7.487,7.487,0,0,0-.185,1.484,2.75,2.75,0,0,0,.631,1.707,2.806,2.806,0,0,0,2.337.816,11.982,11.982,0,0,0,3.784-.853q2.374-.852,4.786-1.929t4.377-2.115q1.965-1.038,2.56-1.409a0.585,0.585,0,0,0,.111-0.3,1.321,1.321,0,0,0-.037-0.52A1.822,1.822,0,0,0,182.138,52.624Z"/>
  <path class="cls-1" d="M170.564,24.951a10.536,10.536,0,0,0-7.308-2.56,14.112,14.112,0,0,0-4.748.816,22.4,22.4,0,0,0-4.377,2.115,29.928,29.928,0,0,0-3.858,2.857c-0.823.719-1.6,1.423-2.347,2.119l3.481,0.174a9.485,9.485,0,0,1,1.315-.809,9,9,0,0,1,4.081-.89A6.841,6.841,0,0,1,161.879,31l11.48,0.575Q173.013,27.155,170.564,24.951Z"/>
  <path class="cls-1" d="M192.155,28.7a7.579,7.579,0,0,1,3.079-2.152,10.69,10.69,0,0,1,3.784-.668,16.023,16.023,0,0,1,3.969.482,13,13,0,0,1,3.3,1.3,8.12,8.12,0,0,1,2.3,1.929,4.638,4.638,0,0,1,1.038,2.374c0.031,0.313.056,0.8,0.078,1.429l7.114,0.356c0.047-1.44.1-2.9,0.153-4.382q0.148-4.006.371-7.975t0.519-7.234q0.3-3.264.593-5.49a7.73,7.73,0,0,1,.668-2.745,2.045,2.045,0,0,1,.779-0.7,5.569,5.569,0,0,1,1.224-.334,0.523,0.523,0,0,0,.445-0.446,1.689,1.689,0,0,0-.037-0.779,1.478,1.478,0,0,0-.371-0.668,0.661,0.661,0,0,0-.631-0.185,8.384,8.384,0,0,1-1.261.408,13.414,13.414,0,0,1-1.966.3q-1.225.111-3.116,0.148t-4.711.037a9.924,9.924,0,0,0-2.226.185,4.633,4.633,0,0,0-1.335.556,1.118,1.118,0,0,0-.482,1.039q0.036,0.668.334,0.668,2.151,0,2.856,1.187a10.929,10.929,0,0,1,1,4.154q0,0.373.037,1.929t0.074,3.413q0.037,1.855.037,3.6v2.411q-0.817-.073-1.78-0.074h-2a34.938,34.938,0,0,0-10.647,1.484,22.625,22.625,0,0,0-7.864,4.229,17.729,17.729,0,0,0-3.225,3.642l5.9,0.3A10.507,10.507,0,0,1,192.155,28.7Z"/>
  <path class="cls-2" d="M228.249,51.771a7.493,7.493,0,0,1-1.15.7q-0.779.409-1.707,0.816a14.53,14.53,0,0,1-2,.705,7.444,7.444,0,0,1-1.966.3,3.851,3.851,0,0,1-3.635-2.56q-1.188-2.56-1.187-7.976,0-2.819.111-6.6c0.033-1.119.069-2.259,0.107-3.408l-7.114-.356c0.013,0.366.024,0.768,0.033,1.241q0.037,1.93.037,3.636v3.969q0,2.264-.148,3.821a16.558,16.558,0,0,1-.445,2.931,5.825,5.825,0,0,1-.89,1.892,4.1,4.1,0,0,1-.816.891,10.347,10.347,0,0,1-1.372,1,8.724,8.724,0,0,1-1.744.816,6.312,6.312,0,0,1-2.077.334,11.736,11.736,0,0,1-5.193-1.15,11.978,11.978,0,0,1-4.081-3.227,15.459,15.459,0,0,1-2.671-4.934,19.722,19.722,0,0,1-.964-6.344,19.206,19.206,0,0,1,.742-5.75c0.012-.037.027-0.069,0.039-0.106l-5.9-.3a18.119,18.119,0,0,0-1.671,3.036,22.188,22.188,0,0,0-1.669,8.754,17.84,17.84,0,0,0,1.187,6.677,16.191,16.191,0,0,0,3.153,5.082,13.8,13.8,0,0,0,4.414,3.228,11.747,11.747,0,0,0,4.9,1.113,14.819,14.819,0,0,0,4.711-.779,28.231,28.231,0,0,0,7.827-4.044,21.383,21.383,0,0,0,2.152-1.781v1.076c0,0.471-.013.964-0.037,1.484s-0.037,1.014-.037,1.484v1a1.832,1.832,0,0,0,.482,1.409,2.739,2.739,0,0,0,1.818.445,13.83,13.83,0,0,0,4.674-1.113q2.894-1.113,5.713-2.522,2.3-1.113,4.192-2.115t2.783-1.521q0.37-.223.074-0.89T228.249,51.771Z"/>
  <path class="cls-1" d="M256.219,34.262q-0.149-2.521-.334-4.711a10.47,10.47,0,0,0-1-3.821,5.706,5.706,0,0,0-2.485-2.523,10.368,10.368,0,0,0-4.785-.89,20.047,20.047,0,0,0-4.674.631,48.7,48.7,0,0,0-5.231,1.6q-2.634.965-5.082,2.077T228.471,28.7a2.058,2.058,0,0,0-.148.89,2.245,2.245,0,0,0,.891,1.781,2.95,2.95,0,0,0,1.929.742,0.6,0.6,0,0,0,.668-0.593,3.637,3.637,0,0,1,.631-1.261A7.944,7.944,0,0,1,234,28.623a10.053,10.053,0,0,1,2.374-1.41,7.5,7.5,0,0,1,3-.593,6.942,6.942,0,0,1,3.116.631,5.927,5.927,0,0,1,2.151,1.855,10.908,10.908,0,0,1,1.484,3.042q0.46,1.41.83,3.11l9.362,0.469C256.288,35.236,256.248,34.758,256.219,34.262Z"/>
  <path class="cls-2" d="M268.832,51.475q-0.223.149-.927,0.556t-1.6.816a14.955,14.955,0,0,1-1.855.705,6.089,6.089,0,0,1-1.781.3,3.385,3.385,0,0,1-2.856-1.669,14.413,14.413,0,0,1-1.892-4.377,39.183,39.183,0,0,1-1.113-6.232c-0.2-1.886-.357-3.845-0.492-5.843l-9.362-.469c0.072,0.329.142,0.663,0.209,1.008q-1.04.668-3.3,1.818t-4.9,2.411q-2.634,1.262-5.156,2.485t-3.932,1.966a18.064,18.064,0,0,0-4.489,3.153,5.424,5.424,0,0,0-1.446,3.9,8.523,8.523,0,0,0,.482,2.856,6.552,6.552,0,0,0,1.484,2.411,7.417,7.417,0,0,0,2.485,1.669,8.881,8.881,0,0,0,3.487.631,14.445,14.445,0,0,0,4.934-.927,36.169,36.169,0,0,0,5.008-2.263,40.387,40.387,0,0,0,4.526-2.857q2.077-1.52,3.413-2.634,0.3,1.855.668,3.561a18.906,18.906,0,0,0,.89,3,6.847,6.847,0,0,0,1.224,2.077,2.18,2.18,0,0,0,1.669.779,6.954,6.954,0,0,0,2.226-.519,33.358,33.358,0,0,0,3.079-1.335q1.669-.816,3.376-1.744t3.116-1.744q1.408-.816,2.374-1.409a9.573,9.573,0,0,0,1.113-.742,1.47,1.47,0,0,0,.148-0.668A0.763,0.763,0,0,0,268.832,51.475Zm-19.772-2.56q-0.334.408-.927,1a10.627,10.627,0,0,1-1.336,1.038,20.28,20.28,0,0,1-2.263,1.336,20.941,20.941,0,0,1-2.819,1.187,9.047,9.047,0,0,1-2.93.52,4.655,4.655,0,0,1-3.932-1.632,6.008,6.008,0,0,1-1.261-3.784,4.144,4.144,0,0,1,.89-2.671,10.986,10.986,0,0,1,2.6-2.226q0.89-.593,2.226-1.3t2.819-1.41q1.483-.7,2.968-1.3t2.671-1.039q0.073,0.3.26,1.261t0.408,2.3q0.223,1.335.445,2.819t0.445,2.745A1.521,1.521,0,0,1,249.059,48.915Z"/>
  <path class="cls-2" d="M270.166,37.081q0.073,1.93.111,3.153t0.037,2.04q0,1.93-.111,3.969t-0.26,3.932q-0.149,1.892-.3,3.487t-0.3,2.634q-0.15.742-.223,1.3a3.942,3.942,0,0,1-.223.928,1.755,1.755,0,0,1-.223.371,0.75,0.75,0,0,0,.519,1.076,4.167,4.167,0,0,0,1.632.26,10.657,10.657,0,0,0,2.93-.519q1.743-.52,3.376-1.187a29.927,29.927,0,0,0,2.93-1.373,12.179,12.179,0,0,0,1.744-1.076,0.576,0.576,0,0,0,.037-0.557,0.455,0.455,0,0,0-.26-0.408,4.577,4.577,0,0,1-1.113.148,2.412,2.412,0,0,1-1.372-.371,2.725,2.725,0,0,1-.928-1.373,11.6,11.6,0,0,1-.556-2.708,41.808,41.808,0,0,1-.185-4.377q0-1.631.037-2.634t0.074-1.669q0.037-.668.111-1.187t0.148-1.187a16.917,16.917,0,0,1,.554-2.922l-8.233-.412C270.142,36.636,270.158,36.851,270.166,37.081Z"/>
  <path class="cls-2" d="M313.234,52.624c-0.074-.123-0.137-0.16-0.185-0.111a3.744,3.744,0,0,1-.89.556q-0.668.334-1.521,0.668t-1.78.593a6.242,6.242,0,0,1-1.669.26q-3.859,0-3.858-5.936,0-1.631.185-3.709t0.408-4.229c0.092-.885.177-1.745,0.259-2.593l-8.15-.408a26.948,26.948,0,0,1,.324,4.337q0,3.339-.26,6.232t-0.556,5.045q-0.3,2-.482,2.894a7.487,7.487,0,0,0-.185,1.484,2.75,2.75,0,0,0,.631,1.707,2.806,2.806,0,0,0,2.337.816,11.982,11.982,0,0,0,3.784-.853q2.374-.852,4.786-1.929t4.377-2.115q1.965-1.038,2.56-1.409a0.585,0.585,0,0,0,.111-0.3,1.321,1.321,0,0,0-.037-0.52A1.822,1.822,0,0,0,313.234,52.624Z"/>
  <path class="cls-1" d="M304.331,36.562q0.184-2,.185-3.487,0-5.565-2.857-8.124a10.536,10.536,0,0,0-7.308-2.56,14.112,14.112,0,0,0-4.748.816,22.4,22.4,0,0,0-4.377,2.115,29.928,29.928,0,0,0-3.858,2.857q-1.781,1.558-3.339,3.042,0-.3.074-1.187t0.111-1.892q0.037-1,.111-1.966t0.074-1.336q0-2.449-2.151-2.448a7.084,7.084,0,0,0-2.337.593q-1.522.6-3.227,1.41t-3.338,1.781q-1.633.965-2.6,1.632a5.7,5.7,0,0,0-.705.483,0.356,0.356,0,0,0-.111.26q0,0.668.3,0.668a3.824,3.824,0,0,1,.742-0.074h0.742a3.061,3.061,0,0,1,1.521.445,4.36,4.36,0,0,1,1.409,1.373,8.143,8.143,0,0,1,1.039,2.448,15.569,15.569,0,0,1,.445,3.009l8.233,0.412c0.122-.431.254-0.856,0.41-1.27a12.093,12.093,0,0,1,2-3.487,9.331,9.331,0,0,1,3.042-2.411,9,9,0,0,1,4.081-.89,7.2,7.2,0,0,1,6.046,3.376,13.127,13.127,0,0,1,2.088,5.568l8.15,0.408C304.233,37.6,304.284,37.073,304.331,36.562Z"/>
  <path class="cls-1" d="M48.542,120.679a30.163,30.163,0,0,0,9.5-5.54,28.122,28.122,0,0,0,6.79-8.748A25.475,25.475,0,0,0,67.412,94.77,14.152,14.152,0,0,0,61.5,82.732q-5.916-4.374-16.329-4.373a25.332,25.332,0,0,0-5.29.541,40.019,40.019,0,0,0-4.5,1.208q-1.959.668-3.249,1.208a6.281,6.281,0,0,1-1.624.541c0.055,0.112-.264.167-0.958,0.167H26.84q-1.667,0-3.665-.042T19.3,81.857q-1.874-.082-3.291-0.083a12.254,12.254,0,0,0-1.833.083,0.9,0.9,0,0,0-.333.875V83.69c0,0.112.221,0.181,0.667,0.208s0.958,0.042,1.541.042,1.125-.013,1.625-0.042,0.833-.042,1-0.042q0.75,0,1.25,1.333a22.2,22.2,0,0,1,.833,4.957q0.332,3.624.5,10.039t0.167,16.578c0,0.933-.01,1.887-0.026,2.853l26.381,1.321C48.035,120.852,48.289,120.771,48.542,120.679ZM34.255,118.8q-2.5-1.041-2.916-2.208,0-1.831.042-4.79t0.083-6.29q0.041-3.331.167-6.79T31.88,92.4q0.125-2.874.25-4.874a13.4,13.4,0,0,1,.292-2.5,2.9,2.9,0,0,1,1.042-1.291A10.476,10.476,0,0,1,35.713,82.4,19.938,19.938,0,0,1,38.8,81.316a13.318,13.318,0,0,1,3.457-.458,14.127,14.127,0,0,1,5.915,1.249,14.522,14.522,0,0,1,4.79,3.5,16.338,16.338,0,0,1,3.208,5.457,20.738,20.738,0,0,1,1.166,7.123,32.843,32.843,0,0,1-1.208,9.372,19.754,19.754,0,0,1-3.416,6.789,14.162,14.162,0,0,1-5.248,4.124,16.1,16.1,0,0,1-6.706,1.375A17.08,17.08,0,0,1,34.255,118.8Z"/>
  <path class="cls-2" d="M39.087,144.006a15.353,15.353,0,0,0-1.791.125q-1.042.125-2.041,0.167a9.171,9.171,0,0,1-1.791-.083,1.24,1.24,0,0,1-1.042-.708,11.969,11.969,0,0,1-.666-3.541q-0.25-2.706-.333-6.04t-0.083-6.665v-5.415a9.264,9.264,0,0,0,2.874.584q1.956,0.168,3.624.167a31.064,31.064,0,0,0,9.943-1.658L21.4,119.616q-0.059,3.644-.266,7.6-0.293,5.542-.708,10.247t-0.875,8q-0.458,3.291-.875,3.708a25.608,25.608,0,0,1-2.624,2.041q-2.043,1.456-4.707,3.041t-5.5,2.916a19.018,19.018,0,0,1-4.915,1.666,1.025,1.025,0,0,0-.916.541,0.9,0.9,0,0,0,.292.791,4.164,4.164,0,0,0,.916.75,1.9,1.9,0,0,0,.958.333,9.345,9.345,0,0,0,3.5-1.333q2.5-1.334,5.5-3.124l6-3.583a40.8,40.8,0,0,1,5-2.624q2.082-.917,4.374-1.749t4.582-1.458q2.29-.625,4.332-1a20.315,20.315,0,0,1,3.624-.375,0.338,0.338,0,0,0,.333-0.292,2.709,2.709,0,0,0,0-1.333A0.508,0.508,0,0,0,39.087,144.006Z"/>
  <path class="cls-2" d="M115.9,132.926q-0.25.168-1.041,0.625c-0.529.306-1.124,0.612-1.792,0.916a16.756,16.756,0,0,1-2.082.792,6.836,6.836,0,0,1-2,.333,3.8,3.8,0,0,1-3.208-1.875,16.161,16.161,0,0,1-2.124-4.915,40.491,40.491,0,0,1-1.021-5.117l-9.53-.477c0.129,0.794.258,1.61,0.387,2.47q0.25,1.667.5,3.082a1.71,1.71,0,0,1-.292,1.292q-0.375.458-1.042,1.124a11.882,11.882,0,0,1-1.5,1.166,22.9,22.9,0,0,1-2.54,1.5,23.522,23.522,0,0,1-3.166,1.333,10.159,10.159,0,0,1-3.291.584,5.226,5.226,0,0,1-4.415-1.833,6.744,6.744,0,0,1-1.417-4.249,4.649,4.649,0,0,1,1-3,12.322,12.322,0,0,1,2.915-2.5q1-.665,2.5-1.458l0.056-.029-4.335-.217c-0.631.3-1.265,0.611-1.887,0.912q-2.833,1.374-4.415,2.208a20.288,20.288,0,0,0-5.041,3.54,6.091,6.091,0,0,0-1.624,4.374,9.57,9.57,0,0,0,.541,3.207,7.357,7.357,0,0,0,1.666,2.708,8.324,8.324,0,0,0,2.791,1.875,9.976,9.976,0,0,0,3.916.708,16.216,16.216,0,0,0,5.54-1.041,40.639,40.639,0,0,0,5.623-2.541,45.394,45.394,0,0,0,5.082-3.208q2.332-1.706,3.832-2.957,0.331,2.083.75,4a21.129,21.129,0,0,0,1,3.374,7.707,7.707,0,0,0,1.374,2.333,2.45,2.45,0,0,0,1.875.875,7.806,7.806,0,0,0,2.5-.583,37.349,37.349,0,0,0,3.458-1.5q1.874-.916,3.791-1.958t3.5-1.958q1.582-.916,2.666-1.583a10.749,10.749,0,0,0,1.249-.833,1.657,1.657,0,0,0,.167-0.75A0.857,0.857,0,0,0,115.9,132.926Z"/>
  <path class="cls-1" d="M85.906,121.137q1.666-.791,3.333-1.458t3-1.167q0.083,0.334.292,1.416t0.459,2.583c0.038,0.225.075,0.464,0.113,0.7l9.53,0.477q-0.127-.914-0.23-1.881-0.417-3.956-.666-8.206-0.167-2.831-.375-5.29a11.775,11.775,0,0,0-1.124-4.29,6.406,6.406,0,0,0-2.791-2.833,11.639,11.639,0,0,0-5.373-1,22.514,22.514,0,0,0-5.248.708,54.679,54.679,0,0,0-5.873,1.791q-2.958,1.084-5.707,2.333t-4.665,2.333a2.318,2.318,0,0,0-.167,1,2.521,2.521,0,0,0,1,2,3.315,3.315,0,0,0,2.167.833,0.679,0.679,0,0,0,.75-0.666,4.075,4.075,0,0,1,.708-1.416,8.917,8.917,0,0,1,1.749-1.832,11.311,11.311,0,0,1,2.666-1.583,8.42,8.42,0,0,1,3.374-.666,7.791,7.791,0,0,1,3.5.708,6.651,6.651,0,0,1,2.416,2.083,12.275,12.275,0,0,1,1.666,3.416,38.845,38.845,0,0,1,1.166,4.624q-1.167.75-3.707,2.041t-5.5,2.708c-1.323.634-2.62,1.258-3.9,1.878l4.335,0.217Q84.272,121.915,85.906,121.137Z"/>
  <path class="cls-1" d="M126.1,122.178a33.393,33.393,0,0,1,1.416-6.165,14.269,14.269,0,0,1,2.5-4.665,4.771,4.771,0,0,1,3.791-1.832,2.663,2.663,0,0,1,1.583.541q0.75,0.543,1.541,1.166a15.271,15.271,0,0,0,1.708,1.167,4,4,0,0,0,2.082.541,5.863,5.863,0,0,0,2.749-.75,20.51,20.51,0,0,0,2.791-1.791q1.374-1.041,2.624-2.166t2.167-1.875v-0.083q0-.915-0.666-0.916l-0.833.416a3.744,3.744,0,0,1-1.584.25,4.1,4.1,0,0,1-2.416-.833,19.761,19.761,0,0,1-2.25-1.875q-1.084-1.04-2.041-1.874a2.98,2.98,0,0,0-1.957-.833q-2.667,0-5.665,3.041a62.7,62.7,0,0,0-6.749,8.54q0-1.25.042-2.333t0.042-2.083a22.635,22.635,0,0,0-.167-2.708,11.938,11.938,0,0,0-.541-2.458,4.4,4.4,0,0,0-1.124-1.791,2.575,2.575,0,0,0-1.832-.708,8.163,8.163,0,0,0-2.833.833q-1.918.834-3.957,1.875t-3.956,2.166q-1.918,1.124-2.833,1.708a0.8,0.8,0,0,0-.5.75,0.442,0.442,0,0,0,.5.5,2.766,2.766,0,0,1,.666-0.083h0.75a5.1,5.1,0,0,1,5.332,3.749,20.546,20.546,0,0,1,1.041,5.248c0.188,2.09.283,4.63,0.29,7.6l8,0.4C125.885,123.969,125.977,123.083,126.1,122.178Z"/>
  <path class="cls-2" d="M131.642,136.674a9.061,9.061,0,0,1-2.332.333,3.979,3.979,0,0,1-1.708-.333,2.385,2.385,0,0,1-1.124-1.291,9.724,9.724,0,0,1-.625-2.583,34.212,34.212,0,0,1-.208-4.207c0-1.218.06-2.47,0.168-3.748l-8-.4c0,0.108,0,.206,0,0.316q0,2.084-.126,4.207t-0.333,4.124q-0.208,2-.416,3.707t-0.375,2.957a3.952,3.952,0,0,1-.375,1.25,1.38,1.38,0,0,0-.208.75,1.213,1.213,0,0,0,.875.833,5.137,5.137,0,0,0,2.208.416,8.518,8.518,0,0,0,2.79-.583q1.626-.583,2.791-1.083,1.249-.582,3.165-1.458t3.749-1.624a0.8,0.8,0,0,0,.333-0.208,0.55,0.55,0,0,0,.25-0.375,2.465,2.465,0,0,0-.125-0.666Q131.892,136.592,131.642,136.674Z"/>
  <path class="cls-1" d="M154.384,92.771q1,1,1.958,1.791a3.346,3.346,0,0,0,1.208.791,4.384,4.384,0,0,0,1.708-.666q1.207-.666,2.5-1.541t2.291-1.708a2.316,2.316,0,0,0,1-1.25,3.289,3.289,0,0,0-.75-1.333,26.847,26.847,0,0,0-1.749-2.083,25.589,25.589,0,0,0-1.957-1.916,3.993,3.993,0,0,0-1.375-.916,13.35,13.35,0,0,0-1.458.791,28.012,28.012,0,0,0-2.5,1.666q-1.293.959-2.375,1.832a2.476,2.476,0,0,0-1.083,1.292,3,3,0,0,0,.791,1.291Q153.383,91.771,154.384,92.771Z"/>
  <path class="cls-2" d="M174.628,134.092a3.764,3.764,0,0,1-.958.5q-0.793.334-1.832,0.667a17,17,0,0,1-2.208.541,11.976,11.976,0,0,1-2.082.208,4.853,4.853,0,0,1-2.833-.708,4.337,4.337,0,0,1-1.5-1.875,8.106,8.106,0,0,1-.583-2.791q-0.084-1.625-.083-3.374v-0.574l-8.482-.425c-0.048.693-.089,1.393-0.141,2.082q-0.208,2.749-.416,4.957t-0.292,3.041q-0.084.668-.125,1.083t-0.042,1a4.118,4.118,0,0,0,1.083,2.916,3.891,3.891,0,0,0,3,1.166,14.767,14.767,0,0,0,4.207-.791,50.266,50.266,0,0,0,5.207-1.958q2.831-1.166,4.915-2.249t2.915-1.5a1.226,1.226,0,0,0,.416-0.541,2.535,2.535,0,0,0,.208-0.75,1.478,1.478,0,0,0-.042-0.625Q174.878,133.842,174.628,134.092Z"/>
  <path class="cls-1" d="M162.548,123.262q0-4.081.25-7.581t0.541-6.165q0.291-2.666.541-4.5a22.213,22.213,0,0,0,.25-2.666v-0.333a2.267,2.267,0,0,0-.333-1.208,1.351,1.351,0,0,0-1.249-.541,9.8,9.8,0,0,0-3.083.875q-2.166.875-4.5,2.041l-4,2a21.8,21.8,0,0,0-2.416,1.333q-0.417.251-.042,0.75a1.1,1.1,0,0,0,.541.5,2.2,2.2,0,0,0,.751-0.208,2.6,2.6,0,0,1,1-.208,2.949,2.949,0,0,1,1.541.375,3.452,3.452,0,0,1,1.041.958,6.727,6.727,0,0,1,.833,2.583,26.112,26.112,0,0,1,.25,3.832v2.916q0,2-.167,4.79c-0.069,1.162-.154,2.307-0.234,3.458l8.482,0.425v-3.424Z"/>
  <path class="cls-2" d="M175.794,127.969q-0.334,4.207-.666,7.706a16.543,16.543,0,0,1-.666,3.582,5.9,5.9,0,0,0-.416,1.583q0,1.916,2.5,1.916a6.729,6.729,0,0,0,1.542-.333q1.124-.333,2.707-0.75,1.5-.5,3.208-1.041t3.124-1.083a19.525,19.525,0,0,0,2.333-1.041,1.632,1.632,0,0,0,.916-0.75,1.109,1.109,0,0,0-.125-0.5,0.4,0.4,0,0,0-.375-0.25c-0.333.112-.612,0.2-0.833,0.25q-0.418.084-.75,0.125a4.642,4.642,0,0,1-.584.042,3.129,3.129,0,0,1-2.915-2.541,30.207,30.207,0,0,1-.5-6.29c0-.283,0-0.546,0-0.818l-8.458-.424C175.822,127.557,175.81,127.764,175.794,127.969Z"/>
  <path class="cls-1" d="M215.741,125.719a30.738,30.738,0,0,0,2.207-11.788,13.305,13.305,0,0,0-4.332-10.08,13.762,13.762,0,0,0-4.623-2.791,16.3,16.3,0,0,0-5.624-.958,15.287,15.287,0,0,0-5.082.875,25.961,25.961,0,0,0-4.789,2.249,43.252,43.252,0,0,0-4.374,3q-2.083,1.625-3.749,3.124l-0.083-.083q0.081-4.915.292-9.747t0.5-8.789q0.291-3.955.625-6.539a10.2,10.2,0,0,1,.666-3.082A1.05,1.05,0,0,1,188,80.733c0.3-.083.625-0.18,0.958-0.292a4.6,4.6,0,0,0,.916-0.416,0.819,0.819,0,0,0,.416-0.75,8.785,8.785,0,0,0-.042-1.041c-0.029-.194-0.264-0.263-0.708-0.208q-0.5.168-2.042,0.5a27.989,27.989,0,0,1-3.373.5q-2.168.168-4.749,0.25t-5,.083a2.7,2.7,0,0,0-2,.75,2.593,2.593,0,0,0-.751,1.916q0,0.168.375,0.125a3.647,3.647,0,0,1,.917.042,4.4,4.4,0,0,1,1.166.375,2.361,2.361,0,0,1,1.041,1.042,7.954,7.954,0,0,1,.583,1.291,16.058,16.058,0,0,1,.5,2.874q0.166,1.75.375,5.915t0.208,10.163q0,3.249-.125,7.331t-0.333,8.331q-0.194,3.939-.5,7.839l8.458,0.424c0.01-1.76.049-3.315,0.121-4.638q0.125-2.29.375-4.707,0.081-1.416.208-2.249t0.25-1.374a5.231,5.231,0,0,1,.25-0.833q0.125-.291.292-0.625a9.226,9.226,0,0,1,2.082-2.749,17.985,17.985,0,0,1,2.916-2.249,12.689,12.689,0,0,1,3.083-1.291,11.975,11.975,0,0,1,3.165-.459,9.121,9.121,0,0,1,4.207,1,10.4,10.4,0,0,1,3.458,2.916,14.652,14.652,0,0,1,2.374,4.749,22.042,22.042,0,0,1,.875,6.5,30.781,30.781,0,0,1-.818,7.157l6.974,0.349C214.678,128.132,215.23,126.962,215.741,125.719Z"/>
  <path class="cls-2" d="M207.133,128.919c-0.087.364-.164,0.734-0.265,1.09a44.257,44.257,0,0,1-2.5,6.832,33.981,33.981,0,0,1-2.791,4.957,12.5,12.5,0,0,1-2.041,2.458,0.606,0.606,0,0,0,0,.916,0.631,0.631,0,0,0,.833.167,30.877,30.877,0,0,0,4.332-3.5,45.383,45.383,0,0,0,5.873-6.707,41.4,41.4,0,0,0,3.531-5.865Z"/>
  <path class="cls-1" d="M231.444,129.676a4.649,4.649,0,0,1,1-3,12.322,12.322,0,0,1,2.915-2.5q1-.665,2.5-1.458t3.165-1.583q1.666-.791,3.333-1.458t3-1.167q0.083,0.334.292,1.416t0.459,2.583q0.25,1.5.5,3.166t0.5,3.082a1.71,1.71,0,0,1-.292,1.292c-0.207.253-.5,0.565-0.838,0.913l11.741,0.588a20.669,20.669,0,0,1-.947-2.751,44.1,44.1,0,0,1-1.25-7q-0.417-3.956-.666-8.206-0.167-2.831-.375-5.29a11.775,11.775,0,0,0-1.124-4.29,6.406,6.406,0,0,0-2.791-2.833,11.639,11.639,0,0,0-5.373-1,22.514,22.514,0,0,0-5.248.708,54.679,54.679,0,0,0-5.873,1.791q-2.958,1.084-5.707,2.333T225.7,107.35a2.318,2.318,0,0,0-.167,1,2.521,2.521,0,0,0,1,2,3.315,3.315,0,0,0,2.167.833,0.679,0.679,0,0,0,.75-0.666,4.075,4.075,0,0,1,.708-1.416,8.917,8.917,0,0,1,1.749-1.832,11.311,11.311,0,0,1,2.666-1.583,8.42,8.42,0,0,1,3.374-.666,7.791,7.791,0,0,1,3.5.708,6.651,6.651,0,0,1,2.416,2.083,12.275,12.275,0,0,1,1.666,3.416,38.845,38.845,0,0,1,1.166,4.624q-1.167.75-3.707,2.041t-5.5,2.708q-2.959,1.417-5.791,2.791t-4.415,2.208a20.275,20.275,0,0,0-5.04,3.54,5.744,5.744,0,0,0-.4.521l9.645,0.483C231.469,129.983,231.444,129.835,231.444,129.676Z"/>
  <path class="cls-2" d="M271.016,132.926q-0.25.168-1.041,0.625c-0.529.306-1.124,0.612-1.792,0.916a16.756,16.756,0,0,1-2.082.792,6.836,6.836,0,0,1-2,.333,3.8,3.8,0,0,1-3.208-1.875,12.639,12.639,0,0,1-1.177-2.164l-11.741-.588c-0.071.072-.128,0.135-0.2,0.211a11.882,11.882,0,0,1-1.5,1.166,22.9,22.9,0,0,1-2.54,1.5,23.522,23.522,0,0,1-3.166,1.333,10.159,10.159,0,0,1-3.291.584,5.226,5.226,0,0,1-4.415-1.833,6.677,6.677,0,0,1-1.382-3.787l-9.645-.483a6.2,6.2,0,0,0-1.22,3.853,9.594,9.594,0,0,0,.541,3.207,7.373,7.373,0,0,0,1.667,2.708,8.317,8.317,0,0,0,2.79,1.875,9.976,9.976,0,0,0,3.916.708,16.216,16.216,0,0,0,5.54-1.041,40.639,40.639,0,0,0,5.623-2.541,45.394,45.394,0,0,0,5.082-3.208q2.332-1.706,3.832-2.957,0.331,2.083.75,4a21.129,21.129,0,0,0,1,3.374,7.707,7.707,0,0,0,1.374,2.333,2.45,2.45,0,0,0,1.875.875,7.806,7.806,0,0,0,2.5-.583,37.349,37.349,0,0,0,3.458-1.5q1.874-.916,3.791-1.958t3.5-1.958q1.582-.916,2.666-1.583a10.749,10.749,0,0,0,1.249-.833,1.657,1.657,0,0,0,.167-0.75A0.857,0.857,0,0,0,271.016,132.926Z"/>
  <path class="cls-2" d="M286.76,136.674a9.061,9.061,0,0,1-2.332.333,3.979,3.979,0,0,1-1.708-.333,2.385,2.385,0,0,1-1.124-1.291,9.724,9.724,0,0,1-.625-2.583c-0.007-.057-0.012-0.125-0.019-0.184l-8.4-.421c-0.028.3-.052,0.6-0.083,0.9q-0.208,2-.416,3.707t-0.375,2.957a3.952,3.952,0,0,1-.375,1.25,1.38,1.38,0,0,0-.208.75,1.213,1.213,0,0,0,.875.833,5.137,5.137,0,0,0,2.208.416,8.518,8.518,0,0,0,2.79-.583q1.626-.583,2.791-1.083,1.249-.582,3.165-1.458t3.749-1.624a0.8,0.8,0,0,0,.333-0.208,0.55,0.55,0,0,0,.25-0.375,2.465,2.465,0,0,0-.125-0.666Q287.01,136.592,286.76,136.674Z"/>
  <path class="cls-1" d="M280.762,128.593a47.039,47.039,0,0,1,.458-6.415,33.393,33.393,0,0,1,1.416-6.165,14.269,14.269,0,0,1,2.5-4.665,4.771,4.771,0,0,1,3.791-1.832,2.663,2.663,0,0,1,1.583.541q0.75,0.543,1.541,1.166a15.271,15.271,0,0,0,1.708,1.167,4,4,0,0,0,2.082.541,5.863,5.863,0,0,0,2.749-.75,20.51,20.51,0,0,0,2.791-1.791q1.374-1.041,2.624-2.166t2.167-1.875v-0.083q0-.915-0.666-0.916l-0.833.416a3.744,3.744,0,0,1-1.584.25,4.1,4.1,0,0,1-2.416-.833,19.761,19.761,0,0,1-2.25-1.875q-1.084-1.04-2.041-1.874a2.98,2.98,0,0,0-1.957-.833q-2.667,0-5.665,3.041a62.7,62.7,0,0,0-6.749,8.54q0-1.25.042-2.333t0.042-2.083a22.635,22.635,0,0,0-.167-2.708,11.938,11.938,0,0,0-.541-2.458,4.4,4.4,0,0,0-1.124-1.791,2.575,2.575,0,0,0-1.832-.708,8.163,8.163,0,0,0-2.833.833q-1.918.834-3.957,1.875t-3.956,2.166q-1.918,1.124-2.833,1.708a0.8,0.8,0,0,0-.5.75,0.442,0.442,0,0,0,.5.5,2.766,2.766,0,0,1,.666-0.083h0.75A5.1,5.1,0,0,1,271.6,111.6a20.546,20.546,0,0,1,1.041,5.248q0.292,3.249.292,7.914,0,2.084-.126,4.207c-0.065,1.1-.152,2.174-0.25,3.228l8.4,0.421A35.247,35.247,0,0,1,280.762,128.593Z"/>
</svg>
