<?xml version="1.0" encoding="utf-8"?>
<!-- Generator: Adobe Illustrator 19.2.1, SVG Export Plug-In . SVG Version: 6.00 Build 0)  -->
<svg version="1.1" id="Layer_1" xmlns="http://www.w3.org/2000/svg" xmlns:xlink="http://www.w3.org/1999/xlink" x="0px" y="0px"
	 viewBox="0 0 1024 812" style="enable-background:new 0 0 1024 812;" xml:space="preserve">
<style type="text/css">
	.st0{clip-path:url(#SVGID_2_);}
	.st1{clip-path:url(#SVGID_4_);fill:#29B99A;}
	.st2{clip-path:url(#SVGID_6_);}
	.st3{fill:#FFFFFF;}
	.st4{clip-path:url(#SVGID_8_);}
	.st5{clip-path:url(#SVGID_10_);fill:#4B4B4B;}
	.st6{clip-path:url(#SVGID_12_);}
	.st7{clip-path:url(#SVGID_14_);fill:#4B4B4B;}
	.st8{clip-path:url(#SVGID_16_);}
	.st9{clip-path:url(#SVGID_18_);fill:#4B4B4B;}
	.st10{clip-path:url(#SVGID_20_);}
	.st11{clip-path:url(#SVGID_22_);fill:#4B4B4B;}
	.st12{clip-path:url(#SVGID_24_);}
	.st13{clip-path:url(#SVGID_26_);fill:#29B99A;}
	.st14{clip-path:url(#SVGID_28_);}
	.st15{clip-path:url(#SVGID_30_);}
	.st16{clip-path:url(#SVGID_32_);fill:#29B99A;}
	.st17{clip-path:url(#SVGID_34_);}
	.st18{clip-path:url(#SVGID_36_);}
	.st19{clip-path:url(#SVGID_38_);fill:#29B99A;}
	.st20{clip-path:url(#SVGID_40_);}
	.st21{clip-path:url(#SVGID_42_);}
	.st22{clip-path:url(#SVGID_44_);fill:#29B99A;}
	.st23{clip-path:url(#SVGID_46_);fill:none;stroke:#4B4B4B;stroke-miterlimit:10;}
	.st24{clip-path:url(#SVGID_48_);}
	.st25{clip-path:url(#SVGID_50_);fill:#29B99A;}
	.st26{clip-path:url(#SVGID_52_);fill:none;stroke:#4B4B4B;stroke-miterlimit:10;}
	.st27{clip-path:url(#SVGID_54_);}
	.st28{clip-path:url(#SVGID_56_);fill:#29B99A;}
	.st29{clip-path:url(#SVGID_58_);fill:none;stroke:#4B4B4B;stroke-miterlimit:10;}
</style>
<g>
	<defs>
		<path id="SVGID_1_" d="M307.8,16.7c0-6.7,5.4-12.1,12.1-12.1h386c6.7,0,12.1,5.4,12.1,12.1v39.8c0,6.7-5.4,12.1-12.1,12.1h-386
			c-6.7,0-12.1-5.4-12.1-12.1V16.7z"/>
	</defs>
	<clipPath id="SVGID_2_">
		<use xlink:href="#SVGID_1_"  style="overflow:visible;"/>
	</clipPath>
	<g class="st0">
		<defs>
			<rect id="SVGID_3_" x="-734.2" y="-1941.5" width="2492.5" height="3354.4"/>
		</defs>
		<clipPath id="SVGID_4_">
			<use xlink:href="#SVGID_3_"  style="overflow:visible;"/>
		</clipPath>
		<rect x="299.1" y="-4" class="st1" width="427.5" height="81.4"/>
	</g>
</g>
<g>
	<defs>
		<rect id="SVGID_5_" x="-734.2" y="-1941.5" width="2492.5" height="3354.4"/>
	</defs>
	<clipPath id="SVGID_6_">
		<use xlink:href="#SVGID_5_"  style="overflow:visible;"/>
	</clipPath>
	<g class="st2">
		<path class="st3" d="M428.7,46.6v4.8h-23.6V16.9h23.2v4.8h-17.7v9.8h15.4V36h-15.4v10.5H428.7z"/>
		<path class="st3" d="M444.3,51.8c-1.7,0-3.4-0.3-4.8-1s-2.7-1.6-3.8-2.8c-1.1-1.2-1.9-2.6-2.5-4.2c-0.6-1.6-0.9-3.3-0.9-5.1
			c0-1.8,0.3-3.5,0.8-5.1c0.6-1.6,1.3-3,2.4-4.2c1-1.2,2.2-2.1,3.6-2.8c1.4-0.7,2.9-1,4.6-1c2,0,3.7,0.5,5.3,1.5
			c1.6,1,2.8,2.2,3.6,3.8V16h5.3v29.1c0,1.1,0.5,1.7,1.6,1.7v4.6c-0.5,0.1-1,0.2-1.5,0.2c-0.4,0-0.8,0-1.2,0c-2-0.2-3.1-1.1-3.4-2.8
			l-0.1-2.1c-1,1.6-2.3,2.9-3.9,3.8C447.8,51.4,446.1,51.8,444.3,51.8z M445.6,47.3c0.7,0,1.4-0.1,2.1-0.4c0.7-0.3,1.4-0.6,2.1-1.1
			c0.6-0.5,1.2-1,1.7-1.6c0.5-0.6,0.8-1.3,1-2v-6.6c-0.3-0.8-0.7-1.5-1.2-2.2c-0.5-0.7-1.1-1.2-1.8-1.7c-0.7-0.5-1.4-0.9-2.1-1.2
			c-0.7-0.3-1.5-0.4-2.2-0.4c-1.1,0-2.2,0.2-3.1,0.7c-0.9,0.5-1.7,1.1-2.4,1.9c-0.7,0.8-1.2,1.7-1.5,2.8c-0.4,1.1-0.5,2.1-0.5,3.2
			c0,1.2,0.2,2.3,0.6,3.3c0.4,1,1,1.9,1.6,2.7c0.7,0.8,1.5,1.4,2.5,1.8C443.4,47.1,444.5,47.3,445.6,47.3z"/>
		<path class="st3" d="M472.6,51.8c-2.6,0-4.6-0.9-6-2.6c-1.4-1.7-2-4.3-2-7.7V26h5.3v14.4c0,4.6,1.6,6.8,4.8,6.8
			c1.6,0,3-0.5,4.4-1.4c1.4-0.9,2.4-2.3,3.2-4.1V26h5.3v19c0,0.6,0.1,1.1,0.3,1.3c0.2,0.3,0.6,0.4,1.2,0.4v4.6
			c-0.6,0.1-1.1,0.2-1.5,0.2c-0.4,0-0.8,0-1.1,0c-2-0.2-3.1-1.1-3.4-2.8l-0.1-2.6c-1.1,1.8-2.6,3.2-4.4,4.2
			C476.8,51.4,474.8,51.8,472.6,51.8z"/>
		<path class="st3" d="M492.9,38.7c0-1.8,0.3-3.5,0.9-5c0.6-1.6,1.5-3,2.6-4.2c1.1-1.2,2.5-2.1,4.1-2.8c1.6-0.7,3.4-1,5.4-1
			c2.6,0,4.9,0.6,6.8,1.7c1.9,1.1,3.3,2.7,4.2,4.6l-5.2,1.6c-0.6-1.1-1.4-1.9-2.5-2.5c-1-0.6-2.2-0.9-3.4-0.9c-1.1,0-2.1,0.2-3,0.6
			c-0.9,0.4-1.7,1-2.4,1.8s-1.2,1.7-1.6,2.7c-0.4,1-0.6,2.2-0.6,3.4c0,1.2,0.2,2.4,0.6,3.4c0.4,1.1,1,2,1.6,2.7
			c0.7,0.8,1.5,1.4,2.4,1.8c0.9,0.4,1.9,0.7,2.9,0.7c0.6,0,1.3-0.1,1.9-0.3c0.6-0.2,1.2-0.4,1.8-0.8c0.5-0.3,1-0.7,1.4-1.1
			s0.7-0.9,0.9-1.4l5.2,1.6c-0.8,1.9-2.2,3.5-4.2,4.7c-2,1.2-4.3,1.8-7,1.8c-2,0-3.8-0.4-5.4-1.1c-1.6-0.7-3-1.7-4.1-2.9
			c-1.1-1.2-2-2.6-2.7-4.2S492.9,40.4,492.9,38.7z"/>
		<path class="st3" d="M528.3,51.8c-1.2,0-2.4-0.2-3.4-0.6c-1.1-0.4-2-1-2.7-1.7c-0.8-0.7-1.4-1.6-1.8-2.5c-0.4-1-0.7-2-0.7-3.2
			c0-1.2,0.3-2.3,0.8-3.2c0.5-1,1.3-1.8,2.2-2.5c1-0.7,2.1-1.3,3.4-1.6s2.8-0.6,4.3-0.6c1.2,0,2.4,0.1,3.5,0.3
			c1.2,0.2,2.2,0.5,3.2,0.8v-1.7c0-1.9-0.5-3.3-1.6-4.4c-1.1-1-2.6-1.6-4.6-1.6c-1.4,0-2.7,0.3-4,0.8c-1.3,0.5-2.7,1.2-4,2.2
			l-1.6-3.4c3.3-2.2,6.7-3.3,10.2-3.3c3.5,0,6.2,0.9,8.1,2.7c1.9,1.8,2.9,4.3,2.9,7.7v9.2c0,0.6,0.1,1.1,0.3,1.3
			c0.2,0.3,0.6,0.4,1.2,0.4v4.6c-0.5,0.1-1,0.2-1.4,0.2c-0.4,0-0.8,0-1.2,0c-1-0.1-1.8-0.3-2.4-0.8c-0.5-0.5-0.9-1.1-1-1.9l-0.1-1.6
			c-1.1,1.5-2.5,2.6-4.2,3.4C532,51.4,530.3,51.8,528.3,51.8z M529.8,47.9c1.3,0,2.5-0.2,3.7-0.7c1.1-0.5,2-1.1,2.7-2
			c0.7-0.6,1-1.2,1-1.8v-3.3c-0.9-0.4-1.9-0.6-2.9-0.8c-1-0.2-2-0.3-3-0.3c-1.9,0-3.5,0.4-4.7,1.2s-1.8,1.9-1.8,3.3
			c0,1.3,0.5,2.3,1.4,3.2C527.1,47.5,528.3,47.9,529.8,47.9z"/>
		<path class="st3" d="M563.2,50.1c-0.7,0.3-1.7,0.7-2.8,1.1c-1.2,0.4-2.5,0.6-3.9,0.6c-0.8,0-1.6-0.1-2.4-0.3
			c-0.7-0.2-1.4-0.6-1.9-1c-0.6-0.5-1-1-1.3-1.8c-0.3-0.7-0.5-1.6-0.5-2.6V30.1H547V26h3.4v-8.3h5.3V26h5.5v4.1h-5.5v14.2
			c0,0.9,0.3,1.6,0.8,2c0.5,0.4,1.1,0.6,1.9,0.6c0.7,0,1.5-0.1,2.1-0.4c0.7-0.3,1.2-0.5,1.5-0.6L563.2,50.1z"/>
		<path class="st3" d="M566.6,21.8V16h5.3v5.9H566.6z M566.6,51.4V26h5.3v25.3H566.6z"/>
		<path class="st3" d="M589.7,51.8c-2,0-3.8-0.4-5.4-1.1c-1.6-0.7-3-1.7-4.1-2.9c-1.1-1.2-2-2.6-2.6-4.2c-0.6-1.6-0.9-3.3-0.9-5
			c0-1.7,0.3-3.4,0.9-5c0.6-1.6,1.5-3,2.6-4.2c1.1-1.2,2.5-2.1,4.1-2.9c1.6-0.7,3.4-1.1,5.4-1.1c2,0,3.8,0.4,5.4,1.1
			c1.6,0.7,3,1.7,4.1,2.9c1.1,1.2,2,2.6,2.6,4.2c0.6,1.6,0.9,3.3,0.9,5c0,1.7-0.3,3.4-0.9,5c-0.6,1.6-1.5,3-2.6,4.2
			c-1.1,1.2-2.5,2.1-4.1,2.9C593.5,51.5,591.7,51.8,589.7,51.8z M582.1,38.8c0,1.2,0.2,2.4,0.6,3.4c0.4,1,0.9,1.9,1.6,2.7
			c0.7,0.8,1.5,1.4,2.4,1.8c0.9,0.4,1.9,0.7,3,0.7s2.1-0.2,3-0.7c0.9-0.4,1.7-1,2.4-1.8c0.7-0.8,1.2-1.7,1.6-2.7
			c0.4-1,0.6-2.2,0.6-3.4c0-1.2-0.2-2.3-0.6-3.4c-0.4-1-0.9-2-1.6-2.7c-0.7-0.8-1.5-1.4-2.4-1.8s-1.9-0.7-3-0.7c-1,0-2,0.2-2.9,0.7
			c-0.9,0.5-1.7,1.1-2.4,1.8s-1.2,1.7-1.6,2.7S582.1,37.6,582.1,38.8z"/>
		<path class="st3" d="M630.1,51.4h-5.3V37.2c0-2.4-0.4-4.1-1.2-5.2c-0.8-1.1-1.9-1.6-3.3-1.6c-0.8,0-1.6,0.1-2.4,0.4
			c-0.8,0.3-1.5,0.7-2.2,1.2c-0.7,0.5-1.3,1.2-1.8,1.9c-0.5,0.7-0.9,1.5-1.2,2.4v15.1h-5.3V26h4.8v5.1c1-1.7,2.4-3.1,4.2-4
			c1.8-1,3.9-1.5,6.1-1.5c1.5,0,2.8,0.3,3.8,0.8c1,0.5,1.8,1.3,2.3,2.3c0.6,1,1,2.1,1.2,3.3c0.2,1.2,0.3,2.6,0.3,4V51.4z"/>
	</g>
</g>
<g>
	<defs>
		<path id="SVGID_7_" d="M512,75.6c0-1,0.8-1.7,1.7-1.7c1,0,1.7,0.8,1.7,1.7v83.1c0,1-0.8,1.7-1.7,1.7c-1,0-1.7-0.8-1.7-1.7V75.6z"
			/>
	</defs>
	<clipPath id="SVGID_8_">
		<use xlink:href="#SVGID_7_"  style="overflow:visible;"/>
	</clipPath>
	<g class="st4">
		<defs>
			<rect id="SVGID_9_" x="-734.2" y="-1941.5" width="2492.5" height="3354.4"/>
		</defs>
		<clipPath id="SVGID_10_">
			<use xlink:href="#SVGID_9_"  style="overflow:visible;"/>
		</clipPath>
		<rect x="503.3" y="65.2" class="st5" width="20.8" height="103.9"/>
	</g>
</g>
<g>
	<defs>
		<path id="SVGID_11_" d="M512,196c0-1,0.8-1.7,1.7-1.7c1,0,1.7,0.8,1.7,1.7v135c0,1-0.8,1.7-1.7,1.7c-1,0-1.7-0.8-1.7-1.7V196z"/>
	</defs>
	<clipPath id="SVGID_12_">
		<use xlink:href="#SVGID_11_"  style="overflow:visible;"/>
	</clipPath>
	<g class="st6">
		<defs>
			<rect id="SVGID_13_" x="-734.2" y="-1941.5" width="2492.5" height="3354.4"/>
		</defs>
		<clipPath id="SVGID_14_">
			<use xlink:href="#SVGID_13_"  style="overflow:visible;"/>
		</clipPath>
		<rect x="503.3" y="185.6" class="st7" width="20.8" height="155.8"/>
	</g>
</g>
<g>
	<defs>
		<path id="SVGID_15_" d="M512,370.5c0-1,0.8-1.7,1.7-1.7c1,0,1.7,0.8,1.7,1.7v169.6c0,1-0.8,1.7-1.7,1.7c-1,0-1.7-0.8-1.7-1.7
			V370.5z"/>
	</defs>
	<clipPath id="SVGID_16_">
		<use xlink:href="#SVGID_15_"  style="overflow:visible;"/>
	</clipPath>
	<g class="st8">
		<defs>
			<rect id="SVGID_17_" x="-734.2" y="-1941.5" width="2492.5" height="3354.4"/>
		</defs>
		<clipPath id="SVGID_18_">
			<use xlink:href="#SVGID_17_"  style="overflow:visible;"/>
		</clipPath>
		<rect x="503.3" y="360.1" class="st9" width="20.8" height="190.4"/>
	</g>
</g>
<g>
	<defs>
		<path id="SVGID_19_" d="M512,577c0-1,0.8-1.7,1.7-1.7c1,0,1.7,0.8,1.7,1.7v221.5c0,1-0.8,1.7-1.7,1.7c-1,0-1.7-0.8-1.7-1.7V577z"
			/>
	</defs>
	<clipPath id="SVGID_20_">
		<use xlink:href="#SVGID_19_"  style="overflow:visible;"/>
	</clipPath>
	<g class="st10">
		<defs>
			<rect id="SVGID_21_" x="-734.2" y="-1941.5" width="2492.5" height="3354.4"/>
		</defs>
		<clipPath id="SVGID_22_">
			<use xlink:href="#SVGID_21_"  style="overflow:visible;"/>
		</clipPath>
		<rect x="503.3" y="566.6" class="st11" width="20.8" height="242.3"/>
	</g>
</g>
<g>
	<defs>
		<path id="SVGID_23_" d="M490.3,169.9v-9.4c0-1.9-1.5-3.4-3.5-3.4H382.4c-1.9,0-3.5,1.5-3.5,3.4v24.2c0,1.9,1.5,3.4,3.5,3.4h104.4
			c1.9,0,3.5-1.5,3.5-3.4V183l11.7-6.6L490.3,169.9z"/>
	</defs>
	<clipPath id="SVGID_24_">
		<use xlink:href="#SVGID_23_"  style="overflow:visible;"/>
	</clipPath>
	<g class="st12">
		<defs>
			<rect id="SVGID_25_" x="-734.2" y="-1941.5" width="2492.5" height="3354.4"/>
		</defs>
		<clipPath id="SVGID_26_">
			<use xlink:href="#SVGID_25_"  style="overflow:visible;"/>
		</clipPath>
		<rect x="370.3" y="148.4" class="st13" width="140.3" height="48.4"/>
	</g>
</g>
<g>
	<defs>
		<rect id="SVGID_27_" x="-734.2" y="-1941.5" width="2492.5" height="3354.4"/>
	</defs>
	<clipPath id="SVGID_28_">
		<use xlink:href="#SVGID_27_"  style="overflow:visible;"/>
	</clipPath>
	<g class="st14">
		<path class="st3" d="M385.7,177.8c0-0.5,0-1,0.1-1.4c0.1-0.4,0.2-0.9,0.5-1.3c0.2-0.4,0.5-0.8,0.9-1.2c0.4-0.4,0.9-0.7,1.6-1.1
			c0.4-0.2,0.8-0.4,1.2-0.6c0.4-0.2,0.8-0.4,1.1-0.6c0.3-0.2,0.6-0.5,0.8-0.7c0.2-0.3,0.3-0.6,0.3-0.9c0-0.2-0.1-0.4-0.2-0.6
			s-0.2-0.4-0.4-0.6s-0.4-0.3-0.7-0.4c-0.3-0.1-0.6-0.2-1-0.2c-0.4,0-0.7,0.1-1,0.2c-0.3,0.1-0.6,0.2-0.8,0.4
			c-0.2,0.2-0.5,0.3-0.6,0.5c-0.2,0.2-0.3,0.3-0.4,0.5l-1.1-1.2c0.1-0.1,0.3-0.3,0.5-0.5c0.2-0.2,0.5-0.4,0.9-0.6s0.8-0.4,1.3-0.5
			c0.5-0.1,1-0.2,1.6-0.2c0.6,0,1.1,0.1,1.6,0.2c0.5,0.2,0.9,0.4,1.2,0.7c0.3,0.3,0.6,0.6,0.8,1s0.3,0.8,0.3,1.2
			c0,0.5-0.1,0.9-0.3,1.3s-0.5,0.7-0.8,1c-0.3,0.3-0.6,0.5-1,0.7c-0.4,0.2-0.7,0.4-1,0.5c-0.3,0.1-0.6,0.3-0.9,0.5
			c-0.3,0.2-0.7,0.4-1,0.7c-0.3,0.2-0.6,0.5-0.8,0.8c-0.2,0.3-0.4,0.6-0.4,1h6.5v1.5H385.7z"/>
		<path class="st3" d="M405.8,172.2c0,0.8-0.1,1.6-0.4,2.3c-0.2,0.7-0.6,1.3-1,1.8s-0.9,0.9-1.5,1.2c-0.6,0.3-1.2,0.4-1.9,0.4
			c-0.7,0-1.3-0.1-1.9-0.4c-0.6-0.3-1.1-0.7-1.5-1.2c-0.4-0.5-0.8-1.1-1-1.8c-0.2-0.7-0.4-1.5-0.4-2.3c0-0.8,0.1-1.6,0.4-2.3
			c0.2-0.7,0.6-1.3,1-1.8c0.4-0.5,0.9-0.9,1.5-1.2s1.2-0.4,1.9-0.4c0.7,0,1.3,0.1,1.9,0.4c0.6,0.3,1.1,0.7,1.5,1.2s0.8,1.1,1,1.8
			C405.7,170.6,405.8,171.4,405.8,172.2z M404.1,172.2c0-0.6-0.1-1.2-0.2-1.7s-0.4-1-0.6-1.3c-0.3-0.4-0.6-0.7-1-0.9
			s-0.8-0.3-1.3-0.3c-0.5,0-0.9,0.1-1.3,0.3c-0.4,0.2-0.7,0.5-1,0.9c-0.3,0.4-0.5,0.8-0.6,1.3s-0.2,1.1-0.2,1.7
			c0,0.6,0.1,1.2,0.2,1.7s0.4,1,0.6,1.3c0.3,0.4,0.6,0.7,1,0.9c0.4,0.2,0.8,0.3,1.3,0.3c0.5,0,0.9-0.1,1.3-0.3
			c0.4-0.2,0.7-0.5,1-0.9c0.3-0.4,0.5-0.8,0.6-1.3S404.1,172.8,404.1,172.2z"/>
		<path class="st3" d="M417.5,172.2c0,0.8-0.1,1.6-0.4,2.3c-0.2,0.7-0.6,1.3-1,1.8s-0.9,0.9-1.5,1.2c-0.6,0.3-1.2,0.4-1.9,0.4
			c-0.7,0-1.3-0.1-1.9-0.4c-0.6-0.3-1.1-0.7-1.5-1.2c-0.4-0.5-0.8-1.1-1-1.8c-0.2-0.7-0.4-1.5-0.4-2.3c0-0.8,0.1-1.6,0.4-2.3
			c0.2-0.7,0.6-1.3,1-1.8c0.4-0.5,0.9-0.9,1.5-1.2s1.2-0.4,1.9-0.4c0.7,0,1.3,0.1,1.9,0.4c0.6,0.3,1.1,0.7,1.5,1.2s0.8,1.1,1,1.8
			C417.4,170.6,417.5,171.4,417.5,172.2z M415.8,172.2c0-0.6-0.1-1.2-0.2-1.7s-0.4-1-0.6-1.3c-0.3-0.4-0.6-0.7-1-0.9
			s-0.8-0.3-1.3-0.3c-0.5,0-0.9,0.1-1.3,0.3c-0.4,0.2-0.7,0.5-1,0.9c-0.3,0.4-0.5,0.8-0.6,1.3s-0.2,1.1-0.2,1.7
			c0,0.6,0.1,1.2,0.2,1.7s0.4,1,0.6,1.3c0.3,0.4,0.6,0.7,1,0.9c0.4,0.2,0.8,0.3,1.3,0.3c0.5,0,0.9-0.1,1.3-0.3
			c0.4-0.2,0.7-0.5,1-0.9c0.3-0.4,0.5-0.8,0.6-1.3S415.8,172.8,415.8,172.2z"/>
		<path class="st3" d="M425.1,180.2V177H419v-1.5l6.6-8.6h1.1v8.5h1.7v1.5h-1.7v3.2H425.1z M420.7,175.5h4.5v-6L420.7,175.5z"/>
		<path class="st3" d="M430.2,173.4v-1.5h5.6v1.5H430.2z"/>
		<path class="st3" d="M437.9,177.8c0-0.5,0-1,0.1-1.4c0.1-0.4,0.2-0.9,0.5-1.3c0.2-0.4,0.5-0.8,0.9-1.2c0.4-0.4,0.9-0.7,1.6-1.1
			c0.4-0.2,0.8-0.4,1.2-0.6c0.4-0.2,0.8-0.4,1.1-0.6c0.3-0.2,0.6-0.5,0.8-0.7c0.2-0.3,0.3-0.6,0.3-0.9c0-0.2-0.1-0.4-0.2-0.6
			s-0.2-0.4-0.4-0.6s-0.4-0.3-0.7-0.4c-0.3-0.1-0.6-0.2-1-0.2c-0.4,0-0.7,0.1-1,0.2c-0.3,0.1-0.6,0.2-0.8,0.4
			c-0.2,0.2-0.5,0.3-0.6,0.5c-0.2,0.2-0.3,0.3-0.4,0.5l-1.1-1.2c0.1-0.1,0.3-0.3,0.5-0.5c0.2-0.2,0.5-0.4,0.9-0.6s0.8-0.4,1.3-0.5
			c0.5-0.1,1-0.2,1.6-0.2c0.6,0,1.1,0.1,1.6,0.2c0.5,0.2,0.9,0.4,1.2,0.7c0.3,0.3,0.6,0.6,0.8,1s0.3,0.8,0.3,1.2
			c0,0.5-0.1,0.9-0.3,1.3s-0.5,0.7-0.8,1c-0.3,0.3-0.6,0.5-1,0.7c-0.4,0.2-0.7,0.4-1,0.5c-0.3,0.1-0.6,0.3-0.9,0.5
			c-0.3,0.2-0.7,0.4-1,0.7c-0.3,0.2-0.6,0.5-0.8,0.8c-0.2,0.3-0.4,0.6-0.4,1h6.5v1.5H437.9z"/>
		<path class="st3" d="M458.1,172.2c0,0.8-0.1,1.6-0.4,2.3c-0.2,0.7-0.6,1.3-1,1.8s-0.9,0.9-1.5,1.2c-0.6,0.3-1.2,0.4-1.9,0.4
			c-0.7,0-1.3-0.1-1.9-0.4c-0.6-0.3-1.1-0.7-1.5-1.2c-0.4-0.5-0.8-1.1-1-1.8c-0.2-0.7-0.4-1.5-0.4-2.3c0-0.8,0.1-1.6,0.4-2.3
			c0.2-0.7,0.6-1.3,1-1.8c0.4-0.5,0.9-0.9,1.5-1.2s1.2-0.4,1.9-0.4c0.7,0,1.3,0.1,1.9,0.4c0.6,0.3,1.1,0.7,1.5,1.2s0.8,1.1,1,1.8
			C457.9,170.6,458.1,171.4,458.1,172.2z M456.4,172.2c0-0.6-0.1-1.2-0.2-1.7s-0.4-1-0.6-1.3c-0.3-0.4-0.6-0.7-1-0.9
			s-0.8-0.3-1.3-0.3c-0.5,0-0.9,0.1-1.3,0.3c-0.4,0.2-0.7,0.5-1,0.9c-0.3,0.4-0.5,0.8-0.6,1.3s-0.2,1.1-0.2,1.7
			c0,0.6,0.1,1.2,0.2,1.7s0.4,1,0.6,1.3c0.3,0.4,0.6,0.7,1,0.9c0.4,0.2,0.8,0.3,1.3,0.3c0.5,0,0.9-0.1,1.3-0.3
			c0.4-0.2,0.7-0.5,1-0.9c0.3-0.4,0.5-0.8,0.6-1.3S456.4,172.8,456.4,172.2z"/>
		<path class="st3" d="M469.8,172.2c0,0.8-0.1,1.6-0.4,2.3c-0.2,0.7-0.6,1.3-1,1.8s-0.9,0.9-1.5,1.2c-0.6,0.3-1.2,0.4-1.9,0.4
			c-0.7,0-1.3-0.1-1.9-0.4c-0.6-0.3-1.1-0.7-1.5-1.2c-0.4-0.5-0.8-1.1-1-1.8c-0.2-0.7-0.4-1.5-0.4-2.3c0-0.8,0.1-1.6,0.4-2.3
			c0.2-0.7,0.6-1.3,1-1.8c0.4-0.5,0.9-0.9,1.5-1.2s1.2-0.4,1.9-0.4c0.7,0,1.3,0.1,1.9,0.4c0.6,0.3,1.1,0.7,1.5,1.2s0.8,1.1,1,1.8
			C469.7,170.6,469.8,171.4,469.8,172.2z M468.1,172.2c0-0.6-0.1-1.2-0.2-1.7s-0.4-1-0.6-1.3c-0.3-0.4-0.6-0.7-1-0.9
			s-0.8-0.3-1.3-0.3c-0.5,0-0.9,0.1-1.3,0.3c-0.4,0.2-0.7,0.5-1,0.9c-0.3,0.4-0.5,0.8-0.6,1.3s-0.2,1.1-0.2,1.7
			c0,0.6,0.1,1.2,0.2,1.7s0.4,1,0.6,1.3c0.3,0.4,0.6,0.7,1,0.9c0.4,0.2,0.8,0.3,1.3,0.3c0.5,0,0.9-0.1,1.3-0.3
			c0.4-0.2,0.7-0.5,1-0.9c0.3-0.4,0.5-0.8,0.6-1.3S468.1,172.8,468.1,172.2z"/>
		<path class="st3" d="M481.5,173.3c0,0.6-0.1,1.3-0.4,1.8c-0.2,0.6-0.6,1.1-1,1.5c-0.4,0.4-0.9,0.8-1.5,1c-0.6,0.2-1.2,0.4-1.9,0.4
			c-0.7,0-1.4-0.1-2-0.4c-0.6-0.3-1.1-0.7-1.6-1.2c-0.4-0.5-0.8-1.1-1-1.8c-0.2-0.7-0.4-1.5-0.4-2.4c0-1.3,0.1-2.5,0.4-3.5
			c0.2-1,0.6-1.8,1-2.5c0.4-0.7,1-1.2,1.6-1.5c0.6-0.3,1.3-0.5,2.1-0.5c0.9,0,1.7,0.2,2.4,0.6c0.7,0.4,1.3,1,1.7,1.8l-1,1
			c-0.3-0.6-0.7-1.1-1.2-1.4c-0.5-0.3-1.2-0.5-1.8-0.5c-0.5,0-1,0.1-1.4,0.4c-0.4,0.2-0.8,0.6-1.1,1c-0.3,0.5-0.5,1-0.7,1.7
			c-0.2,0.7-0.3,1.4-0.3,2.2c0.3-0.7,0.7-1.2,1.4-1.6s1.3-0.6,2.1-0.6c0.6,0,1.3,0.1,1.8,0.4c0.6,0.2,1.1,0.6,1.5,1
			c0.4,0.4,0.7,0.9,1,1.4C481.4,172.1,481.5,172.7,481.5,173.3z M476.7,176.5c0.4,0,0.8-0.1,1.2-0.3s0.7-0.4,1-0.7
			c0.3-0.3,0.5-0.6,0.7-1c0.2-0.4,0.3-0.8,0.3-1.2c0-0.4-0.1-0.8-0.3-1.2c-0.2-0.4-0.4-0.7-0.7-1s-0.6-0.5-1-0.7
			c-0.4-0.2-0.8-0.3-1.2-0.3c-0.4,0-0.9,0.1-1.2,0.3c-0.4,0.2-0.7,0.4-1,0.7s-0.5,0.6-0.7,1c-0.2,0.4-0.3,0.8-0.3,1.2
			c0,0.4,0.1,0.9,0.3,1.2c0.2,0.4,0.4,0.7,0.7,1c0.3,0.3,0.6,0.5,1,0.7C475.8,176.4,476.3,176.5,476.7,176.5z"/>
	</g>
</g>
<g>
	<defs>
		<path id="SVGID_29_" d="M490.3,550.3v-9.4c0-1.9-1.5-3.4-3.5-3.4H382.4c-1.9,0-3.5,1.5-3.5,3.4v24.2c0,1.9,1.5,3.4,3.5,3.4h104.4
			c1.9,0,3.5-1.5,3.5-3.4v-1.7l11.7-6.6L490.3,550.3z"/>
	</defs>
	<clipPath id="SVGID_30_">
		<use xlink:href="#SVGID_29_"  style="overflow:visible;"/>
	</clipPath>
	<g class="st15">
		<defs>
			<rect id="SVGID_31_" x="-734.2" y="-1941.5" width="2492.5" height="3354.4"/>
		</defs>
		<clipPath id="SVGID_32_">
			<use xlink:href="#SVGID_31_"  style="overflow:visible;"/>
		</clipPath>
		<rect x="370.3" y="528.8" class="st16" width="140.3" height="48.4"/>
	</g>
</g>
<g>
	<defs>
		<rect id="SVGID_33_" x="-734.2" y="-1941.5" width="2492.5" height="3354.4"/>
	</defs>
	<clipPath id="SVGID_34_">
		<use xlink:href="#SVGID_33_"  style="overflow:visible;"/>
	</clipPath>
	<g class="st17">
		<path class="st3" d="M387.4,558.2c0-0.5,0-1,0.1-1.4c0.1-0.4,0.2-0.9,0.5-1.3c0.2-0.4,0.5-0.8,0.9-1.2c0.4-0.4,0.9-0.7,1.6-1.1
			c0.4-0.2,0.8-0.4,1.2-0.6c0.4-0.2,0.8-0.4,1.1-0.6c0.3-0.2,0.6-0.5,0.8-0.7c0.2-0.3,0.3-0.6,0.3-0.9c0-0.2-0.1-0.4-0.2-0.6
			s-0.2-0.4-0.4-0.6s-0.4-0.3-0.7-0.4c-0.3-0.1-0.6-0.2-1-0.2c-0.4,0-0.7,0.1-1,0.2c-0.3,0.1-0.6,0.2-0.8,0.4
			c-0.2,0.2-0.5,0.3-0.6,0.5c-0.2,0.2-0.3,0.3-0.4,0.5l-1.1-1.2c0.1-0.1,0.3-0.3,0.5-0.5c0.2-0.2,0.5-0.4,0.9-0.6s0.8-0.4,1.3-0.5
			c0.5-0.1,1-0.2,1.6-0.2c0.6,0,1.1,0.1,1.6,0.2c0.5,0.2,0.9,0.4,1.2,0.7c0.3,0.3,0.6,0.6,0.8,1s0.3,0.8,0.3,1.2
			c0,0.5-0.1,0.9-0.3,1.3s-0.5,0.7-0.8,1c-0.3,0.3-0.6,0.5-1,0.7c-0.4,0.2-0.7,0.4-1,0.5c-0.3,0.1-0.6,0.3-0.9,0.5
			c-0.3,0.2-0.7,0.4-1,0.7c-0.3,0.2-0.6,0.5-0.8,0.8c-0.2,0.3-0.4,0.6-0.4,1h6.5v1.5H387.4z"/>
		<path class="st3" d="M407.6,552.6c0,0.8-0.1,1.6-0.4,2.3c-0.2,0.7-0.6,1.3-1,1.8s-0.9,0.9-1.5,1.2c-0.6,0.3-1.2,0.4-1.9,0.4
			c-0.7,0-1.3-0.1-1.9-0.4c-0.6-0.3-1.1-0.7-1.5-1.2c-0.4-0.5-0.8-1.1-1-1.8c-0.2-0.7-0.4-1.5-0.4-2.3c0-0.8,0.1-1.6,0.4-2.3
			c0.2-0.7,0.6-1.3,1-1.8c0.4-0.5,0.9-0.9,1.5-1.2s1.2-0.4,1.9-0.4c0.7,0,1.3,0.1,1.9,0.4c0.6,0.3,1.1,0.7,1.5,1.2s0.8,1.1,1,1.8
			C407.4,551,407.6,551.8,407.6,552.6z M405.9,552.6c0-0.6-0.1-1.2-0.2-1.7s-0.4-1-0.6-1.3c-0.3-0.4-0.6-0.7-1-0.9s-0.8-0.3-1.3-0.3
			c-0.5,0-0.9,0.1-1.3,0.3c-0.4,0.2-0.7,0.5-1,0.9c-0.3,0.4-0.5,0.8-0.6,1.3s-0.2,1.1-0.2,1.7c0,0.6,0.1,1.2,0.2,1.7s0.4,1,0.6,1.3
			c0.3,0.4,0.6,0.7,1,0.9c0.4,0.2,0.8,0.3,1.3,0.3c0.5,0,0.9-0.1,1.3-0.3c0.4-0.2,0.7-0.5,1-0.9c0.3-0.4,0.5-0.8,0.6-1.3
			S405.9,553.3,405.9,552.6z"/>
		<path class="st3" d="M416.7,556.7v1.5h-6.8v-1.5h2.7v-7.4c-0.1,0.2-0.3,0.3-0.5,0.5c-0.2,0.2-0.5,0.3-0.8,0.5
			c-0.3,0.1-0.6,0.3-0.9,0.4c-0.3,0.1-0.6,0.2-0.8,0.2v-1.6c0.3,0,0.6-0.1,0.9-0.2c0.3-0.2,0.7-0.3,1-0.6c0.3-0.2,0.6-0.4,0.8-0.6
			c0.2-0.2,0.4-0.3,0.4-0.4h1.7v9.3H416.7z"/>
		<path class="st3" d="M427.8,552.6c0,0.8-0.1,1.6-0.4,2.3c-0.2,0.7-0.6,1.3-1,1.8s-0.9,0.9-1.5,1.2c-0.6,0.3-1.2,0.4-1.9,0.4
			c-0.7,0-1.3-0.1-1.9-0.4c-0.6-0.3-1.1-0.7-1.5-1.2c-0.4-0.5-0.8-1.1-1-1.8c-0.2-0.7-0.4-1.5-0.4-2.3c0-0.8,0.1-1.6,0.4-2.3
			c0.2-0.7,0.6-1.3,1-1.8c0.4-0.5,0.9-0.9,1.5-1.2s1.2-0.4,1.9-0.4c0.7,0,1.3,0.1,1.9,0.4c0.6,0.3,1.1,0.7,1.5,1.2s0.8,1.1,1,1.8
			C427.6,551,427.8,551.8,427.8,552.6z M426.1,552.6c0-0.6-0.1-1.2-0.2-1.7s-0.4-1-0.6-1.3c-0.3-0.4-0.6-0.7-1-0.9s-0.8-0.3-1.3-0.3
			c-0.5,0-0.9,0.1-1.3,0.3c-0.4,0.2-0.7,0.5-1,0.9c-0.3,0.4-0.5,0.8-0.6,1.3s-0.2,1.1-0.2,1.7c0,0.6,0.1,1.2,0.2,1.7s0.4,1,0.6,1.3
			c0.3,0.4,0.6,0.7,1,0.9c0.4,0.2,0.8,0.3,1.3,0.3c0.5,0,0.9-0.1,1.3-0.3c0.4-0.2,0.7-0.5,1-0.9c0.3-0.4,0.5-0.8,0.6-1.3
			S426.1,553.3,426.1,552.6z"/>
		<path class="st3" d="M430,553.8v-1.5h5.6v1.5H430z"/>
		<path class="st3" d="M437.7,558.2c0-0.5,0-1,0.1-1.4c0.1-0.4,0.2-0.9,0.5-1.3c0.2-0.4,0.5-0.8,0.9-1.2c0.4-0.4,0.9-0.7,1.6-1.1
			c0.4-0.2,0.8-0.4,1.2-0.6c0.4-0.2,0.8-0.4,1.1-0.6c0.3-0.2,0.6-0.5,0.8-0.7c0.2-0.3,0.3-0.6,0.3-0.9c0-0.2-0.1-0.4-0.2-0.6
			s-0.2-0.4-0.4-0.6s-0.4-0.3-0.7-0.4c-0.3-0.1-0.6-0.2-1-0.2c-0.4,0-0.7,0.1-1,0.2c-0.3,0.1-0.6,0.2-0.8,0.4
			c-0.2,0.2-0.5,0.3-0.6,0.5c-0.2,0.2-0.3,0.3-0.4,0.5l-1.1-1.2c0.1-0.1,0.3-0.3,0.5-0.5c0.2-0.2,0.5-0.4,0.9-0.6s0.8-0.4,1.3-0.5
			c0.5-0.1,1-0.2,1.6-0.2c0.6,0,1.1,0.1,1.6,0.2c0.5,0.2,0.9,0.4,1.2,0.7c0.3,0.3,0.6,0.6,0.8,1s0.3,0.8,0.3,1.2
			c0,0.5-0.1,0.9-0.3,1.3s-0.5,0.7-0.8,1c-0.3,0.3-0.6,0.5-1,0.7c-0.4,0.2-0.7,0.4-1,0.5c-0.3,0.1-0.6,0.3-0.9,0.5
			c-0.3,0.2-0.7,0.4-1,0.7c-0.3,0.2-0.6,0.5-0.8,0.8c-0.2,0.3-0.4,0.6-0.4,1h6.5v1.5H437.7z"/>
		<path class="st3" d="M457.9,552.6c0,0.8-0.1,1.6-0.4,2.3c-0.2,0.7-0.6,1.3-1,1.8s-0.9,0.9-1.5,1.2c-0.6,0.3-1.2,0.4-1.9,0.4
			c-0.7,0-1.3-0.1-1.9-0.4c-0.6-0.3-1.1-0.7-1.5-1.2c-0.4-0.5-0.8-1.1-1-1.8c-0.2-0.7-0.4-1.5-0.4-2.3c0-0.8,0.1-1.6,0.4-2.3
			c0.2-0.7,0.6-1.3,1-1.8c0.4-0.5,0.9-0.9,1.5-1.2s1.2-0.4,1.9-0.4c0.7,0,1.3,0.1,1.9,0.4c0.6,0.3,1.1,0.7,1.5,1.2s0.8,1.1,1,1.8
			C457.7,551,457.9,551.8,457.9,552.6z M456.2,552.6c0-0.6-0.1-1.2-0.2-1.7s-0.4-1-0.6-1.3c-0.3-0.4-0.6-0.7-1-0.9s-0.8-0.3-1.3-0.3
			c-0.5,0-0.9,0.1-1.3,0.3c-0.4,0.2-0.7,0.5-1,0.9c-0.3,0.4-0.5,0.8-0.6,1.3s-0.2,1.1-0.2,1.7c0,0.6,0.1,1.2,0.2,1.7s0.4,1,0.6,1.3
			c0.3,0.4,0.6,0.7,1,0.9c0.4,0.2,0.8,0.3,1.3,0.3c0.5,0,0.9-0.1,1.3-0.3c0.4-0.2,0.7-0.5,1-0.9c0.3-0.4,0.5-0.8,0.6-1.3
			S456.2,553.3,456.2,552.6z"/>
		<path class="st3" d="M467,556.7v1.5h-6.8v-1.5h2.7v-7.4c-0.1,0.2-0.3,0.3-0.5,0.5c-0.2,0.2-0.5,0.3-0.8,0.5
			c-0.3,0.1-0.6,0.3-0.9,0.4c-0.3,0.1-0.6,0.2-0.8,0.2v-1.6c0.3,0,0.6-0.1,0.9-0.2c0.3-0.2,0.7-0.3,1-0.6c0.3-0.2,0.6-0.4,0.8-0.6
			c0.2-0.2,0.4-0.3,0.4-0.4h1.7v9.3H467z"/>
		<path class="st3" d="M474.2,553.7c0.8,0.1,1.5,0.5,1.9,1.1c0.5,0.6,0.7,1.4,0.7,2.3c0,0.6-0.1,1.1-0.3,1.6s-0.5,0.9-0.9,1.2
			c-0.4,0.3-0.9,0.6-1.4,0.8c-0.6,0.2-1.2,0.3-1.9,0.3c-1,0-1.8-0.2-2.5-0.5c-0.7-0.4-1.3-0.9-1.7-1.5l1.1-1.1
			c0.3,0.5,0.7,0.9,1.2,1.2s1.1,0.4,1.9,0.4c0.9,0,1.6-0.2,2.1-0.6c0.5-0.4,0.8-1,0.8-1.8s-0.3-1.4-0.8-1.9
			c-0.5-0.5-1.3-0.7-2.4-0.7h-0.5v-1.4h0.5c0.9,0,1.6-0.2,2.1-0.7c0.5-0.4,0.7-1,0.7-1.7c0-0.7-0.2-1.2-0.7-1.5s-1.1-0.5-1.8-0.5
			c-0.7,0-1.3,0.1-1.8,0.4c-0.5,0.3-0.9,0.7-1.2,1.2l-1-1.1c0.2-0.3,0.4-0.6,0.7-0.9c0.3-0.3,0.6-0.5,1-0.7c0.4-0.2,0.8-0.3,1.2-0.4
			s0.9-0.2,1.4-0.2c0.6,0,1.1,0.1,1.6,0.2c0.5,0.2,0.9,0.4,1.3,0.7c0.4,0.3,0.6,0.6,0.8,1.1c0.2,0.4,0.3,0.9,0.3,1.4
			c0,0.4-0.1,0.7-0.2,1.1s-0.3,0.7-0.5,0.9c-0.2,0.3-0.5,0.5-0.8,0.7C474.9,553.5,474.6,553.7,474.2,553.7z"/>
	</g>
</g>
<g>
	<defs>
		<path id="SVGID_35_" d="M539.9,357.2v0.5c0,1.9,1.5,3.4,3.5,3.4h104.4c1.9,0,3.5-1.5,3.5-3.4v-24.2c0-1.9-1.5-3.4-3.5-3.4H543.4
			c-1.9,0-3.5,1.5-3.5,3.4v8.3l-13.7,7.7L539.9,357.2z"/>
	</defs>
	<clipPath id="SVGID_36_">
		<use xlink:href="#SVGID_35_"  style="overflow:visible;"/>
	</clipPath>
	<g class="st18">
		<defs>
			<rect id="SVGID_37_" x="-734.2" y="-1941.5" width="2492.5" height="3354.4"/>
		</defs>
		<clipPath id="SVGID_38_">
			<use xlink:href="#SVGID_37_"  style="overflow:visible;"/>
		</clipPath>
		<rect x="517.5" y="321.4" class="st19" width="142.4" height="48.4"/>
	</g>
</g>
<g>
	<defs>
		<rect id="SVGID_39_" x="-734.2" y="-1941.5" width="2492.5" height="3354.4"/>
	</defs>
	<clipPath id="SVGID_40_">
		<use xlink:href="#SVGID_39_"  style="overflow:visible;"/>
	</clipPath>
	<g class="st20">
		<path class="st3" d="M546.7,350.8c0-0.5,0-1,0.1-1.4c0.1-0.4,0.2-0.9,0.5-1.3c0.2-0.4,0.5-0.8,0.9-1.2c0.4-0.4,0.9-0.7,1.6-1.1
			c0.4-0.2,0.8-0.4,1.2-0.6c0.4-0.2,0.8-0.4,1.1-0.6c0.3-0.2,0.6-0.5,0.8-0.7c0.2-0.3,0.3-0.6,0.3-0.9c0-0.2-0.1-0.4-0.2-0.6
			s-0.2-0.4-0.4-0.6s-0.4-0.3-0.7-0.4c-0.3-0.1-0.6-0.2-1-0.2c-0.4,0-0.7,0.1-1,0.2c-0.3,0.1-0.6,0.2-0.8,0.4
			c-0.2,0.2-0.5,0.3-0.6,0.5c-0.2,0.2-0.3,0.3-0.4,0.5l-1.1-1.2c0.1-0.1,0.3-0.3,0.5-0.5c0.2-0.2,0.5-0.4,0.9-0.6s0.8-0.4,1.3-0.5
			c0.5-0.1,1-0.2,1.6-0.2c0.6,0,1.1,0.1,1.6,0.2c0.5,0.2,0.9,0.4,1.2,0.7c0.3,0.3,0.6,0.6,0.8,1s0.3,0.8,0.3,1.2
			c0,0.5-0.1,0.9-0.3,1.3s-0.5,0.7-0.8,1c-0.3,0.3-0.6,0.5-1,0.7c-0.4,0.2-0.7,0.4-1,0.5c-0.3,0.1-0.6,0.3-0.9,0.5
			c-0.3,0.2-0.7,0.4-1,0.7c-0.3,0.2-0.6,0.5-0.8,0.8c-0.2,0.3-0.4,0.6-0.4,1h6.5v1.5H546.7z"/>
		<path class="st3" d="M566.8,345.2c0,0.8-0.1,1.6-0.4,2.3c-0.2,0.7-0.6,1.3-1,1.8s-0.9,0.9-1.5,1.2c-0.6,0.3-1.2,0.4-1.9,0.4
			c-0.7,0-1.3-0.1-1.9-0.4c-0.6-0.3-1.1-0.7-1.5-1.2c-0.4-0.5-0.8-1.1-1-1.8c-0.2-0.7-0.4-1.5-0.4-2.3c0-0.8,0.1-1.6,0.4-2.3
			c0.2-0.7,0.6-1.3,1-1.8c0.4-0.5,0.9-0.9,1.5-1.2s1.2-0.4,1.9-0.4c0.7,0,1.3,0.1,1.9,0.4c0.6,0.3,1.1,0.7,1.5,1.2s0.8,1.1,1,1.8
			C566.7,343.6,566.8,344.4,566.8,345.2z M565.1,345.2c0-0.6-0.1-1.2-0.2-1.7s-0.4-1-0.6-1.3c-0.3-0.4-0.6-0.7-1-0.9
			s-0.8-0.3-1.3-0.3c-0.5,0-0.9,0.1-1.3,0.3c-0.4,0.2-0.7,0.5-1,0.9c-0.3,0.4-0.5,0.8-0.6,1.3s-0.2,1.1-0.2,1.7
			c0,0.6,0.1,1.2,0.2,1.7s0.4,1,0.6,1.3c0.3,0.4,0.6,0.7,1,0.9c0.4,0.2,0.8,0.3,1.3,0.3c0.5,0,0.9-0.1,1.3-0.3
			c0.4-0.2,0.7-0.5,1-0.9c0.3-0.4,0.5-0.8,0.6-1.3S565.1,345.9,565.1,345.2z"/>
		<path class="st3" d="M578.5,345.2c0,0.8-0.1,1.6-0.4,2.3c-0.2,0.7-0.6,1.3-1,1.8s-0.9,0.9-1.5,1.2c-0.6,0.3-1.2,0.4-1.9,0.4
			c-0.7,0-1.3-0.1-1.9-0.4c-0.6-0.3-1.1-0.7-1.5-1.2c-0.4-0.5-0.8-1.1-1-1.8c-0.2-0.7-0.4-1.5-0.4-2.3c0-0.8,0.1-1.6,0.4-2.3
			c0.2-0.7,0.6-1.3,1-1.8c0.4-0.5,0.9-0.9,1.5-1.2s1.2-0.4,1.9-0.4c0.7,0,1.3,0.1,1.9,0.4c0.6,0.3,1.1,0.7,1.5,1.2s0.8,1.1,1,1.8
			C578.4,343.6,578.5,344.4,578.5,345.2z M576.8,345.2c0-0.6-0.1-1.2-0.2-1.7s-0.4-1-0.6-1.3c-0.3-0.4-0.6-0.7-1-0.9
			s-0.8-0.3-1.3-0.3c-0.5,0-0.9,0.1-1.3,0.3c-0.4,0.2-0.7,0.5-1,0.9c-0.3,0.4-0.5,0.8-0.6,1.3s-0.2,1.1-0.2,1.7
			c0,0.6,0.1,1.2,0.2,1.7s0.4,1,0.6,1.3c0.3,0.4,0.6,0.7,1,0.9c0.4,0.2,0.8,0.3,1.3,0.3c0.5,0,0.9-0.1,1.3-0.3
			c0.4-0.2,0.7-0.5,1-0.9c0.3-0.4,0.5-0.8,0.6-1.3S576.8,345.9,576.8,345.2z"/>
		<path class="st3" d="M590.2,346.3c0,0.6-0.1,1.3-0.4,1.8c-0.2,0.6-0.6,1.1-1,1.5c-0.4,0.4-0.9,0.8-1.5,1c-0.6,0.2-1.2,0.4-1.9,0.4
			c-0.7,0-1.4-0.1-2-0.4c-0.6-0.3-1.1-0.7-1.6-1.2c-0.4-0.5-0.8-1.1-1-1.8c-0.2-0.7-0.4-1.5-0.4-2.4c0-1.3,0.1-2.5,0.4-3.5
			c0.2-1,0.6-1.8,1-2.5c0.4-0.7,1-1.2,1.6-1.5c0.6-0.3,1.3-0.5,2.1-0.5c0.9,0,1.7,0.2,2.4,0.6c0.7,0.4,1.3,1,1.7,1.8l-1,1
			c-0.3-0.6-0.7-1.1-1.2-1.4c-0.5-0.3-1.2-0.5-1.8-0.5c-0.5,0-1,0.1-1.4,0.4c-0.4,0.2-0.8,0.6-1.1,1c-0.3,0.5-0.5,1-0.7,1.7
			c-0.2,0.7-0.3,1.4-0.3,2.2c0.3-0.7,0.7-1.2,1.4-1.6s1.3-0.6,2.1-0.6c0.6,0,1.3,0.1,1.8,0.4c0.6,0.2,1.1,0.6,1.5,1
			c0.4,0.4,0.7,0.9,1,1.4C590.1,345.1,590.2,345.7,590.2,346.3z M585.4,349.5c0.4,0,0.8-0.1,1.2-0.3s0.7-0.4,1-0.7
			c0.3-0.3,0.5-0.6,0.7-1c0.2-0.4,0.3-0.8,0.3-1.2c0-0.4-0.1-0.8-0.3-1.2c-0.2-0.4-0.4-0.7-0.7-1s-0.6-0.5-1-0.7
			c-0.4-0.2-0.8-0.3-1.2-0.3c-0.4,0-0.9,0.1-1.2,0.3c-0.4,0.2-0.7,0.4-1,0.7s-0.5,0.6-0.7,1c-0.2,0.4-0.3,0.8-0.3,1.2
			c0,0.4,0.1,0.9,0.3,1.2c0.2,0.4,0.4,0.7,0.7,1c0.3,0.3,0.6,0.5,1,0.7C584.6,349.5,585,349.5,585.4,349.5z"/>
		<path class="st3" d="M592.3,346.4v-1.5h5.6v1.5H592.3z"/>
		<path class="st3" d="M600,350.8c0-0.5,0-1,0.1-1.4c0.1-0.4,0.2-0.9,0.5-1.3c0.2-0.4,0.5-0.8,0.9-1.2c0.4-0.4,0.9-0.7,1.6-1.1
			c0.4-0.2,0.8-0.4,1.2-0.6c0.4-0.2,0.8-0.4,1.1-0.6c0.3-0.2,0.6-0.5,0.8-0.7c0.2-0.3,0.3-0.6,0.3-0.9c0-0.2-0.1-0.4-0.2-0.6
			s-0.2-0.4-0.4-0.6s-0.4-0.3-0.7-0.4c-0.3-0.1-0.6-0.2-1-0.2c-0.4,0-0.7,0.1-1,0.2c-0.3,0.1-0.6,0.2-0.8,0.4
			c-0.2,0.2-0.5,0.3-0.6,0.5c-0.2,0.2-0.3,0.3-0.4,0.5l-1.1-1.2c0.1-0.1,0.3-0.3,0.5-0.5c0.2-0.2,0.5-0.4,0.9-0.6s0.8-0.4,1.3-0.5
			c0.5-0.1,1-0.2,1.6-0.2c0.6,0,1.1,0.1,1.6,0.2c0.5,0.2,0.9,0.4,1.2,0.7c0.3,0.3,0.6,0.6,0.8,1s0.3,0.8,0.3,1.2
			c0,0.5-0.1,0.9-0.3,1.3s-0.5,0.7-0.8,1c-0.3,0.3-0.6,0.5-1,0.7c-0.4,0.2-0.7,0.4-1,0.5c-0.3,0.1-0.6,0.3-0.9,0.5
			c-0.3,0.2-0.7,0.4-1,0.7c-0.3,0.2-0.6,0.5-0.8,0.8c-0.2,0.3-0.4,0.6-0.4,1h6.5v1.5H600z"/>
		<path class="st3" d="M620.1,345.2c0,0.8-0.1,1.6-0.4,2.3c-0.2,0.7-0.6,1.3-1,1.8s-0.9,0.9-1.5,1.2c-0.6,0.3-1.2,0.4-1.9,0.4
			c-0.7,0-1.3-0.1-1.9-0.4c-0.6-0.3-1.1-0.7-1.5-1.2c-0.4-0.5-0.8-1.1-1-1.8c-0.2-0.7-0.4-1.5-0.4-2.3c0-0.8,0.1-1.6,0.4-2.3
			c0.2-0.7,0.6-1.3,1-1.8c0.4-0.5,0.9-0.9,1.5-1.2s1.2-0.4,1.9-0.4c0.7,0,1.3,0.1,1.9,0.4c0.6,0.3,1.1,0.7,1.5,1.2s0.8,1.1,1,1.8
			C620,343.6,620.1,344.4,620.1,345.2z M618.4,345.2c0-0.6-0.1-1.2-0.2-1.7s-0.4-1-0.6-1.3c-0.3-0.4-0.6-0.7-1-0.9s-0.8-0.3-1.3-0.3
			c-0.5,0-0.9,0.1-1.3,0.3c-0.4,0.2-0.7,0.5-1,0.9c-0.3,0.4-0.5,0.8-0.6,1.3s-0.2,1.1-0.2,1.7c0,0.6,0.1,1.2,0.2,1.7s0.4,1,0.6,1.3
			c0.3,0.4,0.6,0.7,1,0.9c0.4,0.2,0.8,0.3,1.3,0.3c0.5,0,0.9-0.1,1.3-0.3c0.4-0.2,0.7-0.5,1-0.9c0.3-0.4,0.5-0.8,0.6-1.3
			S618.4,345.9,618.4,345.2z"/>
		<path class="st3" d="M631.8,345.2c0,0.8-0.1,1.6-0.4,2.3c-0.2,0.7-0.6,1.3-1,1.8s-0.9,0.9-1.5,1.2c-0.6,0.3-1.2,0.4-1.9,0.4
			c-0.7,0-1.3-0.1-1.9-0.4c-0.6-0.3-1.1-0.7-1.5-1.2c-0.4-0.5-0.8-1.1-1-1.8c-0.2-0.7-0.4-1.5-0.4-2.3c0-0.8,0.1-1.6,0.4-2.3
			c0.2-0.7,0.6-1.3,1-1.8c0.4-0.5,0.9-0.9,1.5-1.2s1.2-0.4,1.9-0.4c0.7,0,1.3,0.1,1.9,0.4c0.6,0.3,1.1,0.7,1.5,1.2s0.8,1.1,1,1.8
			C631.7,343.6,631.8,344.4,631.8,345.2z M630.1,345.2c0-0.6-0.1-1.2-0.2-1.7s-0.4-1-0.6-1.3c-0.3-0.4-0.6-0.7-1-0.9
			s-0.8-0.3-1.3-0.3c-0.5,0-0.9,0.1-1.3,0.3c-0.4,0.2-0.7,0.5-1,0.9c-0.3,0.4-0.5,0.8-0.6,1.3s-0.2,1.1-0.2,1.7
			c0,0.6,0.1,1.2,0.2,1.7s0.4,1,0.6,1.3c0.3,0.4,0.6,0.7,1,0.9c0.4,0.2,0.8,0.3,1.3,0.3c0.5,0,0.9-0.1,1.3-0.3
			c0.4-0.2,0.7-0.5,1-0.9c0.3-0.4,0.5-0.8,0.6-1.3S630.1,345.9,630.1,345.2z"/>
		<path class="st3" d="M633.5,344.6c0-0.6,0.1-1.3,0.4-1.8c0.2-0.6,0.6-1.1,1-1.5c0.4-0.4,0.9-0.8,1.5-1s1.2-0.4,1.9-0.4
			c0.7,0,1.4,0.1,2,0.4c0.6,0.3,1.1,0.7,1.6,1.2c0.4,0.5,0.8,1.1,1,1.8c0.2,0.7,0.4,1.5,0.4,2.4c0,1.3-0.1,2.5-0.4,3.5
			c-0.2,1-0.6,1.8-1,2.5s-1,1.2-1.6,1.5c-0.6,0.3-1.3,0.5-2.1,0.5c-0.9,0-1.7-0.2-2.4-0.6c-0.7-0.4-1.3-1-1.7-1.8l1-1
			c0.3,0.6,0.7,1.1,1.2,1.4c0.5,0.3,1.2,0.5,1.8,0.5c1,0,1.9-0.5,2.5-1.4s0.9-2.2,1-3.9c-0.3,0.7-0.7,1.2-1.4,1.6
			c-0.6,0.4-1.3,0.6-2.1,0.6c-0.6,0-1.3-0.1-1.8-0.4c-0.6-0.2-1.1-0.6-1.5-1s-0.7-0.9-1-1.4S633.5,345.2,633.5,344.6z M638.4,341.4
			c-0.4,0-0.9,0.1-1.2,0.3c-0.4,0.2-0.7,0.4-1,0.7s-0.5,0.6-0.7,1c-0.2,0.4-0.3,0.8-0.3,1.2s0.1,0.9,0.3,1.2c0.2,0.4,0.4,0.7,0.7,1
			c0.3,0.3,0.6,0.5,1,0.7c0.4,0.2,0.8,0.3,1.2,0.3s0.9-0.1,1.2-0.3c0.4-0.2,0.7-0.4,1-0.7c0.3-0.3,0.5-0.6,0.7-1
			c0.2-0.4,0.3-0.8,0.3-1.2c0-0.4-0.1-0.8-0.3-1.2c-0.2-0.4-0.4-0.7-0.7-1c-0.3-0.3-0.6-0.5-1-0.7
			C639.2,341.5,638.8,341.4,638.4,341.4z"/>
	</g>
</g>
<g>
	<defs>
		<circle id="SVGID_41_" cx="513.7" cy="177" r="8.7"/>
	</defs>
	<clipPath id="SVGID_42_">
		<use xlink:href="#SVGID_41_"  style="overflow:visible;"/>
	</clipPath>
	<g class="st21">
		<defs>
			<rect id="SVGID_43_" x="-734.2" y="-1941.5" width="2492.5" height="3354.4"/>
		</defs>
		<clipPath id="SVGID_44_">
			<use xlink:href="#SVGID_43_"  style="overflow:visible;"/>
		</clipPath>
		<rect x="496.4" y="159.7" class="st22" width="34.6" height="34.6"/>
	</g>
</g>
<g>
	<defs>
		<rect id="SVGID_45_" x="-734.2" y="-1941.5" width="2492.5" height="3354.4"/>
	</defs>
	<clipPath id="SVGID_46_">
		<use xlink:href="#SVGID_45_"  style="overflow:visible;"/>
	</clipPath>
	<circle class="st23" cx="513.7" cy="177" r="8.7"/>
</g>
<g>
	<defs>
		<circle id="SVGID_47_" cx="513.7" cy="557.5" r="8.7"/>
	</defs>
	<clipPath id="SVGID_48_">
		<use xlink:href="#SVGID_47_"  style="overflow:visible;"/>
	</clipPath>
	<g class="st24">
		<defs>
			<rect id="SVGID_49_" x="-734.2" y="-1941.5" width="2492.5" height="3354.4"/>
		</defs>
		<clipPath id="SVGID_50_">
			<use xlink:href="#SVGID_49_"  style="overflow:visible;"/>
		</clipPath>
		<rect x="496.4" y="540.2" class="st25" width="34.6" height="34.6"/>
	</g>
</g>
<g>
	<defs>
		<rect id="SVGID_51_" x="-734.2" y="-1941.5" width="2492.5" height="3354.4"/>
	</defs>
	<clipPath id="SVGID_52_">
		<use xlink:href="#SVGID_51_"  style="overflow:visible;"/>
	</clipPath>
	<circle class="st26" cx="513.7" cy="557.5" r="8.7"/>
</g>
<g>
	<defs>
		<circle id="SVGID_53_" cx="513.7" cy="349.2" r="8.7"/>
	</defs>
	<clipPath id="SVGID_54_">
		<use xlink:href="#SVGID_53_"  style="overflow:visible;"/>
	</clipPath>
	<g class="st27">
		<defs>
			<rect id="SVGID_55_" x="-734.2" y="-1941.5" width="2492.5" height="3354.4"/>
		</defs>
		<clipPath id="SVGID_56_">
			<use xlink:href="#SVGID_55_"  style="overflow:visible;"/>
		</clipPath>
		<rect x="496.4" y="331.9" class="st28" width="34.6" height="34.6"/>
	</g>
</g>
<g>
	<defs>
		<rect id="SVGID_57_" x="-734.2" y="-1941.5" width="2492.5" height="3354.4"/>
	</defs>
	<clipPath id="SVGID_58_">
		<use xlink:href="#SVGID_57_"  style="overflow:visible;"/>
	</clipPath>
	<circle class="st29" cx="513.7" cy="349.2" r="8.7"/>
</g>
</svg>
