<?xml version="1.0" encoding="utf-8"?>
<!-- Generator: Adobe Illustrator 19.2.1, SVG Export Plug-In . SVG Version: 6.00 Build 0)  -->
<svg version="1.1" id="Layer_1" xmlns="http://www.w3.org/2000/svg" xmlns:xlink="http://www.w3.org/1999/xlink" x="0px" y="0px"
	 viewBox="0 0 1388.5 447" style="enable-background:new 0 0 1388.5 447;" xml:space="preserve">
<style type="text/css">
	.st0{fill:#FFFFFF;}
	.st1{fill:#494949;}
</style>
<rect y="-4" class="st0" width="1408.5" height="451"/>
<path class="st1" d="M1394.5,13.6c0,146.5,0,292.9,0,439.4c-466.7,0-933.3,0-1400,0c0-148.3,0-296.6,0-444.9c0.8,0.2,1.9,0,2.3,0.5
	c2.1,2.2,4.7,2.3,7.4,2c1.5-0.2,3.2,0,3.2,1.9c0,0.7-1.5,1.5-2.2,2.2c1,0.5,2.4,1.3,3.9,1.7c2,0.5,4.1,0.9,6.1,0.9
	c2.4,0,4.7-3.5,4.6-6.4c-0.1-3.5,1.7-4.8,4.9-3.5c0.5,0.2,1.3,0.6,1.5,0.4c1.4-1.3,2.6-0.5,4.1-0.3c2,0.2,3.8,1.5,5.4,1.7
	c3.9,0.5,8.2,1.9,11.6-1.8c0.5-0.6,1.9-0.8,2.7-0.5c0.6,0.2,1,1.4,1.2,2.2c0.4,1.6,0.5,3.3,1.1,4.9c0.2,0.7,1.2,1.6,1.8,1.5
	c3.1-0.1,6.1-0.4,9.1-1c1.2-0.2,2.7-1,3.3-2.1c0.9-1.6,2.2-2,3.7-2.1c2.3-0.1,4.7-0.3,6.9,0c1.3,0.2,2.5,1.3,3.7,2
	c0.5,0.3,1.1,0.5,2.1,0.9c0-2,0-3.6,0-5.2c0.1-3.9,1.4-5,5.1-4.8C90,3.4,91.7,3,93.3,2.7c1.3-0.2,2.3-0.5,3,1.2c0.9,2.2,2,4.2,1,6.7
	c-0.3,0.7,0.4,2,1,2.7c1.3,1.3,3,2.2,4.4,3.4c1.7,1.6,3.4,1.4,4.8-0.4c0.7-0.9,1.8-1.5,2.8-2.2c0.5,0.8,1.1,1.6,1.8,2.6
	c0.6-0.4,1.2-0.8,1.6-1c-0.2-1.1-0.3-1.8-0.3-2.6c0-0.1,1-0.3,1.1-0.2c0.3,0.6,0.6,1.3,0.7,2c0.2,0.8,0.1,1.7,0.4,2.5
	c0.2,0.5,0.7,1.4,1,1.4c0.6-0.1,1.6-0.6,1.7-1.1c0.7-3,2.8-2.6,4.9-2.3c3,0.4,6,1,9,1.5c1.7,0.3,4.6,2.5,4,3.4
	c-1.3,2.2,0.9,2.9,1.6,4.2c0.2,0.3,1.8,0.1,2.5-0.3c1.2-0.7,2.1-2.1,3.3-2.5c3.2-1.1,5.1-3.3,6.8-6c1.4-2.2,3.2-3.8,6-4
	c1.5-0.1,3-0.9,4.4-1.5c3.5-1.6,7.4-0.7,9.6,2.4c0.5,0.8,0.8,1.7,1.3,2.9c0.5-0.7,0.8-1.1,1.2-1.6c2-2.3,4.1-0.7,5.9,0.2
	c1,0.5,2.4,2.4,2.2,3.2c-0.9,3.1,1.6,3.9,3,5.3c0.3,0.3,1.6,0,2.2-0.3c1.5-0.9,2.8-2.5,4.4-2.9c2.5-0.8,5.4-2.9,7.4,1
	c0.2,0.4,1.7,0.3,2.4,0.1c0.5-0.2,0.6-1.1,1-1.7c0.5-0.6,1-1.3,1.6-1.6c0.6-0.3,1.5-0.2,2.1-0.4c4.1-1.7,8.1-4.2,12.8-2.7
	c1.9,0.6,3.8,1.5,5.6,2.3c1,0.5,1.9,1.7,2.9,1.8c3.3,0.4,2.8,3.9,4.6,5.4c0.1,0.1-0.1,0.8-0.3,1c-1.6,1.3-3.3,2.5-5.6,4.2
	c1.7,0.6,2.9,1.4,3.8,1.2c1.3-0.4,3.1-1.5,3.3-2.5c0.6-2.6,2.3-3.8,4.3-4.9c2.7-1.4,5.6-1,8.2,0.1c1,0.4,1.3,2.2,2.3,4
	c4.4-2.3,9.2-4.7,14-7.2c-0.3-0.4-0.6-1-1.1-1.6c-0.9-1-0.7-1.8,0.4-2.5c1.1-0.6,2.1-1.7,3.2-1.7c1.9,0,3.8,0.6,5.6,1.2
	c0.2,0.1,0,1.8-0.3,2.6c-0.1,0.5-0.8,0.7-1.8,1.4c2.7,0,4.9,0.6,6.5-0.1c2.5-1.2,4.2,0.2,5.5,1.4c1.4,1.4-0.4,2.7-1.4,3.8
	c-0.1,0.1-0.1,0.3-0.2,0.9c0.9,0.2,1.9,0.7,2.8,0.6c3.9-0.4,7.7-1.1,9.8,4c1.5-1.4,2.7-2.6,4-3.8c0.5-0.5,1-1.2,1.6-1.4
	c1.9-0.8,3.8-1.5,5.8-2.1c1.4-0.4,2.9-1.1,4.3-1c2,0.1,4,0.8,6.1,0.9c4.3,0.2,5.5,1.1,7,5.3c0.2,0.6,0.5,1.6,0.9,1.7
	c2.7,0.4,4.8,3,7.9,2.2c1.5-0.4,2.4,0.3,2.9,1.9c0.2,0.8,1.7,2,2,1.8c2.5-1.3,5.7-1.5,7.4-4.3c1-1.6,3.1-2.1,4.6-0.9
	c0.6,0.4,0.9,1.2,1.5,2.1c2-3.3,3.9-0.6,5.7-0.7c2.4-0.2,4,0.7,5,3.4c1.3-1.7,2.3-2.9,3.3-4.1c1.1,1.8,1.1,1.8,4.2,3.1
	c0.5,0.2,0.9,0.5,1.2,0.8c1.1,1.1,2.1,2.4,3.3,3.5c2,1.8,4,2.1,5.4,0.1c2.5-3.5,6.3-3.5,9.6-3.5c3.2,0,6.5,1.3,9.5,2.6
	c3.7,1.6,7.2,3.6,9.1,7.6c0.6,1.2,1.7,1.2,2.4-0.2c1.1-2.4,3-3.1,5.5-2.5c2.7,0.7,5.5,1,8.3,1.4c1.7,0.2,3.3,0.4,5.5,0.6
	c0.8-0.6,2-1.6,3.3-2.5c1.1-0.8,2.1-1.7,3.3-2c0.8-0.2,1.8,0.6,2.7,1c-0.7,0.6-1.4,1.1-2.1,1.7c-0.1,0.1-0.2,0.2-0.3,0.4
	c1.4,2.5,3,2.5,5.7-0.2c-0.3-0.3-0.8-0.5-0.8-0.8c-0.1-1.2-0.1-2.4-0.2-3.6c1,0,2-0.1,3,0c0.6,0,1.3,0.5,1.9,0.4
	c2.1-0.2,3.5,0.3,3.2,3.4c2.9-0.8,5.5-1.5,8.1-2.3c2-0.6,3.9-1.5,5.8-2.2c0.6-0.2,1.5-0.4,1.7-0.9c0.9-2,1.8-4,2.3-6.1
	c0.6-2.1,2.6-4.5,4-3.8c1.7,0.9,3.7,2.4,4.4,4.1c1,2.4,0.9,5.3,1.3,8c0.1,0.6,0.4,1.6,0.7,1.6c0.6,0,1.6-0.2,2-0.7
	c1.8-2.3,3.5-4.7,5.3-7c0.2-0.3,0.7-0.5,0.6-0.4c0.8,2.5,1.6,4.9,2.4,7.3c0.3,0.8,0.9,2.1,1.1,2.1c2.9-0.5,4.9,0.9,6.8,2.8
	c0.1,0.2,0.5,0.1,0.7,0.2c2.3,0.7,4.7,1.2,6.8,2.2c1.2,0.6,1.8,0.7,3.1,0c2.7-1.5,5.7-2.1,8.6-0.5c2.4,1.3,4.8,2.8,7.3,4
	c1,0.5,2.5,0.2,3.3,0.8c2.8,2.4,5.7,1.8,8.8,1.1c0.7-0.1,1.9,0,2.2,0.4c0.4,0.5,0.1,1.6,0.1,2.7c2.1,0.4,4.6,1.7,6.5,1.1
	c2.4-0.8,3.8-0.4,4.9,1.2c1.3-0.1,2.6-0.6,3.3-0.1c2,1.4,3.8,0.6,5.5-0.1c8.9-3.6,17.7-7.3,26.5-11.1c2.4-1.1,4.5-2.8,6.8-4.3
	c-1.3-0.7-2.2-1.1-3-1.5c0-0.3,0.1-0.6,0.1-0.8c1.1-0.4,2.3-1.1,3.4-1.1c3-0.2,6,0,9.1-0.1c1.6,0,2.3,0.6,1.5,2.1
	c-1,2,0.1,3,1.7,3.7c2.5,1.1,5,2.3,7.6,3.3c9.1,3.4,18.3,6.8,27.5,10.1c4.2,1.5,8.3,2.9,12.6,4.1c8.1,2.3,16.2,4.4,24.3,6.4
	c7.2,1.8,14.4,3.5,21.7,4.8c7,1.3,14.2,2.2,21.3,3.2c7.4,1,14.9,2.1,22.3,2.8c7.6,0.6,15.2,1,22.9,1c10,0.1,19.9-0.2,29.9-0.6
	c6.7-0.2,13.3-0.9,20-1.4c3.7-0.3,7.3-0.7,11-1.1c2.8-0.3,5.6-0.7,8.4-1.1c3.5-0.5,6.9-1.2,10.4-1.7c4.8-0.8,9.7-1.5,14.5-2.6
	c5.6-1.3,11.2-2.9,16.7-4.5c7.8-2.2,15.5-4.4,23.2-6.8c6.2-2,12.3-4.2,18.3-6.5c3.4-1.3,6.6-3.1,9.9-4.6c0-0.2-0.1-0.3-0.1-0.5
	c-1.7,0.1-3.5,0.3-5.2,0.4c-0.1-0.3-0.1-0.5-0.2-0.8c0.7-0.3,1.5-0.6,2.2-1c3.6-1.6,7.4-0.4,11.2-0.6c1.9-0.1,2.2,0.6,1.9,2.5
	c-0.2,1,0.4,2.9,1.2,3.3c4,2.2,8.3,4,12.5,6c1.6-4.9,2.2-5.4,4.8-3.9c0.8-1.5,0.4-3.9,3-4c0.5,0,3.7-0.1,4.6,0.1
	c0.2,0,0.3,0,0.5,0.1c1.5,0.4,2.3,1.4,1.8,2.8c-1,3-0.8,5.7,1.4,8c0.6,0.7,1.7,1.3,2.5,1.2c2.8-0.1,5.6-0.8,8.4-0.8
	c5.2,0,5.1-1.1,5.5,4.7c0,0.1,0.2,0.2,0.5,0.4c0.5-0.5,1.2-1,1.4-1.7c0.8-3.5,3.4-5.7,5.8-8.1c2.4-2.4,7.8-2.2,10.1,0.4
	c1.8-1.8,4-2.3,6.4-1c0.3,0.2,1,0.1,1.2-0.1c1.9-2.6,4.2-1.2,6.3-0.5c3,0.9,3.2,0.9,4.3-2.1c0.9-2.7,2.3-4.9,5.9-4.9
	c0-1.8-0.1-3.4,0-5.1c0.1-0.8,0.5-2.1,1-2.2c0.9-0.2,2.1,0.1,3.1,0.5c0.4,0.1,0.6,0.9,0.8,1.2c1.3-0.7,2.4-1.2,3.5-1.9
	c3.3-2,7.8,0.4,10.7-2.9c0.1-0.1,0.3,0,0.5,0c4.9,0,9.7,0,14.6,0.1c0.7,0,1.8,0.7,2.1,1.3c1.2,2.4,2.1,4.9,3.3,8
	c1.1-0.4,2.5-0.9,3.8-1.4c0.8-0.3,1.5-0.6,2.3-0.9c3-1,5.9,0,8.9,0.3c0.9,0.1,2.6-0.4,2.7-0.9c0.5-3.1,2.1-2.8,4-1.4
	c1.8-4.6,5.2-2,7.8-2.5c0.8-0.7,1.8-1.6,2.6-1.6c3,0.2,5.9,0.9,8.9,1.2c2,0.2,4,0.4,5.9-0.1c1.5-0.3,2.9-1.5,4.3-2.4
	c0.5-0.3,1.1-0.9,1.2-1.4c0.3-1.8,1.4-2.4,3-2.4c4.9-0.2,9.7-0.4,14.6-0.5c0.8,0,1.7,0.6,2.4,1c1.2,0.7,2.2,1.6,3.3,2.4
	c1.8-2.5,1.8-2.3,4.9-2.1c3.8,0.2,7.6,0.1,11.3,0.1c0.5,0,1.1-0.2,1.4-0.5c1.7-2.3,2.7-1.4,3.8,0.6c0.4,0.7,1.5,1.3,2.2,1.2
	c0.6-0.1,1.1-1.1,1.7-1.8c0.2-0.3,0.4-0.7,1-1.5c0.6,1.4,1,2.3,1.4,3.3c0.4,0.9,0.7,1.9,1.2,2.7c0.3,0.5,1,0.7,1.6,1.1
	c0.3-0.5,0.7-1,0.9-1.6c0.6-1.9,1.3-3.5,3.6-3.6c0.4,0,1-0.4,1.2-0.7c1-1.7,2.4-1.2,4-1c2.3,0.4,4.6,0.6,6.9,0.6
	c0.6,0,1.5-0.8,1.8-1.4c1.3-3,1.7-3.1,4.7-1.6c0.9,0.4,2.3,0.9,2.9,0.5c2.2-1.3,4.1-1.7,6.6-0.6c1.7,0.7,3.9-0.8,3.4-2.1
	c-0.8-2.2-1.9-4.4-2.9-6.5c-0.3-0.6-0.6-1.2-1-1.9c2.5-1.1,5.3,0.7,7-2.1c-0.3-0.3-0.4-0.6-0.7-0.7c-2.3-1.2-2.2-2.6-0.7-4.4
	c2.5-3,6.1-3.7,9.5-4.8c0.6-0.2,1.7,0.1,2.1,0.6c2,2.1,4.4,2.2,6.9,1.9c1.6-0.2,3.3-0.1,3.4,1.9c0,0.7-1.5,1.5-2.2,2.1
	c1.1,0.5,2.5,1.4,4.1,1.8c2.1,0.5,4.3,1,6.3,0.7c2.7-0.3,4.2-3.4,4.3-6.6c0-1.1,0.9-3.1,1.6-3.2c2.6-0.4,5.3-0.4,7.8-0.1
	c2.4,0.3,4.7,1.5,6.9,1.9c3.7,0.7,8,1.7,11.3-1.9c1.6-1.7,3.5-0.8,3.8,1.6c0.1,0.6,0.1,1.2,0.2,1.8c1.2,5.3,1.3,5.6,5.6,4.5
	c0.4-0.1,0.8-0.1,1.3,0c3.7,0.2,6.9-0.5,9.2-3.9c0.3-0.4,1-0.7,1.5-0.7c3-0.1,5.9-0.3,8.9-0.1c1.1,0.1,2,1.1,3.1,1.7
	c0.6,0.3,1.2,0.6,2.1,1c0.1-2.3,0.1-4.2,0.3-6c0.5-3.8,1.1-4.2,4.8-4c1.7,0.1,3.4-0.4,5.1-0.7c1.2-0.2,2.2-0.3,2.8,1.2
	c0.9,2.2,2.1,4.2,0.9,6.7c-0.6,1.4,0.1,2.3,1.5,3c1.2,0.6,2.4,1.4,3.3,2.4c2.2,2.5,3.8,2.5,5.8-0.1c0.7-0.8,1.8-1.3,2.7-2
	c0.4,0.8,0.9,1.6,1.4,2.7c0.6-0.3,1.3-0.7,1.7-1c-0.2-1.1-0.3-1.9-0.3-2.6c0-0.1,1-0.3,1-0.3c0.3,0.7,0.6,1.4,0.8,2.2
	c0.1,0.6,0,1.4,0.2,2c0.2,0.6,0.7,1.2,1,1.8c0.6-0.4,1.7-0.7,1.8-1.3c0.8-3,3-2.4,5-2.1c2.8,0.4,5.7,1.1,8.5,1.4
	c3,0.3,4.8,2.6,3.8,4.9c0.6,0.8,1.1,1.9,1.9,2.3c0.7,0.4,2,0.4,2.7,0.1c1.3-0.7,2.2-2.2,3.5-2.6c3.1-1,4.9-3.2,6.6-5.8
	c1.4-2.2,3.1-3.8,5.9-4.1c1.6-0.2,3.2-0.9,4.7-1.6c3.2-1.5,6.9-0.8,9.1,2c0.7,0.9,1.1,2,1.7,3c2.9-2.5,2.9-2.5,6.7-1.3
	C1394,13.5,1394.3,13.6,1394.5,13.6z M610,84.5c-0.5,2.8-1.3,5.5-1.4,8.2c-0.2,5.9-0.1,11.8,0.1,17.7c0,1.1,0.6,2.3,1.3,3.1
	c1.8,1.8,3.9,3.3,5.9,4.9c1.7,1.3,4.7,0.5,6-1.1c0.9-1.1,2.4-1.8,3.6-2.6c0.6,1,1.7,1.9,1.8,3c0.6,4.1,3.2,6.5,6.1,8.8
	c0.9,0.7,1.9,1.9,2.1,3c0.3,2.1,1.7,2.6,3.3,3.3c2.4,1.2,3.9-0.9,5.7-1.5c2.5-0.8,2.9-0.8,3.7,1.9c0.3,0.8,0.9,1.6,1.3,2.4
	c0.6,1.2,1.1,2.5,1.8,3.7c0.3,0.6,0.8,1.4,1.3,1.5c1.8,0.2,3.6,0.1,5.4,0.2c3.4,0.1,4.8,2,3.7,5.2c-0.8,2.2,1,3.1,2.3,4
	c0.6,0.4,2.3,0,2.9-0.7c1.6-1.6,3-1.9,4.8-0.5c0.7,0.5,1.7,0.7,2.4,1.2c0.5,0.4,1.3,1,1.3,1.5c0,0.7-0.5,1.6-1,2.1
	c-0.2,0.2-1.1-0.2-1.6-0.4c-0.7-0.2-1.3-0.5-1.9-0.8c-0.2,0.2-0.4,0.5-0.6,0.7c0.6,0.8,1.1,1.8,1.9,2.3c1,0.7,2.4,0.7,3.4,1.4
	c5.5,3.6,11.3,2.4,17.2,1.6c1.2-0.2,2.9,0,3.7,0.8c1.3,1.2,1.9,0.9,2.9-0.1c2.1-2.1,6.3-2.8,9-1.6c2.4,1.1,2.6,0.9,3.2-1.8
	c0.2-0.8,1-1.5,1.5-2.3c0.5,0.8,0.9,1.6,1.4,2.4c0.3,0.7,0.6,2,0.9,2c2.1-0.1,4.3-0.1,6.2-0.9c2.8-1.2,5.3-3.1,8.6-3
	c1.1,0,2.4-0.6,3.3-1.4c1.3-1.1,2.4-1.4,3.7,0c1.5,1.5,3.1,1.8,4.9,0.2c0.6-0.5,1.5-0.5,2.3-0.8c0.7-0.3,1.4-0.5,2-1
	c2.1-1.7,4-4,6.4-5c2.1-0.8,4.2-1.2,5.7-3.1c0.3-0.4,1-0.6,1.6-0.7c2.5-0.4,4-2.1,5.6-3.9c1.8-2,3.6-4.6,5.9-5.2
	c4.8-1.3,6.8-4,7.1-8.7c0-0.6,1.3-1.6,1.7-1.5c2.2,0.6,2.7-0.9,3.4-2.3c0.5-1,0.8-2.1,1.6-2.8c2.7-2.4,6-3,9.4-2.4
	c1-2.1,2.9-4.1,2.9-6.1c0-3.1,1.7-4.9,3-7.2c1.2-2.2,2.2-2.4,3.3-0.3c1.1,2.1,3,2,4.2,1.1c2-1.6,3.5-1.4,5.5,0.6
	c0.8-1.6,1.4-2.9,2-4.2c0.4-0.9,0.8-1.9,1.4-2.6c1.3-1.4,2.8-2.5,4.1-3.9c1.7-1.8,2.7-4.5,5.8-4.3c0.1,0,0.3-0.5,0.7-1.1
	c-1.8-0.2-3.3-0.5-4.8-0.5c-8.9-0.2-17.8-0.2-26.7-0.4c-12-0.3-24-0.8-36-1c-16.3-0.2-32.6,0-48.8-0.2c-9.5-0.1-19-0.7-28.5-0.8
	c-15.7-0.2-31.4-0.1-47.1-0.1C627.1,84.5,618.5,84.5,610,84.5z M597.4,78.9c3,0,5.7,0,8.4,0c0.8,0,1.6,0.3,2.4,0.5
	c1.1,0.4,2.2,1,3.3,1.2c2.1,0.2,4.2,0.1,6.3,0.1c16.3,0.1,32.6,0.1,48.8,0.2c5.8,0,11.6,0,17.4,0c8.7,0,17.4-0.1,26.1,0.1
	c7.2,0.1,14.4,0.4,21.6,0.6c0.6,0,1.3-0.1,1.9-0.1c-47.5-4.8-93.2-16.2-137.7-35C596.4,57.5,596.9,67.9,597.4,78.9z M581.2,46.6
	c-0.6,0.1-1.3,0.2-2,0.5c-6.9,2.9-13.8,5.8-20.7,8.8c-3,1.3-5.9,2.6-8.8,4.2c-1.5,0.8-2,2.3-0.2,3.3c2,1.2,1.7,2.6,1,4.3
	c-0.3,0.8-0.3,1.7-0.5,2.8c1.4-0.7,2.3-1.1,3.1-1.6c0.5,1.4,0.9,2.8,1.4,4.4c0.4,0,1.1,0.2,1.7,0c3-1.2,6-1.4,8.9,0.3
	c0.5,0.3,1.3,0.1,1.9-0.1c2.9-0.9,3.8-0.2,4.2,2.9c0.1,0.7,0.8,1.9,1.3,2c2,0.2,4.1,0.1,6.3,0.1C579.6,67.7,580.4,57.3,581.2,46.6z
	 M859.2,81.5c2-0.4,3.6-0.5,4.9-1c1.3-0.5,2.9-1.2,3.4-2.3c1.2-2.3,1.6-5,2.6-7.4c1-2.4,5.1-3.5,7.2-2c1.7,1.2,3.2,2.6,4.3,3.4
	c2.6-2,4.8-4.3,7.4-5.7c3.1-1.6,6.2-0.4,8.3,1.4c2.1-1,3.8-1.7,5.3-2.6c0.9-0.5,2-1.2,2.2-2c1-4.2,3.1-6.2,7.5-7.2
	c0.7-0.2,1.2-1.1,1.8-1.7c-0.2-0.2-0.4-0.5-0.6-0.7c-19.4,7.8-39.2,14.1-60,18.5c1.2,1.1,2.2,1.7,2.6,2.5
	C857.4,77,858.2,79.3,859.2,81.5z M787.1,82.3c17.2-0.4,34.4,1.6,51.6,0.1c0.7-2.1,1.5-4.4,2.3-6.7
	C823.1,77.9,805.1,80.1,787.1,82.3z M938.2,61c-0.3,2.2-0.6,4.2-0.9,6.2c0.9,0,1.8,0,2.6,0c0.4-1.5,1.1-2.8,1.1-4.1
	C941.1,61.5,940,60.6,938.2,61z"/>
</svg>
