<?xml version="1.0" encoding="utf-8"?>
<!-- Generator: Adobe Illustrator 19.2.1, SVG Export Plug-In . SVG Version: 6.00 Build 0)  -->
<svg version="1.1" id="Layer_1" xmlns="http://www.w3.org/2000/svg" xmlns:xlink="http://www.w3.org/1999/xlink" x="0px" y="0px"
	 viewBox="0 0 512 512" style="enable-background:new 0 0 512 512;" xml:space="preserve">
<style type="text/css">
	.st0{fill:#FFFFFF;}
</style>
<g>
	<g>
		<g>
			<g>
				<path class="st0" d="M224.5,222.9c0-15.2-10.3-15.2-10.3-15.2h-5.5h-37.1h0v32.6h39.9C218.5,240.3,224.5,238.1,224.5,222.9z"/>
				<path class="st0" d="M323.2,240.3c-22.6,0-25.7,22.5-25.7,22.5h48C345.5,262.8,345.8,240.3,323.2,240.3z"/>
				<path class="st0" d="M214.2,262.8h-42.5v39.1h37.7c0.6,0,1.6,0,2.7,0c6.1-0.1,17.6-1.9,17.6-19
					C229.6,262.6,214.2,262.8,214.2,262.8z"/>
				<path class="st0" d="M256,57.4C146.5,57.4,57.4,146.5,57.4,256S146.5,454.6,256,454.6S454.6,365.5,454.6,256
					S365.5,57.4,256,57.4z M291.1,190.3h60.3v18h-60.3V190.3z M260.6,284.7c0,44.6-46.4,43.2-46.4,43.2h-42.5h-1.2h-32.3V181.7h32.3
					h1.2h42.5c23.1,0,41.4,12.8,41.4,38.9c0,26.2-22.3,27.8-22.3,27.8C262.7,248.4,260.6,284.7,260.6,284.7z M373.5,282.3h-75.8
					c0,27.2,25.7,25.4,25.7,25.4c24.3,0,23.4-15.7,23.4-15.7h25.7c0,41.7-50,38.9-50,38.9c-60,0-56.2-55.9-56.2-55.9
					s0-56.2,56.2-56.2C381.8,218.9,373.5,282.3,373.5,282.3z"/>
			</g>
		</g>
	</g>
</g>
</svg>
