<?xml version="1.0" encoding="utf-8"?>
<!-- Generator: Adobe Illustrator 19.2.1, SVG Export Plug-In . SVG Version: 6.00 Build 0)  -->
<svg version="1.1" id="Layer_1" xmlns="http://www.w3.org/2000/svg" xmlns:xlink="http://www.w3.org/1999/xlink" x="0px" y="0px"
	 viewBox="0 0 512 512" style="enable-background:new 0 0 512 512;" xml:space="preserve">
<style type="text/css">
	.st0{fill:#FFFFFF;}
</style>
<g>
	<g>
		<g>
			<path class="st0" d="M256,57.4C146.5,57.4,57.4,146.5,57.4,256S146.5,454.6,256,454.6S454.6,365.5,454.6,256S365.5,57.4,256,57.4
				z M344.6,210.5c0.1,2,0.1,4,0.1,5.9c0,60.4-46,130.1-130.1,130.1c-25.8,0-49.8-7.6-70.1-20.5c3.6,0.4,7.2,0.6,10.9,0.6
				c21.4,0,41.1-7.3,56.8-19.6c-20-0.4-36.9-13.6-42.7-31.8c2.8,0.5,5.7,0.8,8.6,0.8c4.2,0,8.2-0.6,12-1.6
				c-20.9-4.2-36.7-22.7-36.7-44.8c0-0.2,0-0.4,0-0.6c6.2,3.4,13.2,5.5,20.7,5.7c-12.3-8.2-20.3-22.2-20.3-38c0-8.4,2.2-16.2,6.2-23
				c22.5,27.7,56.2,45.9,94.2,47.8c-0.8-3.4-1.2-6.8-1.2-10.4c0-25.2,20.5-45.7,45.7-45.7c13.1,0,25,5.6,33.4,14.4
				c10.4-2,20.2-5.8,29-11.1c-3.4,10.7-10.7,19.6-20.1,25.3c9.3-1.1,18.1-3.6,26.3-7.2C361.3,196.1,353.5,204.1,344.6,210.5z"/>
		</g>
	</g>
</g>
</svg>
