<?xml version="1.0" encoding="utf-8"?>
<!-- Generator: Adobe Illustrator 19.2.1, SVG Export Plug-In . SVG Version: 6.00 Build 0)  -->
<svg version="1.1" id="Layer_1" xmlns="http://www.w3.org/2000/svg" xmlns:xlink="http://www.w3.org/1999/xlink" x="0px" y="0px"
	 viewBox="0 0 264.2 51.3" style="enable-background:new 0 0 264.2 51.3;" xml:space="preserve">
<style type="text/css">
	.st0{clip-path:url(#SVGID_2_);fill:#29B99A;}
	.st1{clip-path:url(#SVGID_4_);fill:#4A494A;}
	.st2{fill:none;}
	.st3{opacity:0.8;}
	.st4{clip-path:url(#SVGID_6_);fill:#29B99A;}
	.st5{fill:#FFFFFF;}
	.st6{fill:#20B898;}
	.st7{fill:#4A494A;}
</style>
<g class="st3">
	<defs>
		<path id="SVGID_5_" class="st3" d="M1.2,8.4c0-3.9,3.1-7,7-7h248.2c3.9,0,7,3.1,7,7v34.4c0,3.9-3.1,7-7,7H8.2c-3.9,0-7-3.1-7-7
			V8.4z"/>
	</defs>
	<clipPath id="SVGID_2_">
		<use xlink:href="#SVGID_5_"  style="overflow:visible;"/>
	</clipPath>
	<rect x="-3.8" y="-3.6" class="st0" width="272.2" height="58.4"/>
</g>
<g>
	<path class="st5" d="M63.8,32.1V17.5H69c1.2,0,2.2,0.2,3.1,0.6s1.6,0.9,2.2,1.6c0.6,0.7,1,1.4,1.3,2.3c0.3,0.9,0.5,1.8,0.5,2.8
		c0,1.1-0.2,2.1-0.5,3c-0.3,0.9-0.8,1.7-1.4,2.3c-0.6,0.6-1.4,1.1-2.2,1.5c-0.9,0.4-1.9,0.5-2.9,0.5H63.8z M73.8,24.8
		c0-0.8-0.1-1.5-0.3-2.1c-0.2-0.6-0.5-1.2-0.9-1.7s-0.9-0.8-1.5-1.1c-0.6-0.3-1.3-0.4-2-0.4h-2.9v10.5H69c0.8,0,1.5-0.1,2-0.4
		c0.6-0.3,1.1-0.6,1.5-1.1c0.4-0.5,0.7-1,0.9-1.7S73.8,25.5,73.8,24.8z"/>
	<path class="st5" d="M83.2,32.3c-0.9,0-1.6-0.2-2.3-0.5c-0.7-0.3-1.3-0.7-1.7-1.2c-0.5-0.5-0.9-1.1-1.1-1.8
		c-0.3-0.7-0.4-1.4-0.4-2.1c0-0.7,0.1-1.5,0.4-2.1c0.3-0.7,0.6-1.3,1.1-1.8c0.5-0.5,1.1-0.9,1.8-1.2c0.7-0.3,1.4-0.5,2.3-0.5
		s1.6,0.2,2.3,0.5c0.7,0.3,1.3,0.7,1.8,1.2c0.5,0.5,0.9,1.1,1.1,1.8c0.3,0.7,0.4,1.4,0.4,2.1c0,0.7-0.1,1.5-0.4,2.1
		c-0.3,0.7-0.6,1.3-1.1,1.8c-0.5,0.5-1.1,0.9-1.8,1.2C84.8,32.1,84,32.3,83.2,32.3z M79.9,26.7c0,0.5,0.1,1,0.2,1.4
		c0.2,0.4,0.4,0.8,0.7,1.1c0.3,0.3,0.6,0.6,1,0.8c0.4,0.2,0.8,0.3,1.3,0.3c0.5,0,0.9-0.1,1.3-0.3s0.7-0.4,1-0.8
		c0.3-0.3,0.5-0.7,0.7-1.2c0.2-0.4,0.2-0.9,0.2-1.4c0-0.5-0.1-1-0.2-1.4c-0.2-0.4-0.4-0.8-0.7-1.2c-0.3-0.3-0.6-0.6-1-0.8
		s-0.8-0.3-1.3-0.3c-0.4,0-0.9,0.1-1.2,0.3c-0.4,0.2-0.7,0.5-1,0.8c-0.3,0.3-0.5,0.7-0.7,1.2C80,25.7,79.9,26.2,79.9,26.7z"/>
	<path class="st5" d="M103.8,21.3h2.2l-4.6,10.8h-1.9l-2-5l-2,5h-1.9l-4.5-10.8h2.1l3.5,8.6l1.6-4l-1.9-4.6h1.9l1.2,3.4l1.2-3.4h1.9
		l-1.9,4.6l1.6,4L103.8,21.3z"/>
	<path class="st5" d="M117.1,32.1h-2.3v-6c0-1-0.2-1.8-0.5-2.2c-0.3-0.5-0.8-0.7-1.4-0.7c-0.3,0-0.7,0.1-1,0.2
		c-0.3,0.1-0.6,0.3-0.9,0.5c-0.3,0.2-0.5,0.5-0.8,0.8c-0.2,0.3-0.4,0.6-0.5,1v6.4h-2.3V21.3h2.1v2.2c0.4-0.7,1-1.3,1.8-1.7
		s1.6-0.6,2.6-0.6c0.6,0,1.2,0.1,1.6,0.4s0.7,0.6,1,1s0.4,0.9,0.5,1.4c0.1,0.5,0.1,1.1,0.1,1.7V32.1z"/>
	<path class="st5" d="M119.7,17.1h2.3v11.9c0,0.4,0.1,0.7,0.3,0.9s0.5,0.3,0.9,0.3c0.2,0,0.3,0,0.5-0.1c0.2,0,0.4-0.1,0.6-0.2
		l0.3,1.8c-0.3,0.2-0.7,0.3-1.2,0.4c-0.5,0.1-0.9,0.1-1.2,0.1c-0.8,0-1.4-0.2-1.8-0.6c-0.4-0.4-0.7-1-0.7-1.8V17.1z"/>
	<path class="st5" d="M130.6,32.3c-0.9,0-1.6-0.2-2.3-0.5c-0.7-0.3-1.3-0.7-1.7-1.2c-0.5-0.5-0.9-1.1-1.1-1.8
		c-0.3-0.7-0.4-1.4-0.4-2.1c0-0.7,0.1-1.5,0.4-2.1s0.6-1.3,1.1-1.8c0.5-0.5,1.1-0.9,1.8-1.2c0.7-0.3,1.4-0.5,2.3-0.5
		c0.8,0,1.6,0.2,2.3,0.5c0.7,0.3,1.3,0.7,1.8,1.2c0.5,0.5,0.9,1.1,1.1,1.8c0.3,0.7,0.4,1.4,0.4,2.1c0,0.7-0.1,1.5-0.4,2.1
		c-0.3,0.7-0.6,1.3-1.1,1.8c-0.5,0.5-1.1,0.9-1.8,1.2C132.2,32.1,131.5,32.3,130.6,32.3z M127.4,26.7c0,0.5,0.1,1,0.2,1.4
		s0.4,0.8,0.7,1.1c0.3,0.3,0.6,0.6,1,0.8c0.4,0.2,0.8,0.3,1.3,0.3s0.9-0.1,1.3-0.3s0.7-0.4,1-0.8c0.3-0.3,0.5-0.7,0.7-1.2
		c0.2-0.4,0.2-0.9,0.2-1.4c0-0.5-0.1-1-0.2-1.4c-0.2-0.4-0.4-0.8-0.7-1.2c-0.3-0.3-0.6-0.6-1-0.8s-0.8-0.3-1.3-0.3
		c-0.4,0-0.9,0.1-1.2,0.3c-0.4,0.2-0.7,0.5-1,0.8c-0.3,0.3-0.5,0.7-0.7,1.2C127.5,25.7,127.4,26.2,127.4,26.7z"/>
	<path class="st5" d="M141,32.3c-0.5,0-1-0.1-1.5-0.3c-0.4-0.2-0.8-0.4-1.2-0.7c-0.3-0.3-0.6-0.7-0.8-1.1c-0.2-0.4-0.3-0.9-0.3-1.3
		c0-0.5,0.1-1,0.3-1.4s0.5-0.8,0.9-1.1s0.9-0.5,1.4-0.7c0.6-0.2,1.2-0.2,1.8-0.2c0.5,0,1,0,1.5,0.1c0.5,0.1,0.9,0.2,1.3,0.4v-0.7
		c0-0.8-0.2-1.4-0.7-1.9s-1.1-0.7-2-0.7c-0.6,0-1.1,0.1-1.7,0.3c-0.6,0.2-1.1,0.5-1.7,0.9l-0.7-1.4c1.4-0.9,2.8-1.4,4.3-1.4
		c1.5,0,2.6,0.4,3.5,1.1c0.8,0.8,1.2,1.8,1.2,3.3v3.9c0,0.3,0,0.4,0.1,0.6c0.1,0.1,0.3,0.2,0.5,0.2v1.9c-0.2,0-0.4,0.1-0.6,0.1
		s-0.4,0-0.5,0c-0.4,0-0.8-0.1-1-0.3c-0.2-0.2-0.4-0.5-0.4-0.8l-0.1-0.7c-0.5,0.6-1.1,1.1-1.8,1.5C142.6,32.1,141.8,32.3,141,32.3z
		 M141.6,30.6c0.5,0,1.1-0.1,1.6-0.3c0.5-0.2,0.9-0.5,1.1-0.8c0.3-0.2,0.4-0.5,0.4-0.8v-1.4c-0.4-0.2-0.8-0.3-1.2-0.4
		c-0.4-0.1-0.9-0.1-1.3-0.1c-0.8,0-1.5,0.2-2,0.5c-0.5,0.3-0.8,0.8-0.8,1.4c0,0.5,0.2,1,0.6,1.3C140.5,30.4,141,30.6,141.6,30.6z"/>
	<path class="st5" d="M154.3,32.3c-0.7,0-1.4-0.1-2-0.4c-0.6-0.3-1.2-0.7-1.6-1.2c-0.5-0.5-0.8-1.1-1.1-1.8s-0.4-1.4-0.4-2.2
		c0-0.8,0.1-1.5,0.4-2.2c0.2-0.7,0.6-1.3,1-1.8c0.4-0.5,0.9-0.9,1.5-1.2s1.2-0.4,1.9-0.4c0.8,0,1.6,0.2,2.2,0.6s1.2,0.9,1.5,1.6
		v-6.3h2.3v12.4c0,0.5,0.2,0.7,0.7,0.7v1.9c-0.2,0-0.4,0.1-0.6,0.1c-0.2,0-0.3,0-0.5,0c-0.9-0.1-1.3-0.5-1.4-1.2l0-0.9
		c-0.4,0.7-1,1.2-1.6,1.6C155.8,32.1,155.1,32.3,154.3,32.3z M154.9,30.4c0.3,0,0.6-0.1,0.9-0.2c0.3-0.1,0.6-0.3,0.9-0.5
		c0.3-0.2,0.5-0.4,0.7-0.7s0.4-0.5,0.4-0.8v-2.8c-0.1-0.3-0.3-0.6-0.5-0.9c-0.2-0.3-0.5-0.5-0.8-0.7c-0.3-0.2-0.6-0.4-0.9-0.5
		c-0.3-0.1-0.6-0.2-0.9-0.2c-0.5,0-0.9,0.1-1.3,0.3s-0.7,0.5-1,0.8c-0.3,0.3-0.5,0.7-0.6,1.2c-0.2,0.4-0.2,0.9-0.2,1.4
		c0,0.5,0.1,1,0.3,1.4c0.2,0.4,0.4,0.8,0.7,1.1c0.3,0.3,0.6,0.6,1.1,0.8S154.4,30.4,154.9,30.4z"/>
	<path class="st5" d="M163,19.5v-2.5h2.3v2.5H163z M163,32.1V21.3h2.3v10.8H163z"/>
	<path class="st5" d="M177.6,32.1h-2.3v-6c0-1-0.2-1.8-0.5-2.2c-0.3-0.5-0.8-0.7-1.4-0.7c-0.3,0-0.7,0.1-1,0.2
		c-0.3,0.1-0.6,0.3-0.9,0.5c-0.3,0.2-0.5,0.5-0.8,0.8c-0.2,0.3-0.4,0.6-0.5,1v6.4h-2.3V21.3h2.1v2.2c0.4-0.7,1-1.3,1.8-1.7
		s1.6-0.6,2.6-0.6c0.6,0,1.2,0.1,1.6,0.4s0.7,0.6,1,1s0.4,0.9,0.5,1.4c0.1,0.5,0.1,1.1,0.1,1.7V32.1z"/>
	<path class="st5" d="M184.4,32.2c-0.7,0-1.4-0.1-2-0.4c-0.6-0.3-1.1-0.7-1.5-1.2s-0.8-1.1-1-1.8s-0.4-1.4-0.4-2.1
		c0-0.8,0.1-1.5,0.4-2.2c0.2-0.7,0.6-1.3,1-1.8c0.4-0.5,1-0.9,1.6-1.2s1.3-0.4,2-0.4c0.9,0,1.6,0.2,2.3,0.6s1.2,0.9,1.6,1.6v-2h2
		v10.5c0,0.8-0.1,1.5-0.4,2.1c-0.3,0.6-0.7,1.1-1.2,1.5c-0.5,0.4-1.1,0.7-1.8,1c-0.7,0.2-1.5,0.3-2.3,0.3c-1.2,0-2.2-0.2-3-0.6
		c-0.8-0.4-1.4-1-2-1.7l1.3-1.2c0.4,0.6,0.9,1,1.6,1.3s1.3,0.5,2.1,0.5c0.5,0,0.9-0.1,1.3-0.2c0.4-0.1,0.8-0.3,1.1-0.6
		c0.3-0.3,0.6-0.6,0.8-1s0.3-0.9,0.3-1.4v-1.6c-0.4,0.7-0.9,1.2-1.6,1.5C185.9,32,185.2,32.2,184.4,32.2z M185.2,30.4
		c0.3,0,0.7-0.1,1-0.2c0.3-0.1,0.6-0.3,0.9-0.5c0.3-0.2,0.5-0.4,0.7-0.7c0.2-0.3,0.3-0.5,0.4-0.8v-2.8c-0.3-0.7-0.7-1.2-1.3-1.7
		c-0.6-0.4-1.2-0.6-1.9-0.6c-0.5,0-0.9,0.1-1.3,0.3s-0.7,0.5-1,0.8c-0.3,0.4-0.5,0.7-0.6,1.2c-0.2,0.4-0.2,0.9-0.2,1.4
		c0,0.5,0.1,1,0.3,1.4c0.2,0.4,0.4,0.8,0.7,1.1c0.3,0.3,0.7,0.6,1.1,0.8C184.3,30.3,184.7,30.4,185.2,30.4z"/>
	<path class="st5" d="M198.5,26.9v-9.6h2.3v9.6H198.5z M198.5,32.1v-2.8h2.3v2.8H198.5z"/>
</g>
</svg>
