<?xml version="1.0" encoding="utf-8"?>
<!-- Generator: Adobe Illustrator 19.2.1, SVG Export Plug-In . SVG Version: 6.00 Build 0)  -->
<svg version="1.1" id="Layer_1" xmlns="http://www.w3.org/2000/svg" xmlns:xlink="http://www.w3.org/1999/xlink" x="0px" y="0px"
	 viewBox="0 0 128 128" style="enable-background:new 0 0 128 128;" xml:space="preserve">
<style type="text/css">
	.st0{fill:#20B898;}
	.st1{fill:#FFFFFF;}
</style>
<g>
	<path class="st0" d="M114.2,112c-6.7,0-13.5,0-20.2,0c-0.4,0-0.8,0-1.3,0c0-0.5,0-0.9,0-1.3c0-10.9,0-21.9,0-32.8
		c0-2.8-0.2-5.7-1.2-8.4c-1.6-4.6-5.2-6.8-10.1-6.6c-6.4,0.2-11,6-11.1,10.8c0,1-0.1,2-0.1,2.9c0,11.3,0,22.7,0,34
		c0,0.4,0,0.8,0,1.3c-7.2,0-14.3,0-21.4,0c0-21.4,0-42.9,0-64.4c7.1,0,14.2,0,21.4,0c0,2.9,0,5.8,0,8.8c1.3-1.5,2.4-2.9,3.6-4.2
		c3.3-3.4,7.4-5.3,12.1-5.9c4.3-0.5,8.6-0.2,12.7,1.3c5.1,1.8,9,5.2,11.7,10c2.2,4,3.3,8.4,3.7,13c0,0.3,0.1,0.6,0.2,0.9
		C114.2,85,114.2,98.5,114.2,112z"/>
	<path class="st0" d="M14.2,25.9c0.7-1.6,1.1-3.4,2-4.8c2.7-3.9,6.8-5,11.3-4.7c3.8,0.3,6.9,1.8,9,5c4.5,7.1,0,16.3-8.4,17.1
		c-3,0.3-5.8,0-8.5-1.5c-2.9-1.6-4.6-4.1-5.3-7.3c0-0.2-0.1-0.4-0.2-0.6C14.2,28.1,14.2,27,14.2,25.9z"/>
	<path class="st0" d="M15.4,111.9c0-0.5,0-0.8,0-1.2c0-20.7,0-41.3,0-62c0-1.3,0-1.3,1.3-1.3c6.3,0,12.6,0,18.9,0c0.4,0,0.8,0,1.2,0
		c0,21.6,0,43,0,64.5C29.7,111.9,22.7,111.9,15.4,111.9z"/>
</g>
</svg>
