<?xml version="1.0" encoding="utf-8"?>
<!-- Generator: Adobe Illustrator 19.2.1, SVG Export Plug-In . SVG Version: 6.00 Build 0)  -->
<svg version="1.1" id="Layer_1" xmlns="http://www.w3.org/2000/svg" xmlns:xlink="http://www.w3.org/1999/xlink" x="0px" y="0px"
	 viewBox="0 0 128 128" style="enable-background:new 0 0 128 128;" xml:space="preserve">
<style type="text/css">
	.st0{fill:#20B898;}
	.st1{fill:#FFFFFF;}
</style>
<path class="st1" d="M109.5,0H18.5C8.3,0,0,8.3,0,18.5v90.9C0,119.7,8.3,128,18.5,128h90.9c10.2,0,18.5-8.3,18.5-18.5V18.5
	C128,8.3,119.7,0,109.5,0z M38.3,111.9c-7.1,0-14.2,0-21.4,0c0-0.5,0-0.8,0-1.2c0-20.7,0-41.3,0-62c0-1.3,0-1.3,1.3-1.3
	c6.3,0,12.6,0,18.9,0c0.4,0,0.8,0,1.2,0C38.3,68.9,38.3,90.4,38.3,111.9z M29.6,38.5c-3,0.3-5.8,0-8.5-1.5c-2.9-1.6-4.6-4.1-5.3-7.3
	c0-0.2-0.1-0.4-0.2-0.6c0-1.1,0-2.2,0-3.3c0.7-1.6,1.1-3.4,2-4.8c2.7-3.9,6.8-5,11.3-4.7c3.8,0.3,6.9,1.8,9,5
	C42.6,28.5,38,37.7,29.6,38.5z M115.7,112c-6.7,0-13.5,0-20.2,0c-0.4,0-0.8,0-1.3,0c0-0.5,0-0.9,0-1.3c0-10.9,0-21.9,0-32.8
	c0-2.8-0.2-5.7-1.2-8.4c-1.6-4.6-5.2-6.8-10.1-6.6c-6.4,0.2-11,6-11.1,10.8c0,1-0.1,2-0.1,2.9c0,11.3,0,22.7,0,34c0,0.4,0,0.8,0,1.3
	c-7.2,0-14.3,0-21.4,0c0-21.4,0-42.9,0-64.4c7.1,0,14.2,0,21.4,0c0,2.9,0,5.8,0,8.8c1.3-1.5,2.4-2.9,3.6-4.2
	c3.3-3.4,7.4-5.3,12.1-5.9c4.3-0.5,8.6-0.2,12.7,1.3c5.1,1.8,9,5.2,11.7,10c2.2,4,3.3,8.4,3.7,13c0,0.3,0.1,0.6,0.2,0.9
	C115.7,84.9,115.7,98.4,115.7,112z"/>
</svg>
