<?xml version="1.0" encoding="utf-8"?>
<!-- Generator: Adobe Illustrator 19.2.1, SVG Export Plug-In . SVG Version: 6.00 Build 0)  -->
<svg version="1.1" id="Layer_1" xmlns="http://www.w3.org/2000/svg" xmlns:xlink="http://www.w3.org/1999/xlink" x="0px" y="0px"
	 viewBox="0 0 128 128" style="enable-background:new 0 0 128 128;" xml:space="preserve">
<style type="text/css">
	.st0{fill:#20B898;}
	.st1{fill:#FFFFFF;}
</style>
<path class="st1" d="M109.5,0H18.5C8.3,0,0,8.3,0,18.5v90.9C0,119.7,8.3,128,18.5,128h90.9c10.2,0,18.5-8.3,18.5-18.5V18.5
	C128,8.3,119.7,0,109.5,0z M115.7,61.6c-2.2,2-4.6,3.5-7.5,4c-1.2,0.2-2.4,0.3-3.6,0.4c-0.6,0-0.9,0.2-1,0.8
	c-3.1,10.8-10,18.5-19.5,24.2c-6.8,4.1-14.2,6.5-22.1,7.3c-11.5,1.2-22.3-0.7-32.3-6.7c-5.1-3-9.4-7-13-11.6
	c-0.1-0.1-0.2-0.2-0.2-0.4c6.5,5.3,13.9,7.3,22.1,5.9c5.4-0.9,10.1-3.5,14.1-7.4c-1-0.1-1.9-0.2-2.7-0.3c-0.2,0-0.3,0-0.5-0.1
	c-1.8-0.6-3.4-1.5-3.7-3.6c-0.2-1.9,1.1-3.1,2.6-4c0.3-0.2,0.6-0.3,1.2-0.7c-5.4,0.3-9.5-1.4-12.1-6c1.6-2,3.8-2.5,6.2-2.8
	c-5.2-1.5-9.4-4-10.5-10c1.9-0.3,3.8-0.6,5.7-0.9c-4.6-2.8-8.1-6.4-8.1-12.3c0.3,0.1,0.5,0.1,0.6,0.1c7.8,3,15.4,6.1,22.9,9.9
	c3,1.6,5.8,3.5,8.3,5.8c0.5,0.4,0.9,0.9,1.5,1.4c0.9-2.1,1.6-4.1,2.5-6.1c2.3-5.2,4.9-10.3,8.9-14.5c1.2-1.3,2.6-2.4,4-3.5
	c0.1,0.1,0.2,0.1,0.3,0.2c-0.3,0.7-0.5,1.3-0.8,2.1c2.2-1.6,4.4-2.7,7.1-3c-0.3,1.5-1.5,2.1-2.7,3c1.6-0.5,3-0.9,4.4-1.2
	c0.6-0.1,1.2-0.2,1.8-0.1c0.4,0,0.9,0.3,1,0.6c0.1,0.4-0.1,1-0.3,1.2c-0.8,0.5-1.6,1-2.5,1.3c-1.7,0.6-3.4,1-5.1,1.5
	c1.9,0.3,3.8,0.4,5.6,0.9c6,1.8,10.2,5.7,13.1,11.1c1,2,1.6,4.2,2.3,6.3c0.2,0.6,0.4,0.9,1.1,1c3.5,0.6,6.9,0.1,10.1-1.1
	c0.2-0.1,0.4-0.1,0.5-0.2c-0.5,2.4-4.2,5.6-10.2,6.4c3.5,1.2,7.2,1.6,10.9,1C115.7,61.4,115.7,61.5,115.7,61.6z"/>
</svg>
