<?xml version="1.0" encoding="utf-8"?>
<!-- Generator: Adobe Illustrator 19.2.1, SVG Export Plug-In . SVG Version: 6.00 Build 0)  -->
<svg version="1.1" id="Layer_1" xmlns="http://www.w3.org/2000/svg" xmlns:xlink="http://www.w3.org/1999/xlink" x="0px" y="0px"
	 viewBox="0 0 128 128" style="enable-background:new 0 0 128 128;" xml:space="preserve">
<style type="text/css">
	.st0{fill:#20B898;}
	.st1{fill:#FFFFFF;}
</style>
<g>
	<path class="st0" d="M54.1,14.2c2.4,0,4.8,0,7.2,0c0.3,0.1,0.6,0.1,0.9,0.2c2.8,0.3,5.6,0.5,8.3,1c7.8,1.4,15.1,4.1,21.6,8.6
		c7.8,5.4,13.3,12.4,15.5,21.8c0.4,1.6,0.6,3.3,0.9,5c0,1.8,0,3.6,0,5.5c-0.1,0.2-0.2,0.4-0.2,0.6c-0.4,4.6-1.9,9-4.4,12.9
		c-5.6,9-13.6,14.6-23.9,17c-4.5,1.1-9,1.3-13.6,0.5c-1.7-0.3-3.4-0.6-5.1-1c0,0.2,0,0.4,0,0.6c0.6,5.2,0.1,10.2-2,15
		c-2.1,5-5.6,8.8-10.7,10.9c-1.6,0.6-3.4,1-5.1,1.4c-1.5,0-3,0-4.5,0c-0.1-0.1-0.3-0.1-0.4-0.2c-2.3-0.6-4.7-1.1-6.9-1.8
		c-2.1-0.6-3.3-2.2-3.8-4.3c-0.6-2.7-0.3-5.4-0.1-8.1c0.1-1.5,0.2-3.1,0.2-4.7c0.7,0.2,1.3,0.4,1.9,0.7c1.4,0.6,2.8,1.4,4.3,1.9
		c3,1,5.5,0.2,6.5-3c0.2-0.7,0.4-1.3,0.5-2c0.9-4.6,0.7-9.3,0.7-14c-0.1-11.4-0.3-22.8-0.4-34.3c0-0.4,0-0.8,0-1.2
		c0-0.6,0.3-1,0.9-1c1.2-0.2,2.4-0.4,3.6-0.4c4.3,0.1,8.6,0.3,12.9,0.5c1.3,0.1,1.3,0.2,1.3,1.5c0,8.1,0,16.2,0,24.3
		c0,3.5,0,3.4,3.4,4.2c5.2,1.2,10.2,1.1,15.2-0.9C87,68.3,91.4,60.6,90,52.3c-1.1-6.4-4.5-11.4-9.6-15.2c-5.3-3.9-11.3-6-17.8-6.8
		c-6.7-0.8-13.3-0.2-19.5,2.6c-6.5,2.9-11.7,7.4-14.8,14c-3,6.3-2.5,12.4,1.4,18.2c0.5,0.7,1,1.5,1.6,2.2c-2.7,2.4-5.3,4.9-8.1,7.1
		c-1.7,1.4-3.8,2.3-5.7,3.4c-0.6,0.3-0.9,0.1-1.3-0.3c-3.4-3.9-5.4-8.4-6.5-13.4c-0.5-2-0.7-4.2-1-6.2c0-2,0-3.9,0-5.9
		c0.2-1.3,0.4-2.7,0.6-4C11,36.4,17,27.7,27.1,21.7c7.1-4.2,14.9-6.2,23-7.1C51.4,14.4,52.8,14.3,54.1,14.2z"/>
</g>
</svg>
