<?xml version="1.0" encoding="utf-8"?>
<!-- Generator: Adobe Illustrator 19.2.1, SVG Export Plug-In . SVG Version: 6.00 Build 0)  -->
<svg version="1.1" id="Layer_1" xmlns="http://www.w3.org/2000/svg" xmlns:xlink="http://www.w3.org/1999/xlink" x="0px" y="0px"
	 viewBox="0 0 128 128" style="enable-background:new 0 0 128 128;" xml:space="preserve">
<style type="text/css">
	.st0{fill:#20B898;}
	.st1{fill:#FFFFFF;}
</style>
<g>
	<path class="st0" d="M113.9,64c0,9.8,0.2,19.5,0,29.3c-0.3,12.9-7.7,20.4-20.6,20.6c-19.5,0.3-39,0.3-58.5,0
		c-12.8-0.2-20.4-7.7-20.6-20.6c-0.3-19.5-0.3-39,0-58.5c0.2-12.9,7.7-20.4,20.6-20.6c19.5-0.3,39-0.3,58.5,0
		c12.8,0.2,20.3,7.7,20.6,20.6C114.1,44.5,113.9,54.2,113.9,64z M23.4,53.8c0,13.9-0.2,26.9,0.1,39.9c0.1,7.1,4.3,10.9,11.3,10.9
		c19.5,0.1,39,0.1,58.6,0c6.1,0,10.8-3,11.1-9.2c0.5-13.8,0.2-27.6,0.2-41.4c-5.4,0-9.7,0-14,0c1.4,22.8-7.1,36.4-23.8,36.5
		c-6.6,0.1-14.1-2.2-19.6-5.8c-10.9-7.2-10.8-19.2-9.2-30.9C32.7,53.8,28.6,53.8,23.4,53.8z M64.2,81.6c9.4-0.1,17.3-8.2,17.4-17.7
		c0.1-9.8-8.4-17.9-18.3-17.6c-9.5,0.3-17.3,8.6-17,18C46.7,73.9,54.8,81.7,64.2,81.6z M85.9,42c6.1,0,11.2,0,16.4,0
		c0-5.8,0-10.9,0-16.3c-5.7,0-10.9,0-16.4,0C85.9,31.3,85.9,36.4,85.9,42z"/>
</g>
</svg>
