<?xml version="1.0" encoding="UTF-8" standalone="no"?>
<svg width="155px" height="153px" viewBox="0 0 155 153" version="1.1" xmlns="http://www.w3.org/2000/svg" xmlns:xlink="http://www.w3.org/1999/xlink">
    <!-- Generator: Sketch 3.6.1 (26313) - http://www.bohemiancoding.com/sketch -->
    <title>Artboard 7</title>
    <desc>Created with Sketch.</desc>
    <defs></defs>
    <g id="Page-1" stroke="none" stroke-width="1" fill="none" fill-rule="evenodd">
        <g id="Artboard-7">
            <g id="Stamp" transform="translate(20.500000, 7.000000)">
                <path d="M110.041527,136.567888 L1.16375351,136.567888 C0.551880592,136.567888 0.055358769,135.979915 0.055358769,135.345362 L10.6215675,112.953837 C10.6215675,112.319772 11.1178455,111.693023 11.7302061,111.693023 L99.4750744,111.693023 C100.087435,111.693023 100.583957,112.319772 100.583957,112.953837 L111.149922,135.345362 C111.149922,135.979915 110.653644,136.567888 110.041527,136.567888" id="Fill-35" fill="#CBCDC9"></path>
                <path d="M11.4619478,128.520138 L99.2555903,128.520138 L99.2555903,126.081426 L11.4619478,126.081426 L11.4619478,128.520138 Z" id="Fill-36" fill="#FFFFFF"></path>
                <path d="M55.8611438,103.274344 C47.8853352,103.378965 44.4621148,101.660404 43.0800965,100.534695 C43.4151756,101.306791 43.9424252,102.035722 44.743786,102.643937 C46.0255732,103.616983 48.3899048,104.733426 55.358769,104.733426 C62.3271455,104.733426 64.6922087,103.616739 65.9739959,102.644181 C68.5719561,100.672482 68.3046732,97.4365548 67.8615592,95.5521618 C67.5137988,95.7272614 67.1001932,95.9065067 66.6070856,96.0818501 C66.7880381,97.9655115 66.3288285,103.137533 55.8611438,103.274344" id="Fill-37" fill="#FFFFFF"></path>
                <path d="M43.8714587,50.1965029 C43.9721775,50.2165003 44.0692382,50.249179 44.1621532,50.2935636 C45.7385368,50.8056932 47.5492807,51.1622329 49.6336481,51.3797661 C49.7143694,51.383668 49.7953347,51.3868383 49.8760561,51.391228 C50.25869,51.4114693 50.6388853,51.4517081 51.0178612,51.5004823 C52.3584213,51.5968115 53.7999441,51.6448541 55.358769,51.6448541 C60.0313418,51.6448541 63.6818502,51.2273465 66.5558727,50.2935636 C66.6487876,50.2489352 66.7458483,50.2162564 66.8465672,50.196259 C70.4826872,48.9473944 72.8418975,46.8349818 74.4380347,43.6380739 C79.0969506,34.3075607 78.5214145,22.0471785 73.0067544,13.1295392 C71.1904015,10.1923542 68.9772701,7.83021743 66.46247,6.09824396 L66.4424725,6.11190075 C73.2740373,12.1616143 76.7231081,23.5738124 74.867248,33.7820182 C72.1880787,48.5176933 63.3967647,49.1861444 55.7774959,49.1898024 C51.340015,49.1917534 45.9187576,48.4142919 42.7162406,47.5965917 C40.0763346,46.9227755 38.1729196,45.8904686 36.7677336,44.5364955 C38.346556,47.2351745 40.5879764,49.0688423 43.8714587,50.1965029" id="Fill-38" fill="#FFFFFF"></path>
                <path d="M105.596242,123.642713 L105.596242,117.05819 L5.12129581,117.05819 L5.12129581,118.765289 L103.082418,118.765289 C103.359943,118.765289 103.645272,118.988431 103.889144,119.433008 L103.889144,123.642713 L105.596242,123.642713" id="Fill-39" fill="#FFFFFF"></path>
                <path d="M61.4211639,53.7884822 C57.4131403,59.2536364 57.3307118,68.6090245 58.6020125,73.1333236 C59.9194049,77.821748 65.4896676,84.1848361 65.6572072,87.0315449 C65.824259,89.8782538 67.1640875,93.5985094 55.1078255,93.5985094 C47.431247,93.5985094 44.139717,92.1582059 42.7608691,91.1115106 C42.8757324,91.6989964 43.0359558,92.3059919 43.2517819,92.9381061 C43.7617166,93.3504924 46.4089388,95.0505187 55.358769,95.0505187 C64.3083554,95.0505187 66.9560653,93.3504924 67.4660001,92.9381061 C69.3477105,87.4278357 67.1767688,83.7614756 64.669041,79.5254324 C63.1682574,76.9906348 61.6167486,74.3697507 60.850993,71.1789395 C59.3294804,64.8392631 62.5873561,57.2029233 64.610268,53.2980571 C63.6118592,53.5014458 62.5519948,53.6655711 61.4211639,53.7884822" id="Fill-40" fill="#FFFFFF"></path>
                <path d="M103.082418,118.765289 L5.12129581,118.765289 L5.12129581,117.05819 L105.596242,117.05819 L105.596242,123.642713 L103.889144,123.642713 L103.889144,119.433008 C103.645272,118.988431 103.359943,118.765289 103.082418,118.765289 L103.082418,118.765289 Z M67.8615592,95.5521618 C68.3046732,97.4365548 68.5719561,100.672482 65.9739959,102.644181 C64.6922087,103.616739 62.3271455,104.733426 55.358769,104.733426 C48.3899048,104.733426 46.0255732,103.616983 44.743786,102.643937 C43.9424252,102.035722 43.4151756,101.306791 43.0800965,100.534695 C44.4621148,101.660404 47.8853352,103.378965 55.8611438,103.274344 C66.3288285,103.137533 66.7880381,97.9655115 66.6070856,96.0818501 C67.1001932,95.9065067 67.5137988,95.7272614 67.8615592,95.5521618 L67.8615592,95.5521618 Z M60.850993,71.1789395 C61.6167486,74.3697507 63.1682574,76.9906348 64.669041,79.5254324 C67.1767688,83.7614756 69.3477105,87.4278357 67.4660001,92.9381061 C66.9560653,93.3504924 64.3083554,95.0505187 55.358769,95.0505187 C46.4089388,95.0505187 43.7617166,93.3504924 43.2517819,92.9381061 C43.0359558,92.3059919 42.8757324,91.6989964 42.7608691,91.1115106 C44.139717,92.1582059 47.431247,93.5985094 55.1078255,93.5985094 C67.1640875,93.5985094 65.824259,89.8782538 65.6572072,87.0315449 C65.4896676,84.1848361 59.9194049,77.821748 58.6020125,73.1333236 C57.3307118,68.6090245 57.4131403,59.2536364 61.4211639,53.7884822 C62.5519948,53.6655711 63.6118592,53.5014458 64.610268,53.2980571 C62.5873561,57.2029233 59.3294804,64.8392631 60.850993,71.1789395 L60.850993,71.1789395 Z M42.7162406,47.5965917 C45.9187576,48.4142919 51.340015,49.1917534 55.7774959,49.1898024 C63.3967647,49.1861444 72.1880787,48.5176933 74.867248,33.7820182 C76.7231081,23.5738124 73.2740373,12.1616143 66.4424725,6.11190075 C66.3983318,6.07263748 66.3539473,6.03361808 66.3093188,5.99508643 C66.3602879,6.02947227 66.4117448,6.0631265 66.46247,6.09824396 C68.9772701,7.83021743 71.1904015,10.1923542 73.0067544,13.1295392 C78.5214145,22.0471785 79.0969506,34.3075607 74.4380347,43.6380739 C72.8418975,46.8349818 70.4826872,48.9473944 66.8465672,50.196259 C66.7458483,50.2162564 66.6487876,50.2489352 66.5558727,50.2935636 C63.6818502,51.2273465 60.0313418,51.6448541 55.358769,51.6448541 C53.7999441,51.6448541 52.3584213,51.5968115 51.0178612,51.5004823 C50.5437755,51.4663403 50.0818834,51.4263455 49.6336481,51.3797661 C47.5492807,51.1622329 45.7385368,50.8056932 44.1621532,50.2935636 C44.0692382,50.249179 43.9721775,50.2165003 43.8714587,50.1965029 C40.5879764,49.0688423 38.346556,47.2351745 36.7677336,44.5364955 C38.1729196,45.8904686 40.0763346,46.9227755 42.7162406,47.5965917 L42.7162406,47.5965917 Z M55.358769,128.520138 L11.4619478,128.520138 L11.4619478,126.081426 L99.2555903,126.081426 L99.2555903,128.520138 L55.358769,128.520138 L55.358769,128.520138 Z M107.956672,115.334752 L98.7627265,95.09344 C98.5647031,94.6576421 98.1306123,94.3781657 97.6523808,94.3781657 L70.0688377,94.3781657 C69.9790931,94.0547925 69.8925188,93.7865341 69.8205768,93.5797313 C71.975423,87.086416 69.3303956,82.6118666 66.767309,78.2829085 C65.3589527,75.9037007 63.9023098,73.4435278 63.2223968,70.6097441 C61.555537,63.6647792 66.7582858,54.3271937 67.8974083,52.3986601 C72.0183443,50.9295798 74.7640905,48.4445319 76.6201944,44.7274467 C81.6417469,34.6697094 81.0232895,21.4557907 75.0808792,11.8470204 C70.4463504,4.35285757 63.4421248,0.225580887 55.358769,0.225580887 C47.2754133,0.225580887 40.2714316,4.35285757 35.6369027,11.8467766 C29.6942486,21.4555469 29.0757912,34.6694656 34.0973437,44.7274467 C35.9532037,48.4445319 38.6994376,50.9298236 42.8203737,52.3989039 C43.9594962,54.3276815 49.162245,63.6650231 47.4953851,70.6097441 C46.8152283,73.4432839 45.3588293,75.9034569 43.9502291,78.2824207 C41.3871424,82.6116228 38.7418712,87.086416 40.8972051,93.5799752 C40.825507,93.7865341 40.7386888,94.0550363 40.6489442,94.3781657 L13.0654011,94.3781657 C12.5869258,94.3781657 12.152835,94.6576421 11.9550554,95.09344 L2.76086619,115.334752 C2.64966091,115.579599 2.62551765,115.849808 2.68258352,116.104897 L2.68258352,124.862069 C2.68258352,125.535642 3.2286112,126.081426 3.90193967,126.081426 L9.02323548,126.081426 L9.02323548,129.739494 C9.02323548,130.413066 9.56926316,130.95885 10.2425916,130.95885 L100.474946,130.95885 C101.148519,130.95885 101.694303,130.413066 101.694303,129.739494 L101.694303,126.081426 L106.815598,126.081426 C107.489171,126.081426 108.034955,125.535642 108.034955,124.862069 L108.034955,116.104166 C108.091777,115.84932 108.067633,115.579355 107.956672,115.334752 L107.956672,115.334752 Z" id="Fill-41" fill="#1ABC9C"></path>
            </g>
        </g>
    </g>
</svg>