<?xml version="1.0" encoding="UTF-8" standalone="no"?>
<svg width="219px" height="144px" viewBox="0 0 219 144" version="1.1" xmlns="http://www.w3.org/2000/svg" xmlns:xlink="http://www.w3.org/1999/xlink">
    <!-- Generator: Sketch 3.6.1 (26313) - http://www.bohemiancoding.com/sketch -->
    <title>Artboard 7</title>
    <desc>Created with Sketch.</desc>
    <defs>
        <path id="path-1" d="M96.8841421,0.143815964 L0.0145268651,0.143815964 L0.0145268651,119.297521 L193.753757,119.297521 L193.753757,0.143815964 L96.8841421,0.143815964 L96.8841421,0.143815964 Z"></path>
    </defs>
    <g id="Page-1" stroke="none" stroke-width="1" fill="none" fill-rule="evenodd">
        <g id="Artboard-7">
            <g id="16720" transform="translate(15.000000, 12.000000)">
                <g id="Group-3" transform="translate(0.000000, 0.000000)">
                    <mask id="mask-2" fill="white">
                        <use xlink:href="#path-1"></use>
                    </mask>
                    <g id="Clip-2"></g>
                    <path d="M25.7319203,98.0706238 L27.8303259,98.0706238 L27.8303259,59.0902026 L25.7319203,59.0902026 L25.7319203,98.0706238 Z M30.695508,97.9098599 L32.7936715,97.9098599 L32.7936715,95.8116963 L30.695508,95.8116963 L30.695508,97.9098599 Z M30.695508,94.2377105 L32.7936715,94.2377105 L32.7936715,92.139547 L30.695508,92.139547 L30.695508,94.2377105 Z M30.695508,90.5655611 L32.7936715,90.5655611 L32.7936715,88.4673976 L30.695508,88.4673976 L30.695508,90.5655611 Z M30.695508,86.8934118 L32.7936715,86.8934118 L32.7936715,84.7952482 L30.695508,84.7952482 L30.695508,86.8934118 Z M30.695508,83.2212624 L32.7936715,83.2212624 L32.7936715,81.1230988 L30.695508,81.1230988 L30.695508,83.2212624 Z M30.695508,79.549113 L32.7936715,79.549113 L32.7936715,77.4509495 L30.695508,77.4509495 L30.695508,79.549113 Z M30.695508,75.8769636 L32.7936715,75.8769636 L32.7936715,73.7788001 L30.695508,73.7788001 L30.695508,75.8769636 Z M30.695508,72.2048143 L32.7936715,72.2048143 L32.7936715,70.1066507 L30.695508,70.1066507 L30.695508,72.2048143 Z M30.695508,68.5326649 L32.7936715,68.5326649 L32.7936715,66.4345014 L30.695508,66.4345014 L30.695508,68.5326649 Z M30.695508,64.8605155 L32.7936715,64.8605155 L32.7936715,62.762352 L30.695508,62.762352 L30.695508,64.8605155 Z M30.695508,61.1883662 L32.7936715,61.1883662 L32.7936715,59.0902026 L30.695508,59.0902026 L30.695508,61.1883662 Z M34.4884724,97.9098599 L36.5868781,97.9098599 L36.5868781,95.8116963 L34.4884724,95.8116963 L34.4884724,97.9098599 Z M34.4884724,94.2377105 L36.5868781,94.2377105 L36.5868781,92.139547 L34.4884724,92.139547 L34.4884724,94.2377105 Z M34.4884724,90.5655611 L36.5868781,90.5655611 L36.5868781,88.4673976 L34.4884724,88.4673976 L34.4884724,90.5655611 Z M34.4884724,86.8934118 L36.5868781,86.8934118 L36.5868781,84.7952482 L34.4884724,84.7952482 L34.4884724,86.8934118 Z M34.4884724,83.2212624 L36.5868781,83.2212624 L36.5868781,81.1230988 L34.4884724,81.1230988 L34.4884724,83.2212624 Z M34.4884724,79.549113 L36.5868781,79.549113 L36.5868781,77.4509495 L34.4884724,77.4509495 L34.4884724,79.549113 Z M34.4884724,75.8769636 L36.5868781,75.8769636 L36.5868781,73.7788001 L34.4884724,73.7788001 L34.4884724,75.8769636 Z M34.4884724,72.2048143 L36.5868781,72.2048143 L36.5868781,70.1066507 L34.4884724,70.1066507 L34.4884724,72.2048143 Z M34.4884724,68.5326649 L36.5868781,68.5326649 L36.5868781,66.4345014 L34.4884724,66.4345014 L34.4884724,68.5326649 Z M34.4884724,64.8605155 L36.5868781,64.8605155 L36.5868781,62.762352 L34.4884724,62.762352 L34.4884724,64.8605155 Z M34.4884724,61.1883662 L36.5868781,61.1883662 L36.5868781,59.0902026 L34.4884724,59.0902026 L34.4884724,61.1883662 Z M38.281679,97.9098599 L40.3798426,97.9098599 L40.3798426,95.8116963 L38.281679,95.8116963 L38.281679,97.9098599 Z M38.281679,94.2377105 L40.3798426,94.2377105 L40.3798426,92.139547 L38.281679,92.139547 L38.281679,94.2377105 Z M38.281679,90.5655611 L40.3798426,90.5655611 L40.3798426,88.4673976 L38.281679,88.4673976 L38.281679,90.5655611 Z M38.281679,86.8934118 L40.3798426,86.8934118 L40.3798426,84.7952482 L38.281679,84.7952482 L38.281679,86.8934118 Z M38.281679,83.2212624 L40.3798426,83.2212624 L40.3798426,81.1230988 L38.281679,81.1230988 L38.281679,83.2212624 Z M38.281679,79.549113 L40.3798426,79.549113 L40.3798426,77.4509495 L38.281679,77.4509495 L38.281679,79.549113 Z M38.281679,75.8769636 L40.3798426,75.8769636 L40.3798426,73.7788001 L38.281679,73.7788001 L38.281679,75.8769636 Z M38.281679,72.2048143 L40.3798426,72.2048143 L40.3798426,70.1066507 L38.281679,70.1066507 L38.281679,72.2048143 Z M38.281679,68.5326649 L40.3798426,68.5326649 L40.3798426,66.4345014 L38.281679,66.4345014 L38.281679,68.5326649 Z M38.281679,64.8605155 L40.3798426,64.8605155 L40.3798426,62.762352 L38.281679,62.762352 L38.281679,64.8605155 Z M38.281679,61.1883662 L40.3798426,61.1883662 L40.3798426,59.0902026 L38.281679,59.0902026 L38.281679,61.1883662 Z M42.0746435,97.9098599 L44.1730491,97.9098599 L44.1730491,95.8116963 L42.0746435,95.8116963 L42.0746435,97.9098599 Z M42.0746435,94.2377105 L44.1730491,94.2377105 L44.1730491,92.139547 L42.0746435,92.139547 L42.0746435,94.2377105 Z M42.0746435,90.5655611 L44.1730491,90.5655611 L44.1730491,88.4673976 L42.0746435,88.4673976 L42.0746435,90.5655611 Z M42.0746435,86.8934118 L44.1730491,86.8934118 L44.1730491,84.7952482 L42.0746435,84.7952482 L42.0746435,86.8934118 Z M42.0746435,83.2212624 L44.1730491,83.2212624 L44.1730491,81.1230988 L42.0746435,81.1230988 L42.0746435,83.2212624 Z M42.0746435,79.549113 L44.1730491,79.549113 L44.1730491,77.4509495 L42.0746435,77.4509495 L42.0746435,79.549113 Z M42.0746435,75.8769636 L44.1730491,75.8769636 L44.1730491,73.7788001 L42.0746435,73.7788001 L42.0746435,75.8769636 Z M42.0746435,72.2048143 L44.1730491,72.2048143 L44.1730491,70.1066507 L42.0746435,70.1066507 L42.0746435,72.2048143 Z M42.0746435,68.5326649 L44.1730491,68.5326649 L44.1730491,66.4345014 L42.0746435,66.4345014 L42.0746435,68.5326649 Z M42.0746435,64.8605155 L44.1730491,64.8605155 L44.1730491,62.762352 L42.0746435,62.762352 L42.0746435,64.8605155 Z M42.0746435,61.1883662 L44.1730491,61.1883662 L44.1730491,59.0902026 L42.0746435,59.0902026 L42.0746435,61.1883662 Z M46.9169318,98.0706238 L49.0153375,98.0706238 L49.0153375,59.0902026 L46.9169318,59.0902026 L46.9169318,98.0706238 Z M61.3760048,91.2362181 L82.8636594,91.2362181 L82.8636594,85.5465293 L61.3760048,85.5465293 L61.3760048,91.2362181 Z M61.3760048,82.6007231 L82.8636594,82.6007231 L82.8636594,76.9110343 L61.3760048,76.9110343 L61.3760048,82.6007231 Z M61.3760048,73.9652282 L82.8636594,73.9652282 L82.8636594,68.2755394 L61.3760048,68.2755394 L61.3760048,73.9652282 Z M61.3760048,65.3297333 L82.8636594,65.3297333 L82.8636594,59.6400445 L61.3760048,59.6400445 L61.3760048,65.3297333 Z M61.3760048,56.6942383 L82.8636594,56.6942383 L82.8636594,51.0045495 L61.3760048,51.0045495 L61.3760048,56.6942383 Z M61.3760048,48.0587434 L82.8636594,48.0587434 L82.8636594,42.3690546 L61.3760048,42.3690546 L61.3760048,48.0587434 Z M96.3615382,87.9170715 L98.4597017,87.9170715 L98.4597017,48.9366503 L96.3615382,48.9366503 L96.3615382,87.9170715 Z M101.324884,87.7563075 L103.423289,87.7563075 L103.423289,85.658144 L101.324884,85.658144 L101.324884,87.7563075 Z M101.324884,84.0841582 L103.423289,84.0841582 L103.423289,81.9859946 L101.324884,81.9859946 L101.324884,84.0841582 Z M101.324884,80.4120088 L103.423289,80.4120088 L103.423289,78.3138453 L101.324884,78.3138453 L101.324884,80.4120088 Z M101.324884,76.7398594 L103.423289,76.7398594 L103.423289,74.6416959 L101.324884,74.6416959 L101.324884,76.7398594 Z M101.324884,73.0677101 L103.423289,73.0677101 L103.423289,70.9695465 L101.324884,70.9695465 L101.324884,73.0677101 Z M101.324884,69.3955607 L103.423289,69.3955607 L103.423289,67.2973971 L101.324884,67.2973971 L101.324884,69.3955607 Z M101.324884,65.7234113 L103.423289,65.7234113 L103.423289,63.6252478 L101.324884,63.6252478 L101.324884,65.7234113 Z M101.324884,62.0512619 L103.423289,62.0512619 L103.423289,59.9530984 L101.324884,59.9530984 L101.324884,62.0512619 Z M101.324884,58.3791126 L103.423289,58.3791126 L103.423289,56.280949 L101.324884,56.280949 L101.324884,58.3791126 Z M101.324884,54.7069632 L103.423289,54.7069632 L103.423289,52.6087997 L101.324884,52.6087997 L101.324884,54.7069632 Z M101.324884,51.0348138 L103.423289,51.0348138 L103.423289,48.9366503 L101.324884,48.9366503 L101.324884,51.0348138 Z M105.11809,87.7563075 L107.216496,87.7563075 L107.216496,85.658144 L105.11809,85.658144 L105.11809,87.7563075 Z M105.11809,84.0841582 L107.216496,84.0841582 L107.216496,81.9859946 L105.11809,81.9859946 L105.11809,84.0841582 Z M105.11809,80.4120088 L107.216496,80.4120088 L107.216496,78.3138453 L105.11809,78.3138453 L105.11809,80.4120088 Z M105.11809,76.7398594 L107.216496,76.7398594 L107.216496,74.6416959 L105.11809,74.6416959 L105.11809,76.7398594 Z M105.11809,73.0677101 L107.216496,73.0677101 L107.216496,70.9695465 L105.11809,70.9695465 L105.11809,73.0677101 Z M105.11809,69.3955607 L107.216496,69.3955607 L107.216496,67.2973971 L105.11809,67.2973971 L105.11809,69.3955607 Z M105.11809,65.7234113 L107.216496,65.7234113 L107.216496,63.6252478 L105.11809,63.6252478 L105.11809,65.7234113 Z M105.11809,62.0512619 L107.216496,62.0512619 L107.216496,59.9530984 L105.11809,59.9530984 L105.11809,62.0512619 Z M105.11809,58.3791126 L107.216496,58.3791126 L107.216496,56.280949 L105.11809,56.280949 L105.11809,58.3791126 Z M105.11809,54.7069632 L107.216496,54.7069632 L107.216496,52.6087997 L105.11809,52.6087997 L105.11809,54.7069632 Z M105.11809,51.0348138 L107.216496,51.0348138 L107.216496,48.9366503 L105.11809,48.9366503 L105.11809,51.0348138 Z M108.911297,87.7563075 L111.00946,87.7563075 L111.00946,85.658144 L108.911297,85.658144 L108.911297,87.7563075 Z M108.911297,84.0841582 L111.00946,84.0841582 L111.00946,81.9859946 L108.911297,81.9859946 L108.911297,84.0841582 Z M108.911297,80.4120088 L111.00946,80.4120088 L111.00946,78.3138453 L108.911297,78.3138453 L108.911297,80.4120088 Z M108.911297,76.7398594 L111.00946,76.7398594 L111.00946,74.6416959 L108.911297,74.6416959 L108.911297,76.7398594 Z M108.911297,73.0677101 L111.00946,73.0677101 L111.00946,70.9695465 L108.911297,70.9695465 L108.911297,73.0677101 Z M108.911297,69.3955607 L111.00946,69.3955607 L111.00946,67.2973971 L108.911297,67.2973971 L108.911297,69.3955607 Z M108.911297,65.7234113 L111.00946,65.7234113 L111.00946,63.6252478 L108.911297,63.6252478 L108.911297,65.7234113 Z M108.911297,62.0512619 L111.00946,62.0512619 L111.00946,59.9530984 L108.911297,59.9530984 L108.911297,62.0512619 Z M108.911297,58.3791126 L111.00946,58.3791126 L111.00946,56.280949 L108.911297,56.280949 L108.911297,58.3791126 Z M108.911297,54.7069632 L111.00946,54.7069632 L111.00946,52.6087997 L108.911297,52.6087997 L108.911297,54.7069632 Z M108.911297,51.0348138 L111.00946,51.0348138 L111.00946,48.9366503 L108.911297,48.9366503 L108.911297,51.0348138 Z M112.704261,87.7563075 L114.802425,87.7563075 L114.802425,85.658144 L112.704261,85.658144 L112.704261,87.7563075 Z M112.704261,84.0841582 L114.802425,84.0841582 L114.802425,81.9859946 L112.704261,81.9859946 L112.704261,84.0841582 Z M112.704261,80.4120088 L114.802425,80.4120088 L114.802425,78.3138453 L112.704261,78.3138453 L112.704261,80.4120088 Z M112.704261,76.7398594 L114.802425,76.7398594 L114.802425,74.6416959 L112.704261,74.6416959 L112.704261,76.7398594 Z M112.704261,73.0677101 L114.802425,73.0677101 L114.802425,70.9695465 L112.704261,70.9695465 L112.704261,73.0677101 Z M112.704261,69.3955607 L114.802425,69.3955607 L114.802425,67.2973971 L112.704261,67.2973971 L112.704261,69.3955607 Z M112.704261,65.7234113 L114.802425,65.7234113 L114.802425,63.6252478 L112.704261,63.6252478 L112.704261,65.7234113 Z M112.704261,62.0512619 L114.802425,62.0512619 L114.802425,59.9530984 L112.704261,59.9530984 L112.704261,62.0512619 Z M112.704261,58.3791126 L114.802425,58.3791126 L114.802425,56.280949 L112.704261,56.280949 L112.704261,58.3791126 Z M112.704261,54.7069632 L114.802425,54.7069632 L114.802425,52.6087997 L112.704261,52.6087997 L112.704261,54.7069632 Z M112.704261,51.0348138 L114.802425,51.0348138 L114.802425,48.9366503 L112.704261,48.9366503 L112.704261,51.0348138 Z M117.54655,87.9170715 L119.644713,87.9170715 L119.644713,48.9366503 L117.54655,48.9366503 L117.54655,87.9170715 Z M131.570301,94.0902628 L133.668707,94.0902628 L133.668707,91.9920993 L131.570301,91.9920993 L131.570301,94.0902628 Z M131.570301,89.9341267 L133.668707,89.9341267 L133.668707,87.8359632 L131.570301,87.8359632 L131.570301,89.9341267 Z M131.570301,85.7779906 L133.668707,85.7779906 L133.668707,83.6798271 L131.570301,83.6798271 L131.570301,85.7779906 Z M131.570301,81.6218545 L133.668707,81.6218545 L133.668707,79.523691 L131.570301,79.523691 L131.570301,81.6218545 Z M131.570301,77.4657185 L133.668707,77.4657185 L133.668707,75.3675549 L131.570301,75.3675549 L131.570301,77.4657185 Z M131.570301,73.3095824 L133.668707,73.3095824 L133.668707,71.2114188 L131.570301,71.2114188 L131.570301,73.3095824 Z M131.570301,69.1534463 L133.668707,69.1534463 L133.668707,67.0552827 L131.570301,67.0552827 L131.570301,69.1534463 Z M131.570301,64.9973102 L133.668707,64.9973102 L133.668707,62.8991466 L131.570301,62.8991466 L131.570301,64.9973102 Z M131.570301,60.8411741 L133.668707,60.8411741 L133.668707,58.7430105 L131.570301,58.7430105 L131.570301,60.8411741 Z M131.570301,56.685038 L133.668707,56.685038 L133.668707,54.5868745 L131.570301,54.5868745 L131.570301,56.685038 Z M131.570301,52.5284177 L133.668707,52.5284177 L133.668707,50.4302541 L131.570301,50.4302541 L131.570301,52.5284177 Z M131.570301,48.3722816 L133.668707,48.3722816 L133.668707,46.274118 L131.570301,46.274118 L131.570301,48.3722816 Z M131.570301,44.2159034 L133.668707,44.2159034 L133.668707,42.1177398 L131.570301,42.1177398 L131.570301,44.2159034 Z M131.570301,40.0597673 L133.668707,40.0597673 L133.668707,37.9616037 L131.570301,37.9616037 L131.570301,40.0597673 Z M131.570301,35.9033891 L133.668707,35.9033891 L133.668707,33.8052255 L131.570301,33.8052255 L131.570301,35.9033891 Z M131.570301,31.787444 L133.668707,31.787444 L133.668707,29.6892804 L131.570301,29.6892804 L131.570301,31.787444 Z M131.570301,27.6714989 L133.668707,27.6714989 L133.668707,25.5733353 L131.570301,25.5733353 L131.570301,27.6714989 Z M131.570301,23.5555538 L133.668707,23.5555538 L133.668707,21.4573903 L131.570301,21.4573903 L131.570301,23.5555538 Z M131.570301,19.4396087 L133.668707,19.4396087 L133.668707,17.3414452 L131.570301,17.3414452 L131.570301,19.4396087 Z M146.600038,99.1463382 L148.698201,99.1463382 L148.698201,60.165917 L146.600038,60.165917 L146.600038,99.1463382 Z M151.563383,98.9855742 L153.661789,98.9855742 L153.661789,96.8874107 L151.563383,96.8874107 L151.563383,98.9855742 Z M151.563383,95.3134249 L153.661789,95.3134249 L153.661789,93.2152613 L151.563383,93.2152613 L151.563383,95.3134249 Z M151.563383,91.6412755 L153.661789,91.6412755 L153.661789,89.5431119 L151.563383,89.5431119 L151.563383,91.6412755 Z M151.563383,87.9691261 L153.661789,87.9691261 L153.661789,85.8709626 L151.563383,85.8709626 L151.563383,87.9691261 Z M151.563383,84.2969767 L153.661789,84.2969767 L153.661789,82.1988132 L151.563383,82.1988132 L151.563383,84.2969767 Z M151.563383,80.6248274 L153.661789,80.6248274 L153.661789,78.5266638 L151.563383,78.5266638 L151.563383,80.6248274 Z M151.563383,76.952678 L153.661789,76.952678 L153.661789,74.8545145 L151.563383,74.8545145 L151.563383,76.952678 Z M151.563383,73.2805286 L153.661789,73.2805286 L153.661789,71.1823651 L151.563383,71.1823651 L151.563383,73.2805286 Z M151.563383,69.6083793 L153.661789,69.6083793 L153.661789,67.5102157 L151.563383,67.5102157 L151.563383,69.6083793 Z M151.563383,65.9362299 L153.661789,65.9362299 L153.661789,63.8380663 L151.563383,63.8380663 L151.563383,65.9362299 Z M151.563383,62.2640805 L153.661789,62.2640805 L153.661789,60.165917 L151.563383,60.165917 L151.563383,62.2640805 Z M155.35659,98.9855742 L157.454995,98.9855742 L157.454995,96.8874107 L155.35659,96.8874107 L155.35659,98.9855742 Z M155.35659,95.3134249 L157.454995,95.3134249 L157.454995,93.2152613 L155.35659,93.2152613 L155.35659,95.3134249 Z M155.35659,91.6412755 L157.454995,91.6412755 L157.454995,89.5431119 L155.35659,89.5431119 L155.35659,91.6412755 Z M155.35659,87.9691261 L157.454995,87.9691261 L157.454995,85.8709626 L155.35659,85.8709626 L155.35659,87.9691261 Z M155.35659,84.2969767 L157.454995,84.2969767 L157.454995,82.1988132 L155.35659,82.1988132 L155.35659,84.2969767 Z M155.35659,80.6248274 L157.454995,80.6248274 L157.454995,78.5266638 L155.35659,78.5266638 L155.35659,80.6248274 Z M155.35659,76.952678 L157.454995,76.952678 L157.454995,74.8545145 L155.35659,74.8545145 L155.35659,76.952678 Z M155.35659,73.2805286 L157.454995,73.2805286 L157.454995,71.1823651 L155.35659,71.1823651 L155.35659,73.2805286 Z M155.35659,69.6083793 L157.454995,69.6083793 L157.454995,67.5102157 L155.35659,67.5102157 L155.35659,69.6083793 Z M155.35659,65.9362299 L157.454995,65.9362299 L157.454995,63.8380663 L155.35659,63.8380663 L155.35659,65.9362299 Z M155.35659,62.2640805 L157.454995,62.2640805 L157.454995,60.165917 L155.35659,60.165917 L155.35659,62.2640805 Z M159.149796,98.9855742 L161.24796,98.9855742 L161.24796,96.8874107 L159.149796,96.8874107 L159.149796,98.9855742 Z M159.149796,95.3134249 L161.24796,95.3134249 L161.24796,93.2152613 L159.149796,93.2152613 L159.149796,95.3134249 Z M159.149796,91.6412755 L161.24796,91.6412755 L161.24796,89.5431119 L159.149796,89.5431119 L159.149796,91.6412755 Z M159.149796,87.9691261 L161.24796,87.9691261 L161.24796,85.8709626 L159.149796,85.8709626 L159.149796,87.9691261 Z M159.149796,84.2969767 L161.24796,84.2969767 L161.24796,82.1988132 L159.149796,82.1988132 L159.149796,84.2969767 Z M159.149796,80.6248274 L161.24796,80.6248274 L161.24796,78.5266638 L159.149796,78.5266638 L159.149796,80.6248274 Z M159.149796,76.952678 L161.24796,76.952678 L161.24796,74.8545145 L159.149796,74.8545145 L159.149796,76.952678 Z M159.149796,73.2805286 L161.24796,73.2805286 L161.24796,71.1823651 L159.149796,71.1823651 L159.149796,73.2805286 Z M159.149796,69.6083793 L161.24796,69.6083793 L161.24796,67.5102157 L159.149796,67.5102157 L159.149796,69.6083793 Z M159.149796,65.9362299 L161.24796,65.9362299 L161.24796,63.8380663 L159.149796,63.8380663 L159.149796,65.9362299 Z M159.149796,62.2640805 L161.24796,62.2640805 L161.24796,60.165917 L159.149796,60.165917 L159.149796,62.2640805 Z M162.942761,98.9855742 L165.040924,98.9855742 L165.040924,96.8874107 L162.942761,96.8874107 L162.942761,98.9855742 Z M162.942761,95.3134249 L165.040924,95.3134249 L165.040924,93.2152613 L162.942761,93.2152613 L162.942761,95.3134249 Z M162.942761,91.6412755 L165.040924,91.6412755 L165.040924,89.5431119 L162.942761,89.5431119 L162.942761,91.6412755 Z M162.942761,87.9691261 L165.040924,87.9691261 L165.040924,85.8709626 L162.942761,85.8709626 L162.942761,87.9691261 Z M162.942761,84.2969767 L165.040924,84.2969767 L165.040924,82.1988132 L162.942761,82.1988132 L162.942761,84.2969767 Z M162.942761,80.6248274 L165.040924,80.6248274 L165.040924,78.5266638 L162.942761,78.5266638 L162.942761,80.6248274 Z M162.942761,76.952678 L165.040924,76.952678 L165.040924,74.8545145 L162.942761,74.8545145 L162.942761,76.952678 Z M162.942761,73.2805286 L165.040924,73.2805286 L165.040924,71.1823651 L162.942761,71.1823651 L162.942761,73.2805286 Z M162.942761,69.6083793 L165.040924,69.6083793 L165.040924,67.5102157 L162.942761,67.5102157 L162.942761,69.6083793 Z M162.942761,65.9362299 L165.040924,65.9362299 L165.040924,63.8380663 L162.942761,63.8380663 L162.942761,65.9362299 Z M162.942761,62.2640805 L165.040924,62.2640805 L165.040924,60.165917 L162.942761,60.165917 L162.942761,62.2640805 Z M167.785049,99.1463382 L169.883213,99.1463382 L169.883213,60.165917 L167.785049,60.165917 L167.785049,99.1463382 Z M172.587147,100.25837 L172.587147,57.4905527 L144.017645,57.4905527 L144.017645,100.25837 L139.382849,100.25837 L139.382849,14.6212897 L138.061146,13.2068572 L138.061146,5.39915151 L136.729517,5.39915151 L136.729517,11.7815297 L125.855674,0.143815964 L125.855674,100.25837 L122.348647,100.25837 L122.348647,46.261286 L119.644955,46.261286 L119.644955,43.6725986 L111.00946,43.6725986 L111.00946,41.5744351 L105.11809,41.5744351 L105.11809,43.6725986 L96.2303122,43.6725986 L96.2303122,46.261286 L93.7791458,46.261286 L93.7791458,100.25837 L86.4045827,100.25837 L86.4045827,37.492386 L82.8636594,37.492386 L82.8636594,33.7335597 L78.4905888,33.7335597 L78.4905888,31.4334727 L65.7493176,31.4334727 L65.7493176,33.7335597 L61.3760048,33.7335597 L61.3760048,37.492386 L57.8350815,37.492386 L57.8350815,100.25837 L51.7190292,100.25837 L51.7190292,56.4150804 L23.1495279,56.4150804 L23.1495279,100.25837 L0,100.25837 L0,119.297521 L193.753757,119.297521 L193.753757,100.25837 L172.587147,100.25837 L172.587147,100.25837 Z" id="Fill-1" fill="#1ABC9C" mask="url(#mask-2)"></path>
                </g>
            </g>
        </g>
    </g>
</svg>