<?xml version="1.0" encoding="utf-8"?>
<!-- Generator: Adobe Illustrator 19.2.1, SVG Export Plug-In . SVG Version: 6.00 Build 0)  -->
<svg version="1.1" id="Layer_1" xmlns="http://www.w3.org/2000/svg" xmlns:xlink="http://www.w3.org/1999/xlink" x="0px" y="0px"
	 viewBox="0 0 50 80" style="enable-background:new 0 0 50 80;" xml:space="preserve">
<style type="text/css">
	.st0{fill:#4A494A;}
	.st1{fill:#20B898;}
</style>
<path class="st0" d="M45.7,43.5L17,16.8c-1.2-1.1-3-1-4.1,0.1s-1,3,0.1,4.1l28.7,26.8c1.2,1.1,3,1,4.1-0.1S46.9,44.6,45.7,43.5z"/>
<path class="st1" d="M13,43.5l28.8-26.6c1.2-1.1,3-1,4.1,0.2l0,0c1.1,1.2,1,3-0.2,4.1L16.9,47.8c-1.2,1.1-3,1-4.1-0.2l0,0
	C11.8,46.4,11.8,44.5,13,43.5z"/>
</svg>
