<?xml version="1.0" encoding="utf-8"?>
<!-- Generator: Adobe Illustrator 19.2.1, SVG Export Plug-In . SVG Version: 6.00 Build 0)  -->
<svg version="1.1" id="Layer_1" xmlns="http://www.w3.org/2000/svg" xmlns:xlink="http://www.w3.org/1999/xlink" x="0px" y="0px"
	 viewBox="0 0 512 512" style="enable-background:new 0 0 512 512;" xml:space="preserve">
<style type="text/css">
	.st0{fill:#FFFFFF;}
</style>
<g>
	<g>
		<g>
			<path class="st0" d="M256,57.4C146.5,57.4,57.4,146.5,57.4,256S146.5,454.6,256,454.6S454.6,365.5,454.6,256S365.5,57.4,256,57.4
				z M305.4,263h-32.3c0,51.6,0,115.2,0,115.2h-47.9c0,0,0-62.9,0-115.2h-22.8v-40.7h22.8V196c0-18.9,9-48.3,48.3-48.3l35.5,0.1
				v39.5c0,0-21.6,0-25.8,0c-4.2,0-10.1,2.1-10.1,11.1v23.9h36.5L305.4,263z"/>
		</g>
	</g>
</g>
</svg>
