<?xml version="1.0" encoding="utf-8"?>
<!-- Generator: Adobe Illustrator 19.2.1, SVG Export Plug-In . SVG Version: 6.00 Build 0)  -->
<svg version="1.1" id="Layer_1" xmlns="http://www.w3.org/2000/svg" xmlns:xlink="http://www.w3.org/1999/xlink" x="0px" y="0px"
	 viewBox="0 0 264.2 51.3" style="enable-background:new 0 0 264.2 51.3;" xml:space="preserve">
<style type="text/css">
	.st0{clip-path:url(#SVGID_2_);fill:#29B99A;}
	.st1{clip-path:url(#SVGID_4_);fill:#4A494A;}
	.st2{fill:none;}
	.st3{opacity:0.8;}
	.st4{clip-path:url(#SVGID_6_);fill:#29B99A;}
	.st5{fill:#FFFFFF;}
	.st6{fill:#20B898;}
	.st7{fill:#4A494A;}
</style>
<g>
	<defs>
		<path id="SVGID_1_" d="M1.2,8.4c0-3.9,3.1-7,7-7h248.2c3.9,0,7,3.1,7,7v34.4c0,3.9-3.1,7-7,7H8.2c-3.9,0-7-3.1-7-7V8.4z"/>
	</defs>
	<clipPath id="SVGID_2_">
		<use xlink:href="#SVGID_1_"  style="overflow:visible;"/>
	</clipPath>
	<rect x="-3.8" y="-3.6" class="st0" width="272.2" height="58.4"/>
</g>
<g>
	<path class="st5" d="M228.9,29.9c0.6,0.6,1.3,0.6,1.9,0c1.9-1.8,3.7-3.7,5.6-5.6c0.6-0.6,0.5-1.4,0-1.9c-0.5-0.5-1.3-0.5-1.9,0.1
		c-0.9,0.9-1.8,1.8-2.8,2.8c-0.1,0.1-0.3,0.2-0.5,0.4c0-0.3,0-0.6,0-0.8c0-3.3,0-6.6,0-9.8c0-0.3,0-0.6-0.1-0.8
		c-0.2-0.7-0.8-1-1.5-0.9c-0.6,0.1-1.1,0.6-1.1,1.2c0,0.2,0,0.4,0,0.6c0,3.5,0,7,0,10.6c-0.3-0.2-0.4-0.4-0.5-0.5
		c-0.9-0.9-1.8-1.8-2.7-2.7c-0.6-0.6-1.4-0.6-1.9,0c-0.5,0.5-0.6,1.3,0,1.9C225.2,26.2,227,28.1,228.9,29.9z"/>
	<path class="st5" d="M238.4,37.7c0.7,0,1.3-0.5,1.3-1.2c0-1.9,0-3.8,0-5.7c0-0.7-0.6-1.2-1.2-1.2c-0.6,0-1.2,0.3-1.4,1
		c-0.1,0.2-0.1,0.5-0.1,0.8c0,1.2,0,2.4,0,3.7c-5,0-10,0-15,0c0-1.3,0-2.6,0-3.8c0-1-0.6-1.6-1.4-1.6c-0.8,0-1.3,0.6-1.3,1.6
		c0,1.6,0,3.2,0,4.8c0,1.3,0.4,1.7,1.8,1.7c4.6,0,9.3,0,13.9,0C236.2,37.7,237.3,37.7,238.4,37.7z"/>
</g>
<g>
	<path class="st7" d="M83.8,32.1V17.5h6.4c0.7,0,1.3,0.1,1.8,0.4c0.6,0.3,1,0.6,1.4,1.1s0.7,1,0.9,1.5s0.3,1.2,0.3,1.7
		c0,0.5-0.1,1-0.2,1.4s-0.3,0.9-0.6,1.3s-0.5,0.7-0.9,1c-0.4,0.3-0.7,0.5-1.2,0.6l3.5,5.6h-2.6L89.5,27h-3.4v5.1H83.8z M86.1,25h4
		c0.3,0,0.6-0.1,0.9-0.2c0.3-0.1,0.5-0.3,0.7-0.6c0.2-0.3,0.3-0.5,0.5-0.9c0.1-0.3,0.2-0.7,0.2-1.1c0-0.4-0.1-0.7-0.2-1.1
		c-0.1-0.3-0.3-0.6-0.5-0.9c-0.2-0.2-0.5-0.4-0.7-0.6c-0.3-0.1-0.6-0.2-0.9-0.2h-3.9V25z"/>
	<path class="st7" d="M102.2,32.3c-0.8,0-1.6-0.1-2.3-0.4c-0.7-0.3-1.3-0.7-1.8-1.2c-0.5-0.5-0.9-1.1-1.1-1.8
		c-0.3-0.7-0.4-1.4-0.4-2.1c0-0.8,0.1-1.5,0.4-2.2c0.3-0.7,0.6-1.3,1.1-1.8c0.5-0.5,1.1-0.9,1.8-1.2c0.7-0.3,1.5-0.4,2.3-0.4
		c0.8,0,1.6,0.2,2.3,0.5c0.7,0.3,1.3,0.7,1.7,1.2c0.5,0.5,0.8,1.1,1.1,1.8s0.4,1.4,0.4,2.1c0,0.2,0,0.3,0,0.5c0,0.1,0,0.3,0,0.4H99
		c0,0.5,0.2,0.9,0.3,1.3c0.2,0.4,0.4,0.7,0.7,1s0.6,0.5,1,0.6c0.4,0.2,0.8,0.2,1.2,0.2c0.3,0,0.6,0,0.9-0.1c0.3-0.1,0.6-0.2,0.8-0.3
		c0.2-0.1,0.5-0.3,0.7-0.5s0.3-0.4,0.5-0.7l1.9,0.6c-0.4,0.8-1,1.5-1.8,2C104.3,32,103.3,32.3,102.2,32.3z M105.5,25.9
		c0-0.5-0.2-0.9-0.3-1.3c-0.2-0.4-0.4-0.7-0.7-1c-0.3-0.3-0.6-0.5-1-0.6c-0.4-0.2-0.8-0.2-1.2-0.2c-0.4,0-0.8,0.1-1.2,0.2
		c-0.4,0.2-0.7,0.4-1,0.6c-0.3,0.3-0.5,0.6-0.7,1c-0.2,0.4-0.3,0.8-0.3,1.3H105.5z"/>
	<path class="st7" d="M113.6,32.3c-0.4,0-0.9,0-1.3-0.1c-0.4-0.1-0.9-0.2-1.3-0.3c-0.4-0.1-0.8-0.3-1.2-0.5c-0.4-0.2-0.7-0.4-1-0.6
		l0.9-1.5c1.3,0.9,2.6,1.4,3.9,1.4c0.7,0,1.2-0.1,1.6-0.4s0.6-0.6,0.6-1.1c0-0.5-0.2-0.8-0.7-1c-0.4-0.2-1.2-0.4-2.1-0.7
		c-0.7-0.2-1.2-0.3-1.7-0.5c-0.5-0.2-0.9-0.4-1.2-0.6c-0.3-0.2-0.5-0.5-0.7-0.8c-0.1-0.3-0.2-0.6-0.2-1.1c0-0.5,0.1-1,0.3-1.5
		c0.2-0.4,0.5-0.8,0.9-1.1c0.4-0.3,0.8-0.5,1.3-0.7c0.5-0.2,1.1-0.2,1.7-0.2c0.8,0,1.5,0.1,2.3,0.4s1.4,0.6,2,1l-1,1.4
		c-1-0.8-2.1-1.2-3.3-1.2c-0.6,0-1.1,0.1-1.5,0.4s-0.6,0.6-0.6,1.1c0,0.2,0,0.4,0.1,0.6c0.1,0.2,0.2,0.3,0.4,0.4
		c0.2,0.1,0.4,0.2,0.7,0.3c0.3,0.1,0.7,0.2,1.1,0.3c0.7,0.2,1.4,0.4,1.9,0.5c0.5,0.2,1,0.4,1.3,0.6c0.4,0.2,0.6,0.5,0.8,0.8
		c0.2,0.3,0.2,0.7,0.2,1.2c0,0.5-0.1,1-0.3,1.4s-0.5,0.8-0.9,1.1c-0.4,0.3-0.8,0.5-1.4,0.7C114.8,32.2,114.2,32.3,113.6,32.3z"/>
	<path class="st7" d="M123.1,32.3c-1.1,0-2-0.4-2.5-1.1c-0.6-0.7-0.9-1.8-0.9-3.3v-6.6h2.3v6.1c0,1.9,0.7,2.9,2,2.9
		c0.7,0,1.3-0.2,1.9-0.6s1-1,1.3-1.7v-6.7h2.3v8.1c0,0.3,0,0.4,0.1,0.6c0.1,0.1,0.3,0.2,0.5,0.2v1.9c-0.2,0-0.5,0.1-0.6,0.1
		s-0.3,0-0.5,0c-0.9-0.1-1.3-0.5-1.4-1.2l0-1.1c-0.5,0.8-1.1,1.4-1.9,1.8C124.9,32.1,124.1,32.3,123.1,32.3z"/>
	<path class="st7" d="M148.9,32.1h-2.3v-6c0-1-0.2-1.7-0.5-2.2s-0.8-0.7-1.4-0.7c-0.6,0-1.2,0.2-1.8,0.7c-0.5,0.5-0.9,1.1-1.2,1.8
		v6.4h-2.3v-6c0-1-0.2-1.8-0.5-2.2c-0.3-0.5-0.8-0.7-1.4-0.7s-1.2,0.2-1.8,0.7c-0.5,0.5-0.9,1.1-1.2,1.8v6.4h-2.3V21.3h2.1v2.2
		c0.4-0.8,1-1.3,1.7-1.7s1.5-0.6,2.4-0.6c0.9,0,1.6,0.2,2.1,0.7s0.8,1,1,1.8c0.5-0.8,1-1.4,1.7-1.8c0.7-0.4,1.5-0.6,2.3-0.6
		c0.6,0,1.2,0.1,1.6,0.4c0.4,0.2,0.8,0.6,1,1c0.2,0.4,0.4,0.9,0.5,1.4c0.1,0.5,0.2,1.1,0.2,1.7V32.1z"/>
	<path class="st7" d="M156.4,32.3c-0.8,0-1.6-0.1-2.3-0.4c-0.7-0.3-1.3-0.7-1.8-1.2c-0.5-0.5-0.9-1.1-1.1-1.8
		c-0.3-0.7-0.4-1.4-0.4-2.1c0-0.8,0.1-1.5,0.4-2.2c0.3-0.7,0.6-1.3,1.1-1.8c0.5-0.5,1.1-0.9,1.8-1.2s1.5-0.4,2.3-0.4
		c0.8,0,1.6,0.2,2.3,0.5c0.7,0.3,1.3,0.7,1.7,1.2c0.5,0.5,0.8,1.1,1.1,1.8s0.4,1.4,0.4,2.1c0,0.2,0,0.3,0,0.5c0,0.1,0,0.3,0,0.4
		h-8.6c0,0.5,0.2,0.9,0.3,1.3c0.2,0.4,0.4,0.7,0.7,1c0.3,0.3,0.6,0.5,1,0.6c0.4,0.2,0.8,0.2,1.2,0.2c0.3,0,0.6,0,0.9-0.1
		c0.3-0.1,0.6-0.2,0.8-0.3c0.2-0.1,0.5-0.3,0.7-0.5s0.3-0.4,0.5-0.7l1.9,0.6c-0.4,0.8-1,1.5-1.8,2C158.5,32,157.5,32.3,156.4,32.3z
		 M159.7,25.9c0-0.5-0.2-0.9-0.3-1.3c-0.2-0.4-0.4-0.7-0.7-1c-0.3-0.3-0.6-0.5-1-0.6c-0.4-0.2-0.8-0.2-1.2-0.2s-0.8,0.1-1.2,0.2
		c-0.4,0.2-0.7,0.4-1,0.6c-0.3,0.3-0.5,0.6-0.7,1c-0.2,0.4-0.3,0.8-0.3,1.3H159.7z"/>
</g>
</svg>
