<?xml version="1.0" encoding="utf-8"?>
<!-- Generator: Adobe Illustrator 19.2.1, SVG Export Plug-In . SVG Version: 6.00 Build 0)  -->
<svg version="1.1" id="Layer_1" xmlns="http://www.w3.org/2000/svg" xmlns:xlink="http://www.w3.org/1999/xlink" x="0px" y="0px"
	 viewBox="0 0 128 128" style="enable-background:new 0 0 128 128;" xml:space="preserve">
<style type="text/css">
	.st0{fill:#20B898;}
	.st1{fill:#FFFFFF;}
</style>
<path class="st1" d="M109.5,0H18.5C8.3,0,0,8.3,0,18.5v90.9C0,119.7,8.3,128,18.5,128h90.9c10.2,0,18.5-8.3,18.5-18.5V18.5
	C128,8.3,119.7,0,109.5,0z M71.6,47.1c5.2,0,10.4,0,15.8,0c-0.7,5.7-1.3,11.3-1.9,16.9c-4.7,0-9.3,0-14,0c0,0.5,0,0.9,0,1.3
	c0,15.8,0,31.6,0,47.4c0,0.4,0,0.8-0.1,1.3c-6.9,0-13.8,0-20.7,0c0-16.5,0-32.9,0-49.4c0-0.2,0-0.3,0-0.6c-3.3,0-6.6,0-10,0
	c0-0.4-0.1-0.7-0.1-0.9c0-5,0-10,0-14.9c0-0.8,0.3-1,1.1-1c2.6,0,5.3,0,7.9,0c0.4,0,0.7,0,1.2,0c0-0.4,0-0.8,0-1.1
	c0-4.6,0-9.1,0-13.7c0.1-3.5,0.8-6.9,2.7-9.9c2.6-4.2,6.4-6.4,11-7.5c1.5-0.4,3.1-0.5,4.6-0.8c6.1,0,12.2,0,18.4,0
	c0,1.9-0.1,3.7-0.1,5.6c0,3.6,0,7.2,0,10.8c0,0.3,0,0.7,0,1.2c-0.5,0-0.8,0-1.2,0c-3.3,0-6.6,0-9.9,0c-2.8,0-4.8,2-4.8,4.8
	C71.6,40,71.6,43.5,71.6,47.1z"/>
</svg>
