<?xml version="1.0" encoding="utf-8"?>
<!-- Generator: Adobe Illustrator 19.2.1, SVG Export Plug-In . SVG Version: 6.00 Build 0)  -->
<svg version="1.1" id="Layer_1" xmlns="http://www.w3.org/2000/svg" xmlns:xlink="http://www.w3.org/1999/xlink" x="0px" y="0px"
	 viewBox="0 0 128 128" style="enable-background:new 0 0 128 128;" xml:space="preserve">
<style type="text/css">
	.st0{fill:#20B898;}
	.st1{fill:#FFFFFF;}
</style>
<g>
	<path class="st1" d="M103.8,25.5c-5.7,0-10.9,0-16.4,0c0,5.6,0,10.8,0,16.3c6.1,0,11.2,0,16.4,0C103.8,36.1,103.8,31,103.8,25.5z"
		/>
	<path class="st1" d="M65.7,81.5c9.4-0.1,17.3-8.2,17.4-17.7c0.1-9.8-8.4-17.9-18.3-17.6c-9.5,0.3-17.3,8.6-17,18
		C48.2,73.8,56.3,81.7,65.7,81.5z"/>
	<path class="st1" d="M109.5,0H18.5C8.3,0,0,8.3,0,18.5v90.9C0,119.7,8.3,128,18.5,128h90.9c10.2,0,18.5-8.3,18.5-18.5V18.5
		C128,8.3,119.7,0,109.5,0z M115.4,93.2c-0.3,12.9-7.7,20.4-20.6,20.6c-19.5,0.3-39,0.3-58.5,0c-12.8-0.2-20.4-7.7-20.6-20.6
		c-0.3-19.5-0.3-39,0-58.5c0.2-12.9,7.7-20.4,20.6-20.6c19.5-0.3,39-0.3,58.5,0c12.8,0.2,20.3,7.7,20.6,20.6
		c0.3,9.7,0.1,19.5,0.1,29.3C115.4,73.7,115.6,83.4,115.4,93.2z"/>
	<path class="st1" d="M92,53.9c1.4,22.8-7.1,36.4-23.8,36.5c-6.6,0.1-14.1-2.2-19.6-5.8c-10.9-7.2-10.8-19.2-9.2-30.9
		c-5.1,0-9.2,0-14.4,0c0,13.9-0.2,26.9,0.1,39.9c0.1,7.1,4.3,10.9,11.3,10.9c19.5,0.1,39,0.1,58.6,0c6.1,0,10.8-3,11.1-9.2
		c0.5-13.8,0.2-27.6,0.2-41.4C100.6,53.9,96.3,53.9,92,53.9z"/>
</g>
</svg>
