<?xml version="1.0" encoding="utf-8"?>
<!-- Generator: Adobe Illustrator 19.2.1, SVG Export Plug-In . SVG Version: 6.00 Build 0)  -->
<svg version="1.1" id="Layer_1" xmlns="http://www.w3.org/2000/svg" xmlns:xlink="http://www.w3.org/1999/xlink" x="0px" y="0px"
	 viewBox="0 0 128 128" style="enable-background:new 0 0 128 128;" xml:space="preserve">
<style type="text/css">
	.st0{fill:#20B898;}
	.st1{fill:#FFFFFF;}
</style>
<g>
	<path class="st0" d="M49.3,114.2c0-16.5,0-32.9,0-49.4c0-0.2,0-0.3,0-0.6c-3.3,0-6.6,0-10,0c0-0.4-0.1-0.7-0.1-0.9c0-5,0-10,0-14.9
		c0-0.8,0.3-1,1.1-1c2.6,0,5.3,0,7.9,0c0.4,0,0.7,0,1.2,0c0-0.4,0-0.8,0-1.1c0-4.6,0-9.1,0-13.7c0.1-3.5,0.8-6.9,2.7-9.9
		c2.6-4.2,6.4-6.4,11-7.5c1.5-0.4,3.1-0.5,4.6-0.8c6.1,0,12.2,0,18.4,0c0,1.9-0.1,3.7-0.1,5.6c0,3.6,0,7.2,0,10.8c0,0.3,0,0.7,0,1.2
		c-0.5,0-0.8,0-1.2,0c-3.3,0-6.6,0-9.9,0c-2.8,0-4.8,2-4.8,4.8c0,3.5,0,7,0,10.7c5.2,0,10.4,0,15.8,0c-0.7,5.7-1.3,11.3-1.9,16.9
		c-4.7,0-9.3,0-14,0c0,0.5,0,0.9,0,1.3c0,15.8,0,31.6,0,47.4c0,0.4,0,0.8-0.1,1.3C63.1,114.2,56.2,114.2,49.3,114.2z"/>
</g>
</svg>
