<?xml version="1.0" encoding="utf-8"?>
<!-- Generator: Adobe Illustrator 19.2.1, SVG Export Plug-In . SVG Version: 6.00 Build 0)  -->
<svg version="1.1" id="Layer_1" xmlns="http://www.w3.org/2000/svg" xmlns:xlink="http://www.w3.org/1999/xlink" x="0px" y="0px"
	 viewBox="0 0 128 128" style="enable-background:new 0 0 128 128;" xml:space="preserve">
<style type="text/css">
	.st0{fill:#20B898;}
	.st1{fill:#FFFFFF;}
</style>
<path class="st1" d="M109.5,0H18.5C8.3,0,0,8.3,0,18.5v90.9C0,119.7,8.3,128,18.5,128h90.9c10.2,0,18.5-8.3,18.5-18.5V18.5
	C128,8.3,119.7,0,109.5,0z M115.7,56.1c-0.1,0.2-0.2,0.4-0.2,0.6c-0.4,4.6-1.9,9-4.4,12.9c-5.6,9-13.6,14.6-23.9,17
	c-4.5,1.1-9,1.3-13.6,0.5c-1.7-0.3-3.4-0.6-5.1-1c0,0.2,0,0.4,0,0.6c0.6,5.2,0.1,10.2-2,15c-2.1,5-5.6,8.8-10.7,10.9
	c-1.6,0.6-3.4,1-5.1,1.4c-1.5,0-3,0-4.5,0c-0.1-0.1-0.3-0.1-0.4-0.2c-2.3-0.6-4.7-1.1-6.9-1.8c-2.1-0.6-3.3-2.2-3.8-4.3
	c-0.6-2.7-0.3-5.4-0.1-8.1c0.1-1.5,0.2-3.1,0.2-4.7c0.7,0.2,1.3,0.4,1.9,0.7c1.4,0.6,2.8,1.4,4.3,1.9c3,1,5.5,0.2,6.5-3
	c0.2-0.7,0.4-1.3,0.5-2c0.9-4.6,0.7-9.3,0.7-14c-0.1-11.4-0.3-22.8-0.4-34.3c0-0.4,0-0.8,0-1.2c0-0.6,0.3-1,0.9-1
	c1.2-0.2,2.4-0.4,3.6-0.4c4.3,0.1,8.6,0.3,12.9,0.5c1.3,0.1,1.3,0.2,1.3,1.5c0,8.1,0,16.2,0,24.3c0,3.5,0,3.4,3.4,4.2
	c5.2,1.2,10.2,1.1,15.2-0.9C94,68.2,98.4,60.6,97,52.2C96,45.8,92.6,40.8,87.4,37c-5.3-3.9-11.3-6-17.8-6.8
	c-6.7-0.8-13.3-0.2-19.5,2.6c-6.5,2.9-11.7,7.4-14.8,14c-3,6.3-2.5,12.4,1.4,18.2c0.5,0.7,1,1.5,1.6,2.2c-2.7,2.4-5.3,4.9-8.1,7.1
	c-1.7,1.4-3.8,2.3-5.7,3.4c-0.6,0.3-0.9,0.1-1.3-0.3c-3.4-3.9-5.4-8.4-6.5-13.4c-0.5-2-0.7-4.2-1-6.2c0-2,0-3.9,0-5.9
	c0.2-1.3,0.4-2.7,0.6-4c1.8-11.6,7.8-20.4,17.9-26.4c7.1-4.2,14.9-6.2,23-7.1c1.3-0.2,2.7-0.3,4.1-0.4c2.4,0,4.8,0,7.2,0
	c0.3,0.1,0.6,0.1,0.9,0.2c2.8,0.3,5.6,0.5,8.3,1c7.8,1.4,15.1,4.1,21.6,8.6c7.8,5.4,13.3,12.4,15.5,21.8c0.4,1.6,0.6,3.3,0.9,5
	C115.7,52.5,115.7,54.3,115.7,56.1z"/>
</svg>
