<?xml version="1.0" encoding="utf-8"?>
<!-- Generator: Adobe Illustrator 19.2.1, SVG Export Plug-In . SVG Version: 6.00 Build 0)  -->
<svg version="1.1" id="Layer_1" xmlns="http://www.w3.org/2000/svg" xmlns:xlink="http://www.w3.org/1999/xlink" x="0px" y="0px"
	 viewBox="0 0 128 128" style="enable-background:new 0 0 128 128;" xml:space="preserve">
<style type="text/css">
	.st0{fill:#20B898;}
	.st1{fill:#FFFFFF;}
</style>
<g>
	<path class="st0" d="M14.2,33.1c0.4,0,0.7-0.1,1.1-0.1c9.4,0,18.8,0,28.2,0c4.1,0,8.1,0.5,11.8,2.4c4.5,2.4,7.1,6.1,7.7,11.1
		c0.2,2.2,0.1,4.6-0.3,6.8c-0.6,3.5-2.8,6.1-5.9,7.9c-0.3,0.2-0.7,0.4-1.1,0.6c0.9,0.4,1.7,0.8,2.4,1.2c4.3,2.4,6.4,6.3,6.9,11
		c0.7,6.8-1.4,12.6-6.7,17c-2.7,2.2-5.9,3.3-9.4,3.7c-2.6,0.3-5.3,0.5-8,0.5c-8.5,0.1-17,0-25.5,0c-0.4,0-0.8,0-1.3-0.1
		C14.2,74.5,14.2,53.8,14.2,33.1z M28.6,84.5c4.3,0,8.6,0,12.8,0c1.1,0,2.1-0.1,3.2-0.2c6.1-0.6,9.5-7.1,6.5-12.5
		c-1.4-2.6-3.9-3.5-6.6-3.6c-5.2-0.2-10.5-0.2-15.7-0.2c-0.1,0-0.1,0.1-0.2,0.1C28.6,73.5,28.6,78.9,28.6,84.5z M28.6,57.5
		c0.3,0,0.5,0,0.7,0c4.2,0,8.5,0,12.7,0c1.1,0,2.3-0.1,3.4-0.4c2-0.5,3.8-1.2,4.7-3.2c0.8-1.9,0.9-3.8,0.3-5.7
		c-0.4-1.6-1.5-2.8-3.1-3.3c-1.3-0.4-2.7-0.7-4.1-0.8c-4.7-0.1-9.4-0.2-14-0.2c-0.2,0-0.4,0.1-0.5,0.1C28.6,48.5,28.6,53,28.6,57.5z
		"/>
	<path class="st0" d="M114.2,74.4c-10.8,0-21.5,0-32.3,0c-0.6,3.2,1.5,7.7,4.5,9.4c4.1,2.3,8.4,2.5,12.4-0.1c1-0.6,1.6-1.8,2.4-2.6
		c0.2-0.3,0.6-0.6,0.9-0.6c3.7,0,7.4,0,11.1,0c0.1,0,0.1,0,0.3,0.1c-0.3,2.4-1.5,4.4-2.9,6.3c-4.7,6-11.1,8.2-18.5,8.1
		c-6.2-0.1-11.7-2.1-16.3-6.3C73,86,71.5,82.7,70.8,79c-1.2-5.6-1.2-11.2,0.5-16.7c2.3-7.6,7.4-12.3,15.1-14.1
		c5.4-1.2,10.7-0.8,15.9,1.3c4.3,1.8,7.4,5,9.4,9.2c1.4,2.8,2.2,5.8,2.3,9c0,0.3,0.1,0.6,0.2,0.9C114.2,70.6,114.2,72.5,114.2,74.4z
		 M102,66.6c-0.5-6.6-4.9-10-11.8-9.3c-5.3,0.6-7.9,5.6-8,9.3C88.8,66.6,95.4,66.6,102,66.6z"/>
	<path class="st0" d="M104.5,35.7c0,2.1,0,4.1,0,6.1c-8.3,0-16.6,0-25,0c0-2,0-4,0-6.1C87.8,35.7,96.1,35.7,104.5,35.7z"/>
</g>
</svg>
