<?xml version="1.0" encoding="utf-8"?>
<!-- Generator: Adobe Illustrator 19.2.1, SVG Export Plug-In . SVG Version: 6.00 Build 0)  -->
<svg version="1.1" id="Layer_1" xmlns="http://www.w3.org/2000/svg" xmlns:xlink="http://www.w3.org/1999/xlink" x="0px" y="0px"
	 viewBox="0 0 128 128" style="enable-background:new 0 0 128 128;" xml:space="preserve">
<style type="text/css">
	.st0{fill:#20B898;}
	.st1{fill:#FFFFFF;}
</style>
<g>
	<path class="st1" d="M46,68.1c-5.2-0.2-10.5-0.2-15.7-0.2c-0.1,0-0.1,0.1-0.2,0.1c0,5.4,0,10.9,0,16.5c4.3,0,8.6,0,12.8,0
		c1.1,0,2.1-0.1,3.2-0.2c6.1-0.6,9.5-7.1,6.5-12.5C51.2,69.1,48.7,68.2,46,68.1z"/>
	<path class="st1" d="M91.7,57.3c-5.3,0.6-7.9,5.6-8,9.3c6.6,0,13.1,0,19.8,0C103,60,98.6,56.6,91.7,57.3z"/>
	<path class="st1" d="M43.5,57.5c1.1,0,2.3-0.1,3.4-0.4c2-0.5,3.8-1.2,4.7-3.2c0.8-1.9,0.9-3.8,0.3-5.7c-0.4-1.6-1.5-2.8-3.1-3.3
		c-1.3-0.4-2.7-0.7-4.1-0.8c-4.7-0.1-9.4-0.2-14-0.2c-0.2,0-0.4,0.1-0.5,0.1c0,4.5,0,9,0,13.5c0.3,0,0.5,0,0.7,0
		C35.1,57.5,39.3,57.5,43.5,57.5z"/>
	<path class="st1" d="M109.5,0H18.5C8.3,0,0,8.3,0,18.5v90.9C0,119.7,8.3,128,18.5,128h90.9c10.2,0,18.5-8.3,18.5-18.5V18.5
		C128,8.3,119.7,0,109.5,0z M81,35.7c8.3,0,16.6,0,25,0c0,2.1,0,4.1,0,6.1c-8.3,0-16.6,0-25,0C81,39.7,81,37.7,81,35.7z M59.8,91
		c-2.7,2.2-5.9,3.3-9.4,3.7c-2.6,0.3-5.3,0.5-8,0.5c-8.5,0.1-17,0-25.5,0c-0.4,0-0.8,0-1.3-0.1c0-20.7,0-41.4,0-62.1
		c0.4,0,0.7-0.1,1.1-0.1c9.4,0,18.8,0,28.2,0c4.1,0,8.1,0.5,11.8,2.4c4.5,2.4,7.1,6.1,7.7,11.1c0.2,2.2,0.1,4.6-0.3,6.8
		c-0.6,3.5-2.8,6.1-5.9,7.9c-0.3,0.2-0.7,0.4-1.1,0.6c0.9,0.4,1.7,0.8,2.4,1.2c4.3,2.4,6.4,6.3,6.9,11C67.2,80.8,65.1,86.6,59.8,91z
		 M115.7,74.3c-10.8,0-21.5,0-32.3,0c-0.6,3.2,1.5,7.7,4.5,9.4c4.1,2.3,8.4,2.5,12.4-0.1c1-0.6,1.6-1.8,2.4-2.6
		c0.2-0.3,0.6-0.6,0.9-0.6c3.7,0,7.4,0,11.1,0c0.1,0,0.1,0,0.3,0.1c-0.3,2.4-1.5,4.4-2.9,6.3c-4.7,6-11.1,8.2-18.5,8.1
		c-6.2-0.1-11.7-2.1-16.3-6.3c-2.8-2.6-4.3-5.9-5.1-9.6c-1.2-5.6-1.2-11.2,0.5-16.7c2.3-7.6,7.4-12.3,15.1-14.1
		c5.4-1.2,10.7-0.8,15.9,1.3c4.3,1.8,7.4,5,9.4,9.2c1.4,2.8,2.2,5.8,2.3,9c0,0.3,0.1,0.6,0.2,0.9C115.7,70.5,115.7,72.4,115.7,74.3z
		"/>
</g>
</svg>
