<?xml version="1.0" encoding="utf-8"?>
<!-- Generator: Adobe Illustrator 19.2.1, SVG Export Plug-In . SVG Version: 6.00 Build 0)  -->
<svg version="1.1" id="Layer_1" xmlns="http://www.w3.org/2000/svg" xmlns:xlink="http://www.w3.org/1999/xlink" x="0px" y="0px"
	 viewBox="0 0 300 300" style="enable-background:new 0 0 300 300;" xml:space="preserve">
<style type="text/css">
	.st0{fill:#4A4A4A;}
	.st1{fill:#23B898;}
</style>
<path class="st0" d="M259.5,109.7H53.6c-7.4,0-13.4-6-13.4-13.4V87c0-7.4,6-13.4,13.4-13.4h205.9c7.4,0,13.4,6,13.4,13.4v9.3
	C272.9,103.7,266.9,109.7,259.5,109.7z"/>
<path class="st1" d="M259.5,164.1H53.6c-7.4,0-13.4-6-13.4-13.4v-9.3c0-7.4,6-13.4,13.4-13.4h205.9c7.4,0,13.4,6,13.4,13.4v9.3
	C272.9,158.1,266.9,164.1,259.5,164.1z"/>
<path class="st0" d="M259.5,218.5H53.6c-7.4,0-13.4-6-13.4-13.4v-9.3c0-7.4,6-13.4,13.4-13.4h205.9c7.4,0,13.4,6,13.4,13.4v9.3
	C272.9,212.5,266.9,218.5,259.5,218.5z"/>
</svg>
