<?xml version="1.0" encoding="UTF-8" standalone="no"?>
<svg width="289px" height="144px" viewBox="0 0 289 144" version="1.1" xmlns="http://www.w3.org/2000/svg" xmlns:xlink="http://www.w3.org/1999/xlink">
    <!-- Generator: Sketch 3.6.1 (26313) - http://www.bohemiancoding.com/sketch -->
    <title>Artboard 7</title>
    <desc>Created with Sketch.</desc>
    <defs>
        <filter x="-50%" y="-50%" width="200%" height="200%" filterUnits="objectBoundingBox" id="filter-1">
            <feOffset dx="0" dy="2" in="SourceAlpha" result="shadowOffsetOuter1"></feOffset>
            <feGaussianBlur stdDeviation="2.5" in="shadowOffsetOuter1" result="shadowBlurOuter1"></feGaussianBlur>
            <feColorMatrix values="0 0 0 0 0   0 0 0 0 0   0 0 0 0 0  0 0 0 0.35 0" in="shadowBlurOuter1" type="matrix" result="shadowMatrixOuter1"></feColorMatrix>
            <feMerge>
                <feMergeNode in="shadowMatrixOuter1"></feMergeNode>
                <feMergeNode in="SourceGraphic"></feMergeNode>
            </feMerge>
        </filter>
    </defs>
    <g id="Page-1" stroke="none" stroke-width="1" fill="none" fill-rule="evenodd" filter="url(#filter-1)">
        <g id="Artboard-7">
            <g id="responsive-Logo" transform="translate(21.000000, 14.988212)">
                <path d="M197.035025,39.02307 C202.930848,39.02307 208.373338,39.0125854 213.815329,39.0260656 C218.738584,39.0380479 220.238876,40.481923 220.245366,45.3717267 C220.268332,63.6802821 220.270829,81.9893368 220.24936,100.297892 C220.243868,105.02893 218.760052,106.477797 214.057473,106.481791 C200.215344,106.492775 186.373216,106.493774 172.531087,106.481292 C168.022223,106.477298 166.80751,105.274568 166.776556,100.717774 C166.737613,94.9427733 166.76707,89.167273 166.76707,83.209541 L94.4160485,83.209541 L94.4160485,92.0899717 L11.0627191,92.0899717 C11.0082992,91.010061 10.9164343,90.0334982 10.9159351,89.0569354 C10.9074476,73.3156019 10.9014564,57.5747676 10.9164343,41.8339332 C10.9209277,37.082426 12.3608087,35.6530296 17.0893497,35.6510326 C34.616555,35.6445421 52.1432611,35.6505333 69.6704664,35.6520311 L75.1608862,35.6520311 C75.1608862,29.7911565 75.1678759,24.2528073 75.1588891,18.714458 C75.1518994,14.4727006 75.1004751,10.2309432 75.1124574,5.98918575 C75.1254383,1.37897058 76.4215309,0.103847169 81.1291028,0.102349373 C115.178492,0.0933625988 149.227882,0.0968574555 183.277771,0.095858925 L189.640907,0.095858925 C196.294115,0.0973567207 197.021045,0.825285432 197.031031,7.62877278 C197.043512,16.6714647 197.034525,25.7141566 197.035025,34.7568485 L197.035025,39.02307 L197.035025,39.02307 Z M82.9828746,35.6490355 C85.3099498,35.6490355 87.2925321,35.5926186 89.2711202,35.6615172 C92.5213369,35.7743511 94.1055055,37.4743492 94.1199842,40.7195732 C94.1664158,51.4068448 94.2128475,62.0941165 94.277752,72.7813881 C94.2842424,73.8503149 94.417047,74.9192418 94.499925,76.1099894 C95.4450341,76.1938659 96.0990716,76.3022065 96.7536083,76.3022065 C119.073261,76.3131903 141.393412,76.2882271 163.713064,76.3526323 C166.044134,76.3591227 166.822988,75.5647917 166.801519,73.2467033 C166.713149,63.6727931 166.750095,54.0973852 166.78704,44.5224765 C166.802518,40.5523194 168.280842,39.0999568 172.211058,39.0275634 C173.773259,38.9991052 175.335959,39.0225707 176.89816,39.0225707 C180.972164,39.0220714 185.046169,39.0220714 189.151627,39.0220714 L189.151627,8.06463133 L82.9828746,8.06463133 L82.9828746,35.6490355 L82.9828746,35.6490355 Z M86.9075986,87.1292724 C87.0114458,86.371887 87.1472459,85.8396703 87.1487437,85.3074535 C87.1772018,72.3575119 87.1063062,59.4060724 87.2725615,46.4576286 C87.3110049,43.4480577 86.3169678,42.7605695 83.4397023,42.7775445 C62.9129114,42.8983667 42.3851221,42.840452 21.857832,42.8509365 C20.6765704,42.8519351 19.4958081,42.9577793 18.3105525,43.0151948 L18.3105525,87.1292724 L86.9075986,87.1292724 L86.9075986,87.1292724 Z M174.351907,98.41716 L212.4763,98.41716 L212.4763,46.1970121 L174.351907,46.1970121 L174.351907,98.41716 L174.351907,98.41716 Z M193.434324,105.28705 C194.385424,103.902587 195.446862,103.026377 195.338022,102.334894 C195.220695,101.59049 194.084367,100.724764 193.236615,100.499595 C192.828216,100.391255 191.554091,101.654895 191.580552,102.257508 C191.616499,103.086788 192.513679,103.878622 193.434324,105.28705 L193.434324,105.28705 Z" id="Fill-1" fill="#1ABC9C"></path>
                <path d="M0.355976112,96.6522574 C13.257489,96.6522574 25.9597951,96.6482633 38.6616019,96.6662369 C39.1908231,96.6667361 40.0745226,96.721156 40.1948455,97.0042394 C41.769528,100.712282 45.0402146,99.4865862 47.7462322,99.5689649 C52.2001773,99.7037666 56.66261,99.612401 61.12005,99.537012 C62.0841311,99.5205362 63.6598122,99.4526361 63.9024551,98.9249128 C65.3598104,95.7570749 68.0758132,96.6767214 70.4518165,96.6677347 C82.0417596,96.6233001 93.632202,96.6477641 105.691954,96.6477641 C105.691954,98.7042376 105.901146,100.579478 105.645522,102.388316 C105.213658,105.444318 103.183146,106.524728 100.175572,106.512746 C83.552037,106.448341 66.9280025,106.471307 50.3044672,106.471307 C36.3589907,106.471307 22.4100193,106.301557 8.46953543,106.553186 C0.173245036,106.702966 -0.60660726,105.025934 0.355976112,96.6522574" id="Fill-2" fill="#1ABC9C"></path>
                <path d="M112.170919,106.321527 L112.170919,103.040356 C112.472475,102.880591 112.658202,102.702853 112.854912,102.689872 C118.234994,102.336392 118.25147,102.341884 119.161631,96.8934025 C119.510118,94.8054753 119.941982,92.7075628 120.016872,90.6031599 C120.110234,87.9825166 121.038369,86.9500361 123.844239,87.0129436 C131.993246,87.1956746 140.15124,87.1856893 148.300747,87.0169377 C151.05719,86.9595222 152.023268,87.8656886 152.140596,90.5771981 C152.260419,93.3456238 153.173575,96.0815973 153.268935,98.8480259 C153.375778,101.936481 154.679359,103.039857 157.619532,102.604997 C158.262586,102.509637 158.941087,102.652926 159.868223,102.699857 L159.868223,106.321527 L112.170919,106.321527" id="Fill-3" fill="#1ABC9C"></path>
                <path d="M225.23702,86.4762334 C225.23702,81.6797923 225.192585,76.882852 225.251998,72.0874094 C225.293437,68.7083823 226.778751,67.2085895 230.142301,67.1561667 C234.4914,67.0892651 238.841998,67.1391916 243.192096,67.1371946 C246.285543,67.1356968 248.10187,68.6654455 248.122839,71.7623877 C248.191738,81.8006145 248.172766,91.8398398 248.106863,101.877567 C248.087891,104.787285 246.503223,106.433862 243.51512,106.459824 C238.94235,106.499266 234.368581,106.530719 229.79631,106.466813 C226.858633,106.425374 225.268973,104.85169 225.254994,101.869579 C225.23053,96.7386303 225.248004,91.6071822 225.248004,86.4762334 L225.23702,86.4762334 L225.23702,86.4762334 Z M228.256576,73.1743098 L228.256576,99.2344572 C233.543795,99.2344572 238.548929,99.284883 243.550069,99.1670564 C244.144194,99.153077 245.218114,98.2229459 245.224604,97.7067056 C245.331447,89.5976397 245.299494,81.4870759 245.299494,73.1743098 L228.256576,73.1743098 L228.256576,73.1743098 Z M236.968754,99.5025627 C235.8509,100.799154 234.680622,101.572017 234.732545,102.252016 C234.79096,103.016891 235.847904,104.02291 236.673189,104.284525 C237.115538,104.424819 238.461558,103.273014 238.53445,102.608991 C238.619325,101.836128 237.758093,100.959419 236.968754,99.5025627 L236.968754,99.5025627 Z M240.534507,71.0329612 C240.542495,70.7383947 240.550483,70.4438282 240.558472,70.1487625 L233.065,70.1487625 C233.075983,70.4438282 233.087467,70.7383947 233.09845,71.0329612 L240.534507,71.0329612 L240.534507,71.0329612 Z" id="Fill-4" fill="#1ABC9C"></path>
                <path d="M82.9828746,35.6490355 L82.9828746,8.06463133 L189.151627,8.06463133 L189.151627,39.0220714 C185.046169,39.0220714 180.972164,39.0220714 176.89816,39.0225707 C175.335959,39.0225707 173.773259,38.9991052 172.211058,39.0275634 C168.280842,39.0999568 166.802518,40.5523194 166.78704,44.5224765 C166.750095,54.0973852 166.713149,63.6727931 166.801519,73.2467033 C166.822988,75.5647917 166.044134,76.3591227 163.713064,76.3526323 C141.393412,76.2882271 119.073261,76.3131903 96.7536083,76.3022065 C96.0990716,76.3022065 95.4450341,76.1938659 94.499925,76.1099894 C94.417047,74.9192418 94.2842424,73.8503149 94.277752,72.7813881 C94.2128475,62.0941165 94.1664158,51.4068448 94.1199842,40.7195732 C94.1055055,37.4743492 92.5213369,35.7743511 89.2711202,35.6615172 C87.2925321,35.5926186 85.3099498,35.6490355 82.9828746,35.6490355" id="Fill-5" fill="#FFFFFF"></path>
                <path d="M86.9075986,87.1292724 L18.3105525,87.1292724 L18.3105525,43.0151948 C19.4958081,42.9577793 20.6765704,42.8519351 21.857832,42.8509365 C42.3851221,42.840452 62.9129114,42.8983667 83.4397023,42.7775445 C86.3169678,42.7605695 87.3110049,43.4480577 87.2725615,46.4576286 C87.1063062,59.4060724 87.1772018,72.3575119 87.1487437,85.3074535 C87.1472459,85.8396703 87.0114458,86.371887 86.9075986,87.1292724" id="Fill-6" fill="#FFFFFF"></path>
                <path d="M174.351907,98.41716 L174.351907,46.1970121 L212.4763,46.1970121 L212.4763,98.41716 L174.351907,98.41716" id="Fill-7" fill="#FFFFFF"></path>
                <path d="M193.434324,105.28705 C192.513679,103.878622 191.616499,103.086788 191.580552,102.257508 C191.554091,101.654895 192.828216,100.391255 193.236615,100.499595 C194.084367,100.724764 195.220695,101.59049 195.338022,102.334894 C195.446862,103.026377 194.385424,103.902587 193.434324,105.28705" id="Fill-8" fill="#FFFFFF"></path>
                <path d="M228.256576,73.1743098 L245.299494,73.1743098 C245.299494,81.4870759 245.331447,89.5976397 245.224604,97.7067056 C245.218114,98.2229459 244.144194,99.153077 243.550069,99.1670564 C238.548929,99.284883 233.543795,99.2344572 228.256576,99.2344572 L228.256576,73.1743098" id="Fill-9" fill="#FFFFFF"></path>
                <path d="M236.968754,99.5025627 C237.758093,100.959419 238.619325,101.836128 238.53445,102.608991 C238.461558,103.273014 237.115538,104.424819 236.673189,104.284525 C235.847904,104.02291 234.79096,103.016891 234.732545,102.252016 C234.680622,101.572017 235.8509,100.799154 236.968754,99.5025627" id="Fill-10" fill="#FFFFFF"></path>
                <path d="M240.534507,71.0329612 L233.09845,71.0329612 C233.087467,70.7383947 233.075983,70.4438282 233.065,70.1487625 L240.558472,70.1487625 C240.550483,70.4438282 240.542495,70.7383947 240.534507,71.0329612" id="Fill-11" fill="#FFFFFF"></path>
            </g>
        </g>
    </g>
</svg>