<?xml version="1.0" encoding="UTF-8" standalone="no"?>
<svg width="219px" height="144px" viewBox="0 0 219 144" version="1.1" xmlns="http://www.w3.org/2000/svg" xmlns:xlink="http://www.w3.org/1999/xlink">
    <!-- Generator: Sketch 3.6.1 (26313) - http://www.bohemiancoding.com/sketch -->
    <title>Artboard 7</title>
    <desc>Created with Sketch.</desc>
    <defs>
        <path id="path-1" d="M56.9966905,75.6265278 L0.206265146,75.6265278 L0.206265146,0.0896252252 L56.9966905,0.0896252252 L56.9966905,75.6265278 L56.9966905,75.6265278 Z"></path>
        <path d="M135.238029,9.36106873 L97.2638687,9.36106873 C97.3022455,9.09982074 97.3461046,8.77993496 97.391394,8.40760889 L134.08029,8.40760889 C135.989117,8.40760889 137.536582,6.80603472 137.536582,4.712952 C137.536582,2.61986928 135.989117,1.01829511 134.08029,1.01829511 L97.7429823,1.01829511 C97.735593,0.705321919 97.7251049,0.387343061 97.7115181,0.0648352693 L135.238029,0.0648352693 C137.18118,0.0648352693 138.756296,2.09332108 138.756296,4.712952 C138.756296,7.33258292 137.18118,9.36106873 135.238029,9.36106873 L135.238029,9.36106873 Z M41.4581025,9.36106873 L3.72874308,9.36106873 C1.78559192,9.36106873 0.21047626,7.33258292 0.21047626,4.712952 C0.21047626,2.09332108 1.78559192,0.0648352693 3.72874308,0.0648352693 L41.0128368,0.0648352693 C40.9990116,0.387104696 40.9885235,0.705321919 40.9811342,1.01829511 L4.88648169,1.01829511 C2.97765509,1.01829511 1.43018976,2.61986928 1.43018976,4.712952 C1.43018976,6.80603472 2.97765509,8.40760889 4.88648169,8.40760889 L41.3305773,8.40760889 C41.3758666,8.77945823 41.4197258,9.09934401 41.4581025,9.36106873 L41.4581025,9.36106873 Z" id="path-3"></path>
    </defs>
    <g id="Page-1" stroke="none" stroke-width="1" fill="none" fill-rule="evenodd">
        <g id="Artboard-7">
            <g id="19" transform="translate(14.000000, -3.000000)">
                <path d="M168.285662,125.907709 C168.285662,127.357207 167.337446,128.543549 166.021195,128.543549 L24.6707734,128.543549 C23.3542837,128.543549 22.1679413,127.357207 22.1679413,125.907709 L22.1679413,29.5052916 C22.1679413,28.0557942 23.3542837,27.0000758 24.6707734,27.0000758 L166.021195,27.0000758 C167.337446,27.0000758 168.285662,28.0557942 168.285662,29.5052916 L168.285662,125.907709" id="Fill-4" fill="#1ABC9C"></path>
                <path d="M166.140378,123.540984 C166.140378,124.947814 165.220289,126.159899 163.942414,126.159899 L26.7426417,126.159899 C25.4647671,126.159899 24.313226,124.947814 24.313226,123.540984 L24.313226,29.9691498 C24.313226,28.5623198 25.4647671,27.4768057 26.7426417,27.4768057 L163.942414,27.4768057 C165.220289,27.4768057 166.140378,28.5623198 166.140378,29.9691498 L166.140378,123.540984" id="Fill-5" fill="#FFFFFF"></path>
                <path d="M168.285662,41.4211559 L166.140378,41.4211559 L166.140378,29.9691498 C166.140378,29.1987542 165.864589,28.5248965 165.40526,28.0727181 L166.021195,28.0727181 C167.337446,28.0727181 168.285662,29.1284366 168.285662,30.5779339 L168.285662,41.4211559 M24.313226,41.4211559 L22.1679413,41.4211559 L22.1679413,30.5779339 C22.1679413,29.1284366 23.3542837,28.0727181 24.6707734,28.0727181 L25.1806361,28.0727181 C24.6583784,28.5248965 24.313226,29.1987542 24.313226,29.9691498 L24.313226,41.4211559" id="Fill-6" fill="#1ABC9C"></path>
                <path d="M166.140378,41.4211559 L24.313226,41.4211559 L24.313226,29.9691498 C24.313226,29.1987542 24.6583784,28.5248965 25.1806361,28.0727181 L165.40526,28.0727181 C165.864589,28.5248965 166.140378,29.1987542 166.140378,29.9691498 L166.140378,41.4211559" id="Fill-7" fill="#E4E4DF"></path>
                <path d="M168.285662,39.3950538 L168.285662,28.5518317 C168.285662,27.1023344 167.337446,26.046616 166.021195,26.046616 L24.6707734,26.046616 C23.3542837,26.046616 22.1679413,27.1023344 22.1679413,28.5518317 L22.1679413,39.3950538 L168.285662,39.3950538" id="Fill-8" fill="#1ABC9C"></path>
                <path d="M32.7670777,36.0600896 C32.4316982,36.3952307 31.8879877,36.3952307 31.5528466,36.0600896 L27.0525161,31.5595208 C26.7168982,31.2243797 26.7168982,30.6804308 27.0525161,30.3452897 L27.1237872,30.2737802 C27.4591667,29.9384007 28.0028772,29.9384007 28.3382567,30.2737802 L32.8385872,34.7741106 C33.1739667,35.1094901 33.1739667,35.6532006 32.8385872,35.9883418 L32.7670777,36.0600896" id="Fill-9" fill="#095445"></path>
                <path d="M27.0522777,35.9883418 C26.7168982,35.6529623 26.7168982,35.1094901 27.0522777,34.7741106 L31.5528466,30.2737802 C31.8879877,29.9384007 32.4319365,29.9384007 32.7670777,30.2737802 L32.8385872,30.3450513 C33.1739667,30.6804308 33.1739667,31.2241413 32.8385872,31.5595208 L28.3382567,36.0598512 C28.0028772,36.3952307 27.4591667,36.3952307 27.1237872,36.0598512 L27.0522777,35.9883418" id="Fill-10" fill="#095445"></path>
                <path d="M41.9522331,34.4785381 C41.9522331,35.3507155 41.2450042,36.0579443 40.3728268,36.0579443 L37.8108802,36.0579443 C36.9387029,36.0579443 36.231474,35.3507155 36.231474,34.4785381 L36.231474,31.9165915 C36.231474,31.0444141 36.9387029,30.3371853 37.8108802,30.3371853 L40.3728268,30.3371853 C41.2450042,30.3371853 41.9522331,31.0444141 41.9522331,31.9165915 L41.9522331,34.4785381" id="Fill-11" fill="#095445"></path>
                <path d="M50.7717366,34.7915113 C50.7717366,35.2277192 50.4182414,35.5812144 49.9820335,35.5812144 L45.8406807,35.5812144 C45.4044728,35.5812144 45.0509776,35.2277192 45.0509776,34.7915113 L45.0509776,34.7023628 C45.0509776,34.2661549 45.4044728,33.9126597 45.8406807,33.9126597 L49.9820335,33.9126597 C50.4182414,33.9126597 50.7717366,34.2661549 50.7717366,34.7023628 L50.7717366,34.7915113" id="Fill-12" fill="#095445"></path>
                <g id="Group-26" transform="translate(66.027094, 50.533372)">
                    <mask id="mask-2" fill="white">
                        <use xlink:href="#path-1"></use>
                    </mask>
                    <g id="Clip-14"></g>
                    <path d="M28.797586,82.7774766 L48.6023771,82.7774766 C52.892708,82.7774766 56.3706912,79.3030689 56.3706912,75.0129764 C56.3706912,75.0129764 57.7791897,67.6348658 56.3706912,59.2842261 C55.6572649,55.0534864 52.4379077,51.756899 48.6023771,50.3989338 C43.8980062,48.7332395 33.7083809,47.9761924 28.7563489,47.9761924 L28.4486197,47.9761924 C23.4963493,47.9761924 13.304817,48.7341929 8.60044614,50.3994105 C4.76491556,51.7578525 1.54579677,55.0787531 0.832370443,59.3092544 C-0.576366475,67.6598941 0.832370443,75.0244179 0.832370443,75.0244179 C0.832370443,79.3147488 4.31011522,82.7774766 8.60044614,82.7774766 L28.797586,82.7774766" id="Fill-13" fill="#C6CFD6" mask="url(#mask-2)"></path>
                    <path d="M16.2660249,48.767564 C13.2876547,49.163965 10.4975929,49.686461 8.60044614,50.357935 C4.76491556,51.7161386 1.54579677,55.0580153 0.832370443,59.2885167 C-0.576366475,67.6391563 0.832370443,75.0144066 0.832370443,75.0144066 C0.832370443,79.3044991 4.31011522,82.7774766 8.60044614,82.7774766 L23.8648615,82.7774766 L16.2660249,48.767564" id="Fill-15" fill="#718A9F" mask="url(#mask-2)"></path>
                    <path d="M56.3706912,59.2742148 C55.6572649,55.0437134 52.4379077,51.7006449 48.6023771,50.3426797 C46.7004631,49.6690603 43.9013434,49.1563373 40.914392,48.7608898 L32.8669526,82.7774766 L48.6023771,82.7774766 C52.892708,82.7774766 56.3706912,79.3030689 56.3706912,75.0129764 C56.3706912,75.0129764 57.7791897,67.6250928 56.3706912,59.2742148" id="Fill-16" fill="#718A9F" mask="url(#mask-2)"></path>
                    <path d="M16.2970124,48.767564 L9.49932041,57.4879077 L16.273891,61.82615 L12.0393374,70.6427932 L19.8248138,82.7774766 L23.926598,82.7774766 L16.2970124,48.767564" id="Fill-17" fill="#627481" mask="url(#mask-2)"></path>
                    <path d="M40.7265604,48.767564 L47.5242524,57.4879077 L40.7499202,61.82615 L44.9842354,70.6427932 L37.198759,82.7774766 L33.0972132,82.7774766 L40.7265604,48.767564" id="Fill-18" fill="#627481" mask="url(#mask-2)"></path>
                    <path d="M19.5459268,49.6447471 L36.9465689,49.6447471 L36.9465689,36.0579443 L19.5459268,36.0579443 L19.5459268,49.6447471 Z" id="Fill-19" fill="#E6B49A" mask="url(#mask-2)"></path>
                    <path d="M46.0044374,28.1201528 C46.0044374,37.6750122 38.0435244,45.4204433 28.3654303,45.4204433 C18.6870978,45.4204433 10.7264232,37.6750122 10.7264232,28.1201528 L10.7264232,18.5819789 C10.7264232,9.02711942 18.6870978,1.28145003 28.3654303,1.28145003 C38.0435244,1.28145003 45.9469914,9.02711942 45.9469914,18.5819789 L46.0044374,28.1201528" id="Fill-20" fill="#F8D2B5" mask="url(#mask-2)"></path>
                    <path d="M11.0434486,19.8417377 C21.1184204,23.067054 31.9869092,17.6568845 35.1709883,7.71015302 L36.8791116,2.26113002 C34.3533965,0.87932834 31.4503496,0.0896252252 28.3654303,0.0896252252 C18.6870978,0.0896252252 10.7264232,7.83529462 10.7264232,17.3901541 L10.7264232,19.7316131 C10.8324956,19.7676062 10.9361844,19.8074131 11.0434486,19.8417377" id="Fill-21" fill="#7B614F" mask="url(#mask-2)"></path>
                    <path d="M45.9469914,17.3901541 C45.9469914,10.1154938 41.3632333,3.89393 34.9056881,1.33651233 C34.0916718,8.9694351 38.5753167,16.4414615 45.9591481,19.3878908 L45.9469914,17.3901541" id="Fill-22" fill="#7B614F" mask="url(#mask-2)"></path>
                    <path d="M36.8791116,49.6447471 C36.8791116,50.45781 33.0733767,51.1171274 28.3790171,51.1171274 C23.6846576,51.1171274 19.8789226,50.45781 19.8789226,49.6447471 C19.8789226,48.8316842 23.6846576,48.1723667 28.3790171,48.1723667 C33.0733767,48.1723667 36.8791116,48.8316842 36.8791116,49.6447471" id="Fill-23" fill="#E6B49A" mask="url(#mask-2)"></path>
                    <path d="M32.1792697,54.1796405 C32.1792697,55.7561863 30.9013951,57.0340609 29.3246109,57.0340609 L27.6446147,57.0340609 C26.0680688,57.0340609 24.7899559,55.7561863 24.7899559,54.1796405 L24.7899559,54.1679606 C24.7899559,52.5911764 26.0680688,51.3133018 27.6446147,51.3133018 L29.3246109,51.3133018 C30.9013951,51.3133018 32.1792697,52.5911764 32.1792697,54.1679606 L32.1792697,54.1796405" id="Fill-24" fill="#627481" mask="url(#mask-2)"></path>
                    <path d="M32.8669526,85.3994912 L23.926598,85.3994912 L26.4775798,56.080601 L30.729534,56.080601 L32.8669526,85.3994912" id="Fill-25" fill="#627481" mask="url(#mask-2)"></path>
                </g>
                <g id="Group-29" transform="translate(25.266686, 115.368641)">
                    <mask id="mask-4" fill="white">
                        <use xlink:href="#path-3"></use>
                    </mask>
                    <g id="Clip-28"></g>
                    <path d="M0.21047626,9.36106873 L138.756296,9.36106873 L138.756296,0.0648352693 L0.21047626,0.0648352693 L0.21047626,9.36106873 Z" id="Fill-27" fill="#E4E4DF" mask="url(#mask-4)"></path>
                </g>
                <path d="M122.530555,124.72971 L122.530316,124.72971 C122.568693,124.468462 122.612552,124.148576 122.657841,123.77625 L122.65808,123.77625 C122.61279,124.148576 122.568931,124.468462 122.530555,124.72971 M100.923963,124.72971 L98.07717,124.72971 L98.0078058,123.77625 L101.149694,123.77625 L100.923963,124.72971 M90.9283664,124.72971 L88.0286567,124.72971 L87.814605,123.77625 L91.0113174,123.77625 L90.9283664,124.72971 M66.7264569,124.72971 L66.7247883,124.72971 C66.6864116,124.467985 66.6425524,124.148099 66.5972631,123.77625 L66.5989316,123.77625 C66.644221,124.148338 66.6880801,124.468462 66.7264569,124.72971 M102.897625,116.386936 L97.469101,116.386936 L97.3994984,115.433476 L103.123356,115.433476 L102.897625,116.386936 M91.6544261,116.386936 L86.157015,116.386936 L85.9432017,115.433476 L91.7373771,115.433476 L91.6544261,116.386936" id="Fill-30" fill="#AFB6BC"></path>
                <path d="M80.3463924,124.72971 L66.7264569,124.72971 C66.6880801,124.468462 66.644221,124.148338 66.5989316,123.77625 L79.7347479,123.77625 L80.3463924,124.72971 M80.3666534,116.386936 L66.2478201,116.386936 C66.2552094,116.073963 66.2656974,115.755746 66.2795226,115.433476 L80.8245525,115.433476 L80.3666534,116.386936" id="Fill-31" fill="#677C8F"></path>
                <path d="M122.530316,124.72971 L108.731369,124.72971 L109.343013,123.77625 L122.657841,123.77625 C122.612552,124.148576 122.568693,124.468462 122.530316,124.72971 M101.049343,124.72971 L100.923963,124.72971 L101.149694,123.77625 L101.263156,123.77625 L101.049343,124.72971 M123.009668,116.386936 L108.711108,116.386936 L108.253209,115.433476 L122.978204,115.433476 C122.991791,115.755984 123.002279,116.073963 123.009668,116.386936 M102.920746,116.386936 L102.897625,116.386936 L103.123356,115.433476 L103.134798,115.433476 L102.920746,116.386936" id="Fill-32" fill="#677C8F"></path>
                <path d="M88.0286567,124.72971 L80.3463924,124.72971 L79.7347479,123.77625 L87.814605,123.77625 L88.0286567,124.72971 M86.157015,116.386936 L80.3666534,116.386936 L80.8245525,115.433476 L85.9432017,115.433476 L86.157015,116.386936" id="Fill-33" fill="#586773"></path>
                <path d="M108.731369,124.72971 L101.049343,124.72971 L101.263156,123.77625 L109.343013,123.77625 L108.731369,124.72971 M108.711108,116.386936 L102.920746,116.386936 L103.134798,115.433476 L108.253209,115.433476 L108.711108,116.386936" id="Fill-34" fill="#586773"></path>
                <path d="M98.07717,124.72971 L90.9283664,124.72971 L91.0113174,123.77625 L98.0078058,123.77625 L98.07717,124.72971 M97.469101,116.386936 L91.6544261,116.386936 L91.7373771,115.433476 L97.3994984,115.433476 L97.469101,116.386936" id="Fill-35" fill="#586773"></path>
                <path d="M162.803268,120.081593 C162.803268,122.174676 161.255803,123.77625 159.346976,123.77625 L30.1531675,123.77625 C28.2443409,123.77625 26.6968756,122.174676 26.6968756,120.081593 C26.6968756,117.98851 28.2443409,116.386936 30.1531675,116.386936 L159.346976,116.386936 C161.255803,116.386936 162.803268,117.98851 162.803268,120.081593" id="Fill-36" fill="#F5F4F2"></path>
                <path d="M160.896348,120.081593 C160.896348,120.937323 160.202706,121.630965 159.346976,121.630965 L31.3449923,121.630965 C30.4892621,121.630965 29.7956201,120.937323 29.7956201,120.081593 C29.7956201,119.225863 30.4892621,118.532221 31.3449923,118.532221 L159.346976,118.532221 C160.202706,118.532221 160.896348,119.225863 160.896348,120.081593" id="Fill-37" fill="#1ABC9C"></path>
                <path d="M68.6491087,120.081593 C68.6491087,120.937323 67.9554666,121.630965 67.0997364,121.630965 L31.3449923,121.630965 C30.4892621,121.630965 29.7956201,120.937323 29.7956201,120.081593 C29.7956201,119.225863 30.4892621,118.532221 31.3449923,118.532221 L67.0997364,118.532221 C67.9554666,118.532221 68.6491087,119.225863 68.6491087,120.081593" id="Fill-38" fill="#DE4861"></path>
                <path d="M66.6230065,121.630965 L63.008917,121.630965 C62.7328903,121.179025 62.5708022,120.649855 62.5708022,120.081593 C62.5708022,119.513331 62.7328903,118.984161 63.008917,118.532221 L66.6230065,118.532221 C67.4787367,118.532221 68.1723787,119.225863 68.1723787,120.081593 C68.1723787,120.937323 67.4787367,121.630965 66.6230065,121.630965" id="Fill-39" fill="#C73F56"></path>
                <path d="M69.483386,120.081593 C69.483386,121.727026 68.1492573,123.061155 66.503824,123.061155 C64.8583907,123.061155 63.524262,121.727026 63.524262,120.081593 C63.524262,118.43616 64.8583907,117.102031 66.503824,117.102031 C68.1492573,117.102031 69.483386,118.43616 69.483386,120.081593" id="Fill-40" fill="#1ABC9C"></path>
                <path d="M118.057398,102.751268 C117.733698,102.500509 117.39808,102.266196 117.051974,102.049284 C122.31698,97.2142888 125.971114,90.6554386 127.118842,83.2654097 C126.40184,90.8230091 123.078079,97.6207011 118.057398,102.751268 M71.6279556,102.449498 C66.1033709,96.6569915 62.7121526,88.8138309 62.7121526,80.1771533 C62.7121526,78.4788029 62.8434917,76.8097715 63.0963969,75.1822155 C62.9998591,76.198127 62.9505176,77.2290554 62.9505176,78.2702336 C62.9505176,87.4596795 66.7910538,95.7521582 72.9542182,101.630238 C72.4963191,101.874801 72.0529603,102.148682 71.6279556,102.449498" id="Fill-41" fill="#E4E4DF"></path>
                <path d="M97.1771039,112.380498 L97.0395673,110.496461 C99.6325013,110.352965 102.142723,109.903409 104.53686,109.183547 L104.095409,111.150773 C101.878614,111.801509 99.5638522,112.220555 97.1771039,112.380498 M92.0083981,112.317569 C89.5537157,112.09303 87.1796007,111.593655 84.9148952,110.850433 L84.4319678,108.697044 C86.8899873,109.569221 89.4838748,110.151785 92.1750152,110.403976 L92.0083981,112.317569" id="Fill-42" fill="#AFB6BC"></path>
                <path d="M76.5683078,106.684529 C74.7812856,105.440502 73.1263177,104.020324 71.6279556,102.449498 C72.0529603,102.148682 72.4963191,101.874801 72.9542182,101.630238 C74.3915589,103.001313 75.9540412,104.239858 77.6249796,105.328947 L76.5683078,106.684529" id="Fill-43" fill="#677C8F"></path>
                <path d="M112.820758,107.084267 L111.90496,105.909127 C113.748713,104.794056 115.473522,103.498781 117.051974,102.049284 C117.39808,102.266196 117.733698,102.500509 118.057398,102.751268 C116.471317,104.371912 114.71719,105.824985 112.820758,107.084267" id="Fill-44" fill="#677C8F"></path>
                <path d="M84.9148952,110.850433 C81.9150722,109.865747 79.1080864,108.45272 76.5683078,106.684529 L77.6249796,105.328947 C79.735463,106.704551 82.0185226,107.840837 84.4319678,108.697044 L84.9148952,110.850433" id="Fill-45" fill="#586773"></path>
                <path d="M104.095409,111.150773 L104.53686,109.183547 C107.14791,108.398373 109.618563,107.291883 111.90496,105.909127 L112.820758,107.084267 C110.163227,108.849121 107.227286,110.231399 104.095409,111.150773" id="Fill-46" fill="#586773"></path>
                <path d="M94.9884368,112.453437 C93.9842052,112.453437 92.9892699,112.407433 92.0083981,112.317569 L92.1750152,110.403976 C93.1794851,110.498368 94.1975419,110.546518 95.2268018,110.546518 C95.8351092,110.546518 96.4398411,110.529594 97.0395673,110.496461 L97.1771039,112.380498 C96.4536662,112.428886 95.7237927,112.453437 94.9884368,112.453437" id="Fill-47" fill="#586773"></path>
                <path d="M95.2268018,103.753593 C81.152781,103.753593 69.7434422,92.3444927 69.7434422,78.2702336 C69.7434422,64.1962128 81.152781,52.7871124 95.2268018,52.7871124 C109.300823,52.7871124 120.709923,64.1962128 120.709923,78.2702336 C120.709923,92.3444927 109.300823,103.753593 95.2268018,103.753593 M95.2268018,45.9939493 C77.4011549,45.9939493 62.9505176,60.4445867 62.9505176,78.2702336 C62.9505176,96.0961188 77.4011549,110.546518 95.2268018,110.546518 C113.052449,110.546518 127.503086,96.0961188 127.503086,78.2702336 C127.503086,60.4445867 113.052449,45.9939493 95.2268018,45.9939493" id="Fill-48" fill="#1ABC9C"></path>
                <path d="M109.151606,99.6160542 C108.434366,99.5009239 107.693766,99.393898 106.941486,99.2942615 L106.929091,99.3457483 C106.877366,99.3390741 106.825164,99.3323999 106.7732,99.3257256 L106.753655,99.3009357 L106.748887,99.3226269 C105.50343,99.1645909 104.227701,99.0301531 102.973663,98.919075 L102.973663,93.7568051 C108.360711,90.7960739 112.031532,85.142057 112.031532,78.6535244 L111.978853,69.9184021 C111.981236,69.9191172 111.983859,69.920309 111.986242,69.9212625 L111.974086,67.9235257 C111.974086,64.7945089 111.125745,61.8597595 109.645498,59.3283236 C116.194099,63.9402089 120.471558,71.5588297 120.471558,80.1771533 C120.471558,80.9306249 120.438902,81.6769456 120.374782,82.4137317 C119.199166,89.606156 115.012762,95.7850525 109.151606,99.6160542 M81.082225,99.4708899 C74.2456796,94.9007185 69.7434422,87.11119 69.7434422,78.2702336 C69.7434422,77.5170003 69.7763366,76.7706796 69.8402184,76.0338935 C70.8177531,70.0542701 73.876929,64.7747246 78.2490191,60.9625538 C77.2881699,63.0923447 76.7535173,65.4471521 76.7535173,67.9235257 L76.7535173,78.6535244 C76.7535173,85.0457576 80.3163584,90.628265 85.5730209,93.6233207 L85.5730209,98.9846254 C84.4910823,99.087599 83.400801,99.207735 82.3341178,99.3455099 L82.3241065,99.3009357 L82.3000316,99.3316848 L82.293119,99.3009357 C81.8855149,99.3552829 81.481248,99.4120138 81.082225,99.4708899" id="Fill-49" fill="#FFFFFF"></path>
                <path d="M97.9884982,103.605569 C97.5589646,102.572971 96.5401927,101.846673 95.351705,101.846673 L93.6717088,101.846673 C92.5542538,101.846673 91.5867305,102.488829 91.1178666,103.424173 C88.0498712,102.926943 85.1661319,101.881713 82.5689073,100.392647 L82.3341178,99.3455099 C83.400801,99.207735 84.4910823,99.087599 85.5730209,98.9846254 L85.5730209,100.178119 L85.9060167,100.178119 C85.9060167,100.991182 89.7117517,101.650499 94.4061112,101.650499 C99.1004708,101.650499 102.906206,100.991182 102.906206,100.178119 L102.973663,100.178119 L102.973663,98.919075 C104.227701,99.0301531 105.50343,99.1645909 106.748887,99.3226269 L106.323883,101.216913 C103.755977,102.461178 100.948991,103.286636 97.9884982,103.605569 M106.896435,99.484 L106.7732,99.3257256 C106.825164,99.3323999 106.877366,99.3390741 106.929091,99.3457483 L106.896435,99.484" id="Fill-50" fill="#D7DEE2"></path>
                <path d="M81.820918,99.946428 C81.5718266,99.7922059 81.3253573,99.6334548 81.082225,99.4708899 C81.481248,99.4120138 81.8855149,99.3552829 82.293119,99.3009357 L82.3000316,99.3316848 L81.820918,99.946428" id="Fill-51" fill="#9BACB9"></path>
                <path d="M107.690667,100.502772 L106.896435,99.484 L106.929091,99.3457483 L106.941486,99.2942615 C107.693766,99.393898 108.434366,99.5009239 109.151606,99.6160542 C108.675353,99.9275972 108.188373,100.22317 107.690667,100.502772" id="Fill-52" fill="#9BACB9"></path>
                <path d="M82.5689073,100.392647 C82.3164788,100.24796 82.0676258,100.099458 81.820918,99.946428 L82.3000316,99.3316848 L82.3241065,99.3009357 L82.5689073,100.392647" id="Fill-53" fill="#8D9BA3"></path>
                <path d="M106.323883,101.216913 L106.748887,99.3226269 L106.753655,99.3009357 L106.7732,99.3257256 L106.896435,99.484 L107.690667,100.502772 C107.243733,100.75377 106.786787,100.992612 106.323883,101.216913" id="Fill-54" fill="#8D9BA3"></path>
                <path d="M102.973663,100.178119 L102.906206,100.178119 C102.906206,99.3650559 99.1004708,98.7057384 94.4061112,98.7057384 C89.7117517,98.7057384 85.9060167,99.3650559 85.9060167,100.178119 L85.5730209,100.178119 L85.5730209,93.6233207 C88.173821,95.1052356 91.1891377,95.9538149 94.3925244,95.9538149 C97.4984199,95.9538149 100.427925,95.1560074 102.973663,93.7568051 L102.973663,100.178119" id="Fill-55" fill="#EECBB7"></path>
                <path d="M94.3925244,95.9538149 C91.1891377,95.9538149 88.173821,95.1052356 85.5730209,93.6233207 C80.3163584,90.628265 76.7535173,85.0457576 76.7535173,78.6535244 L76.7535173,69.1153505 L76.7535173,70.2649847 C76.8595897,70.3009778 76.9632785,70.3407848 77.0705427,70.3751093 C79.0432511,71.0065381 81.0479005,71.3071163 83.0177485,71.3073547 C91.1085704,71.3078314 98.637566,66.2428144 101.198082,58.2435247 L101.344915,57.7746608 C102.674753,63.1152277 106.538888,67.7449904 111.978853,69.9184021 L112.031532,78.6535244 C112.031532,85.142057 108.360711,90.7960739 102.973663,93.7568051 C100.427925,95.1560074 97.4984199,95.9538149 94.3925244,95.9538149" id="Fill-56" fill="#FCDEC8"></path>
                <path d="M83.0177485,71.3073547 C81.0479005,71.3071163 79.0432511,71.0065381 77.0705427,70.3751093 C76.9632785,70.3407848 76.8595897,70.3009778 76.7535173,70.2649847 L76.7535173,67.9235257 C76.7535173,65.4471521 77.2881699,63.0923447 78.2490191,60.9625538 C82.7264665,57.0581357 88.5811867,54.694032 94.9884368,54.694032 C97.0328931,54.694032 99.0218103,54.9347807 100.927061,55.389581 C101.010012,56.196208 101.150409,56.9930621 101.344915,57.7746608 L101.198082,58.2435247 C98.637566,66.2428144 91.1085704,71.3078314 83.0177485,71.3073547" id="Fill-57" fill="#A1907F"></path>
                <path d="M111.986242,69.9212625 C111.983859,69.920309 111.981236,69.9191172 111.978853,69.9184021 C106.538888,67.7449904 102.674753,63.1152277 101.344915,57.7746608 C101.150409,56.9930621 101.010012,56.196208 100.927061,55.389581 C104.105658,56.1482967 107.053518,57.5029247 109.645498,59.3283236 C111.125745,61.8597595 111.974086,64.7945089 111.974086,67.9235257 L111.986242,69.9212625" id="Fill-58" fill="#A1907F"></path>
                <path d="M94.4061112,101.650499 C89.7117517,101.650499 85.9060167,100.991182 85.9060167,100.178119 C85.9060167,99.3650559 89.7117517,98.7057384 94.4061112,98.7057384 C99.1004708,98.7057384 102.906206,99.3650559 102.906206,100.178119 C102.906206,100.991182 99.1004708,101.650499 94.4061112,101.650499" id="Fill-59" fill="#EECBB7"></path>
                <path d="M95.2268018,103.753593 C93.8283146,103.753593 92.4553324,103.640847 91.1178666,103.424173 C91.5867305,102.488829 92.5542538,101.846673 93.6717088,101.846673 L95.351705,101.846673 C96.5401927,101.846673 97.5589646,102.572971 97.9884982,103.605569 C97.0817579,103.703298 96.1597622,103.753593 95.2268018,103.753593" id="Fill-60" fill="#8D9BA3"></path>
                <path d="M120.374782,82.4137317 C120.438902,81.6769456 120.471558,80.9306249 120.471558,80.1771533 C120.471558,71.5588297 116.194099,63.9402089 109.645498,59.3283236 C108.800494,57.8835936 107.749782,56.5699643 106.532929,55.4260508 C114.934578,59.5921936 120.709923,68.2567599 120.709923,78.2702336 C120.709923,79.6808774 120.595269,81.0655395 120.374782,82.4137317 M69.8402184,76.0338935 C70.4940535,68.5127639 74.4158722,61.9269784 80.1769149,57.703628 C79.4198678,58.7123886 78.7712767,59.8043384 78.2490191,60.9625538 C73.876929,64.7747246 70.8177531,70.0542701 69.8402184,76.0338935" id="Fill-61" fill="#EEEEEA"></path>
                <path d="M78.2490191,60.9625538 C78.7712767,59.8043384 79.4198678,58.7123886 80.1769149,57.703628 C84.3943061,54.6120345 89.5968598,52.7871124 95.2268018,52.7871124 C97.1551743,52.7871124 99.0337286,53.0011641 100.839582,53.4070996 C100.829809,54.0726146 100.859366,54.7340774 100.927061,55.389581 C99.0218103,54.9347807 97.0328931,54.694032 94.9884368,54.694032 C88.5811867,54.694032 82.7264665,57.0581357 78.2490191,60.9625538" id="Fill-62" fill="#978779"></path>
                <path d="M109.645498,59.3283236 C107.053518,57.5029247 104.105658,56.1482967 100.927061,55.389581 C100.859366,54.7340774 100.829809,54.0726146 100.839582,53.4070996 C102.836126,53.8559408 104.744,54.5390948 106.532929,55.4260508 C107.749782,56.5699643 108.800494,57.8835936 109.645498,59.3283236" id="Fill-63" fill="#978779"></path>
                <path d="M95.2268018,103.753593 C81.152781,103.753593 69.7434422,92.3444927 69.7434422,78.2702336 C69.7434422,87.11119 74.2456796,94.9007185 81.082225,99.4708899 C81.3253573,99.6334548 81.5718266,99.7922059 81.820918,99.946428 C82.0676258,100.099458 82.3164788,100.24796 82.5689073,100.392647 C85.1661319,101.881713 88.0498712,102.926943 91.1178666,103.424173 C92.4553324,103.640847 93.8283146,103.753593 95.2268018,103.753593 C96.1597622,103.753593 97.0817579,103.703298 97.9884982,103.605569 C100.948991,103.286636 103.755977,102.461178 106.323883,101.216913 C106.786787,100.992612 107.243733,100.75377 107.690667,100.502772 C108.188373,100.22317 108.675353,99.9275972 109.151606,99.6160542 C115.012762,95.7850525 119.199166,89.606156 120.374782,82.4137317 C120.595269,81.0655395 120.709923,79.6808774 120.709923,78.2702336 C120.709923,92.3444927 109.300823,103.753593 95.2268018,103.753593" id="Fill-64" fill="#7EA1C9"></path>
                <path d="M86.3188648,64.6650767 L111.332884,80.343532 L86.4564014,95.8842123 L86.3188648,64.6650767" id="Fill-65" fill="#1ABC9C"></path>
            </g>
        </g>
    </g>
</svg>